<?xml version="1.0" standalone="no"?>
<!DOCTYPE svg PUBLIC "-//W3C//DTD SVG 20010904//EN"
 "http://www.w3.org/TR/2001/REC-SVG-20010904/DTD/svg10.dtd">
<svg version="1.0" xmlns="http://www.w3.org/2000/svg"
 width="500.000000pt" height="500.000000pt" viewBox="0 0 500.000000 500.000000"
 preserveAspectRatio="xMidYMid meet">

<g transform="translate(0.000000,500.000000) scale(0.100000,-0.100000)"
fill="#000000" stroke="none">
<path d="M1826 4635 c-38 -14 -71 -26 -73 -28 -2 -2 22 -9 53 -16 l56 -13 37
34 c20 18 40 36 46 40 20 17 -54 6 -119 -17z"/>
<path d="M1535 4507 c-96 -50 -225 -132 -225 -143 0 -3 4 -3 8 0 5 3 82 -10
173 -29 l164 -33 17 22 c22 27 22 31 -1 33 -11 1 -64 11 -117 23 -54 11 -103
19 -109 16 -6 -2 -22 2 -36 10 -21 12 -22 13 -4 13 11 1 70 -8 130 -20 237
-44 266 -48 282 -42 10 4 14 2 10 -4 -8 -13 81 -26 120 -17 19 4 24 3 15 -4
-14 -10 36 -26 116 -37 42 -5 47 -1 42 34 -1 12 1 13 13 2 17 -13 83 -6 93 10
8 14 44 10 44 -5 0 -9 -9 -12 -27 -8 -23 4 -26 2 -15 -9 20 -22 14 -31 -10
-15 -25 18 -38 20 -38 8 0 -13 47 -32 80 -32 22 0 43 15 97 71 37 39 67 76 65
81 -1 5 1 7 6 4 4 -2 14 -1 22 4 9 5 -27 10 -93 12 -59 2 -107 -1 -107 -6 0
-5 -6 -4 -12 1 -7 6 -42 13 -78 17 -79 8 -239 39 -376 72 -56 13 -112 24 -125
24 -13 -1 -69 -24 -124 -53z m341 -7 c16 0 24 -6 24 -17 0 -11 -3 -14 -8 -7
-4 6 -20 14 -37 17 -27 5 -28 4 -10 -9 16 -12 17 -14 2 -14 -24 0 -21 -19 6
-30 15 -6 17 -9 6 -9 -9 -1 -20 -12 -23 -26 -6 -24 -42 -52 -54 -41 -3 3 0 6
7 6 7 0 9 5 6 10 -4 7 -13 7 -26 0 -14 -8 -19 -7 -19 1 0 8 -4 8 -15 -1 -23
-19 -18 4 5 25 16 14 19 15 15 4 -4 -10 0 -16 10 -16 8 0 15 7 15 15 0 12 3
12 15 2 13 -11 18 -11 28 0 8 9 9 14 1 17 -6 2 -20 10 -30 18 -18 13 -18 14 6
39 13 15 30 24 38 21 7 -3 25 -5 38 -5z m133 -24 c-12 -10 -60 -16 -54 -6 3 5
18 10 32 10 15 0 24 -2 22 -4z m46 -16 c3 -5 14 -10 24 -10 10 0 23 -11 29
-25 17 -36 15 -53 -3 -29 -8 11 -15 14 -15 7 0 -7 -8 -13 -17 -13 -17 1 -17 1
0 11 9 5 17 17 17 24 0 15 -15 19 -55 17 -11 0 -14 2 -7 4 6 3 10 10 6 15 -3
5 -1 9 5 9 5 0 13 -4 16 -10z m-115 -25 c10 -12 9 -15 -4 -15 -10 0 -15 4 -11
9 3 5 -5 12 -17 14 -22 4 -22 4 -2 6 12 0 27 -6 34 -14z m195 5 c-3 -5 -11
-10 -16 -10 -6 0 -7 5 -4 10 3 6 11 10 16 10 6 0 7 -4 4 -10z m84 -8 c13 -19
61 -19 61 -1 0 5 5 9 10 9 16 0 12 -22 -7 -36 -13 -10 -14 -13 -4 -14 11 0 11
-3 1 -14 -13 -17 -40 -10 -40 9 0 7 -14 25 -31 39 -17 14 -24 26 -17 26 7 0
20 -8 27 -18z m156 -6 l24 -13 -39 -38 c-44 -43 -55 -37 -13 7 27 29 17 41
-11 12 -16 -16 -36 -11 -36 8 0 5 6 8 14 5 8 -3 22 1 33 9 17 15 17 15 -4 11
-13 -3 -25 -2 -27 2 -8 12 33 10 59 -3z m-195 -6 c0 -5 -5 -10 -11 -10 -5 0
-7 -5 -3 -11 4 -8 9 -7 15 2 4 7 11 10 15 7 3 -4 0 -14 -9 -22 -12 -13 -17
-13 -26 -2 -6 7 -9 21 -5 30 7 18 24 22 24 6z m-147 -15 c-3 -9 -8 -14 -10
-11 -3 3 -2 9 2 15 9 16 15 13 8 -4z m-178 -34 c3 -5 1 -12 -5 -16 -5 -3 -10
1 -10 9 0 18 6 21 15 7z m120 -2 c4 -6 13 -8 21 -5 7 3 16 1 19 -4 3 -5 -13
-7 -35 -5 -23 3 -50 -1 -60 -8 -15 -9 -22 -9 -32 2 -11 11 -9 12 8 7 15 -4 24
-2 28 9 6 17 42 20 51 4z m81 -5 c-3 -9 -6 -20 -6 -25 0 -6 -4 -8 -9 -5 -7 5
-8 23 -2 44 1 1 6 2 12 2 6 0 8 -7 5 -16z m154 1 c-7 -8 -17 -15 -23 -15 -6 0
-2 7 9 15 25 19 30 19 14 0z m-102 -17 c-2 -6 -10 -14 -16 -16 -7 -2 -10 2 -6
12 7 18 28 22 22 4z m62 -9 c0 -6 -4 -7 -10 -4 -5 3 -10 11 -10 16 0 6 5 7 10
4 6 -3 10 -11 10 -16z m-155 -9 c13 -6 15 -9 5 -9 -8 0 -22 4 -30 9 -18 12 -2
12 25 0z m280 -19 c-3 -6 -11 -11 -17 -11 -6 0 -6 6 2 15 14 17 26 13 15 -4z"/>
<path d="M1803 4471 c-10 -16 -8 -20 14 -30 23 -10 25 -10 15 2 -7 8 -10 22
-6 31 8 22 -9 20 -23 -3z"/>
<path d="M2135 4300 c3 -5 14 -10 23 -10 15 0 15 2 2 10 -20 13 -33 13 -25 0z"/>
<path d="M1084 4186 l-79 -74 80 -7 c44 -3 132 -13 195 -21 63 -8 147 -14 188
-14 l73 0 25 56 c14 31 26 61 27 66 3 15 -100 35 -238 47 -66 6 -136 13 -156
16 -34 4 -42 0 -115 -69z"/>
<path d="M934 4028 c-22 -24 -47 -52 -54 -63 -15 -20 -14 -20 8 -1 20 17 27
15 23 -7 -1 -5 3 -6 9 -2 8 5 8 11 1 19 -15 18 -1 28 18 13 14 -10 14 -10 3 5
-15 19 -7 42 11 32 7 -4 9 -3 4 1 -4 5 0 17 10 27 33 37 6 16 -33 -24z"/>
<path d="M975 4040 c-3 -6 1 -7 9 -4 18 7 21 14 7 14 -6 0 -13 -4 -16 -10z"/>
<path d="M849 3923 c-12 -16 -12 -17 2 -6 9 7 20 9 24 5 5 -4 5 -1 1 6 -9 16
-11 15 -27 -5z"/>
<path d="M1468 3923 c7 -3 16 -2 19 1 4 3 -2 6 -13 5 -11 0 -14 -3 -6 -6z"/>
<path d="M1471 3894 c0 -11 3 -14 6 -6 3 7 2 16 -1 19 -3 4 -6 -2 -5 -13z"/>
<path d="M788 3844 c-32 -37 -123 -191 -162 -275 -21 -46 -43 -92 -48 -103
-34 -66 -118 -336 -118 -379 0 -8 13 -17 29 -20 40 -8 81 -49 81 -80 0 -23 4
-26 30 -24 19 1 30 8 30 17 0 13 2 13 9 1 7 -11 15 -12 32 -5 21 10 20 12 -24
24 -26 8 -47 17 -47 21 0 18 166 25 173 7 3 -7 6 -3 6 10 1 20 6 22 69 23 146
3 212 -3 327 -27 281 -59 316 -66 320 -63 4 5 -41 178 -49 186 -3 4 -6 2 -6
-3 0 -10 -119 8 -335 51 -16 4 -37 13 -46 21 -18 16 -43 19 -34 4 8 -14 -5
-12 -35 3 -15 8 -44 16 -65 20 -46 7 -365 109 -365 117 0 3 35 6 78 7 42 1
127 5 187 8 107 7 115 7 240 -29 159 -44 280 -71 414 -91 122 -18 122 -18 118
-2 -1 6 4 12 11 11 6 -1 29 -2 49 -2 20 -1 33 -5 30 -9 -4 -3 -21 -6 -39 -5
-30 1 -31 0 -13 -11 21 -12 488 -18 499 -6 10 9 -14 67 -30 73 -8 3 -14 11
-14 18 0 9 3 9 11 -2 9 -12 10 -12 5 3 -3 10 -6 33 -6 50 l0 32 -152 -4 c-158
-3 -359 11 -463 35 -170 38 -287 68 -345 89 -100 36 -180 63 -230 76 -93 24
-124 36 -128 49 -3 9 0 11 14 5 11 -4 39 -13 63 -18 35 -9 46 -8 49 1 3 9 8
10 15 3 7 -5 15 -10 19 -10 5 -1 40 -17 79 -36 97 -47 197 -80 298 -99 116
-22 111 -24 111 32 l0 49 -87 18 c-251 51 -383 96 -437 150 -14 14 -32 25 -41
25 -8 0 -15 5 -15 10 0 6 -9 10 -19 10 -15 0 -21 8 -23 31 -3 30 -4 31 -20 13z
m676 -411 c4 -4 23 -8 42 -9 19 0 39 -5 45 -11 6 -6 -8 -9 -41 -7 l-51 2 4
-34 c3 -19 1 -37 -4 -40 -20 -12 -8 -26 17 -20 16 4 23 3 20 -3 -4 -6 9 -13
29 -17 51 -9 53 -24 3 -21 -30 2 -42 7 -40 16 2 10 -4 12 -23 7 -24 -6 -25 -4
-25 38 0 24 -3 58 -6 75 -5 23 -3 31 8 31 8 0 18 -3 22 -7z m193 -38 c0 -8 -7
-15 -14 -15 -8 0 -12 4 -8 9 3 5 -3 12 -12 14 -12 3 -9 5 8 6 17 1 26 -4 26
-14z m370 -1 c-3 -3 -12 -4 -19 -1 -8 3 -5 6 6 6 11 1 17 -2 13 -5z m43 -8 c0
-3 -4 -8 -10 -11 -5 -3 -10 -1 -10 4 0 6 5 11 10 11 6 0 10 -2 10 -4z m15 -40
c-7 -34 -10 -36 -44 -35 -20 0 -45 4 -55 8 -19 7 -19 8 2 13 12 4 20 2 16 -3
-3 -5 2 -9 10 -9 9 0 16 5 16 12 0 9 3 9 12 0 19 -19 27 -14 34 23 3 20 8 34
11 31 2 -2 1 -20 -2 -40z m-165 24 c0 -5 -9 -10 -21 -10 -11 0 -17 5 -14 10 3
6 13 10 21 10 8 0 14 -4 14 -10z m90 0 c11 -7 7 -10 -18 -10 -20 0 -31 4 -27
10 8 13 26 13 45 0z m-395 -18 c-3 -3 -11 0 -18 7 -9 10 -8 11 6 5 10 -3 15
-9 12 -12z m198 11 c-7 -2 -19 -2 -25 0 -7 3 -2 5 12 5 14 0 19 -2 13 -5z
m-263 -19 c0 -2 -7 -4 -15 -4 -8 0 -15 4 -15 10 0 5 7 7 15 4 8 -4 15 -8 15
-10z m50 -24 c0 -5 8 -10 18 -10 15 -1 15 -2 -2 -15 -11 -8 -25 -15 -30 -15
-6 0 -5 4 3 9 12 8 12 12 2 25 -9 11 -10 16 -2 16 6 0 11 -4 11 -10z m53 3
c-7 -2 -19 -2 -25 0 -7 3 -2 5 12 5 14 0 19 -2 13 -5z m-88 -13 c19 -8 19 -9
-2 -9 -12 -1 -25 4 -28 9 -7 12 2 12 30 0z m547 -34 c3 -16 0 -23 -8 -22 -18
3 -31 16 -16 16 7 0 12 7 12 15 0 23 7 18 12 -9z m-85 8 c-3 -3 -12 -4 -19 -1
-8 3 -5 6 6 6 11 1 17 -2 13 -5z m-234 -11 c-7 -2 -19 -2 -25 0 -7 3 -2 5 12
5 14 0 19 -2 13 -5z"/>
<path d="M1498 3413 c7 -3 16 -2 19 1 4 3 -2 6 -13 5 -11 0 -14 -3 -6 -6z"/>
<path d="M1498 3283 c7 -3 16 -2 19 1 4 3 -2 6 -13 5 -11 0 -14 -3 -6 -6z"/>
<path d="M1190 3841 c0 -6 4 -13 10 -16 6 -3 7 1 4 9 -7 18 -14 21 -14 7z"/>
<path d="M1353 3803 c9 -2 25 -2 35 0 9 3 1 5 -18 5 -19 0 -27 -2 -17 -5z"/>
<path d="M1088 3223 c7 -3 16 -2 19 1 4 3 -2 6 -13 5 -11 0 -14 -3 -6 -6z"/>
<path d="M1238 3203 c7 -3 16 -2 19 1 4 3 -2 6 -13 5 -11 0 -14 -3 -6 -6z"/>
<path d="M4595 2952 c-6 -4 -12 -18 -14 -32 -1 -14 -7 -33 -12 -42 -8 -15 -6
-16 21 -7 27 10 29 14 24 47 -7 43 -7 43 -19 34z"/>
<path d="M605 2911 c-34 -3 -73 -14 -88 -23 -14 -10 -42 -18 -60 -18 l-34 0
-6 -67 c-12 -119 -11 -126 18 -121 37 8 40 -8 5 -24 -26 -11 -30 -18 -30 -54
0 -45 7 -59 24 -45 20 16 96 39 101 30 3 -4 16 -4 28 1 35 14 155 38 230 46
75 8 72 4 51 75 -13 46 343 36 576 -16 170 -39 176 -67 44 -205 -42 -44 -74
-80 -70 -80 3 0 28 16 55 35 54 39 158 89 209 100 42 9 51 31 25 57 -18 17
-19 25 -10 54 6 19 14 34 18 34 5 0 7 -6 5 -12 -22 -69 -8 -95 18 -35 l14 32
1 -32 c1 -17 -3 -35 -9 -38 -14 -8 -13 -35 1 -35 6 0 8 7 5 16 -5 13 -3 14 6
7 18 -15 284 -23 334 -11 25 6 41 15 41 24 0 9 -6 13 -15 9 -12 -4 -13 -3 -2
10 15 18 35 20 24 3 -5 -8 -2 -9 11 -4 15 5 16 4 5 -9 -11 -13 -8 -14 20 -8
24 4 31 3 26 -6 -4 -6 -12 -9 -17 -6 -5 4 -9 -1 -9 -10 0 -9 -5 -13 -11 -10
-15 10 -99 -4 -99 -16 0 -5 6 -9 13 -8 13 2 42 -9 108 -40 23 -11 45 -18 49
-16 4 3 10 -1 13 -9 3 -7 29 -27 59 -44 91 -54 113 -67 118 -73 21 -25 136
-99 147 -95 8 3 12 2 9 -2 -4 -8 22 -20 80 -36 17 -5 22 -3 20 11 0 10 -5 22
-11 26 -5 4 4 5 20 1 38 -9 44 -14 16 -14 -31 0 -16 -20 17 -21 l27 -1 -30 -8
c-26 -7 -27 -8 -7 -10 32 -4 36 -5 49 -13 7 -4 28 -8 47 -9 19 -1 33 -5 30
-10 -7 -10 25 -9 51 2 13 6 15 9 5 9 -13 1 -13 3 0 10 22 15 33 1 15 -19 -19
-20 -24 -17 65 -39 76 -18 84 -18 95 4 6 11 21 21 33 23 31 5 28 20 -5 25 -27
4 -27 4 -3 5 14 1 32 -2 40 -8 12 -7 12 -12 -4 -29 -11 -12 -25 -21 -33 -21
-23 0 -14 -30 10 -31 12 0 31 -3 42 -5 161 -37 525 -50 550 -20 17 21 46 27
66 13 16 -12 31 -12 92 0 89 17 137 32 137 44 0 8 52 39 66 39 3 0 1 -7 -6
-15 -7 -8 -22 -15 -33 -15 -16 0 -18 -3 -10 -11 8 -8 31 -6 85 10 95 28 129
42 124 50 -10 15 25 71 53 85 40 21 79 20 118 -3 31 -19 31 -19 110 5 128 40
153 83 153 261 l0 101 -82 -49 c-45 -27 -99 -55 -120 -61 -26 -8 -48 -25 -69
-52 -37 -51 -139 -156 -151 -156 -5 0 -6 5 -2 12 5 8 2 9 -12 4 -10 -4 -39
-10 -63 -12 -24 -2 -48 -7 -53 -10 -5 -3 -33 -9 -61 -14 -29 -4 -107 -19 -174
-34 -354 -74 -683 -49 -1063 81 -41 14 -83 30 -92 34 -20 10 -50 1 -42 -12 3
-6 15 -7 27 -3 17 5 19 4 10 -6 -6 -7 -26 -14 -45 -16 -26 -3 -30 -1 -15 7 17
10 15 29 -4 29 -6 0 -8 -4 -4 -9 8 -14 -35 -25 -48 -12 -15 15 9 32 31 23 10
-3 13 -1 8 6 -4 7 -3 12 3 12 5 0 13 -5 16 -10 4 -6 11 -8 16 -4 10 6 -174 90
-251 115 -19 7 -37 15 -40 18 -3 4 -30 17 -60 30 -30 13 -87 38 -126 56 -39
19 -113 50 -165 71 -52 20 -108 42 -124 50 -39 16 -202 70 -245 79 -23 5 -35
3 -43 -9 -7 -9 -26 -18 -42 -22 -38 -7 -85 26 -85 61 0 21 -6 24 -82 34 -46 6
-126 16 -178 21 -101 10 -495 11 -595 1z m1019 -106 c3 -8 10 -15 16 -15 6 0
8 5 4 12 -5 7 -2 9 7 6 8 -3 37 -13 66 -22 37 -12 50 -21 46 -32 -3 -8 -10
-14 -15 -14 -6 0 -7 7 -4 16 5 13 1 15 -21 10 -22 -5 -25 -4 -13 5 12 8 10 9
-11 5 -14 -3 -29 -3 -32 1 -4 3 -21 8 -39 10 -37 4 -42 8 -33 22 9 15 22 14
29 -4z m-15 -32 c-3 -19 2 -33 11 -33 5 0 7 7 4 15 -4 8 -1 15 5 15 6 0 11 -5
11 -11 0 -7 10 -20 22 -30 11 -11 18 -22 14 -26 -3 -4 -14 4 -23 16 -12 18
-17 20 -24 10 -10 -16 -24 -5 -34 29 -4 13 -2 22 4 22 6 0 10 -3 10 -7z m190
-57 c23 -13 22 -14 -27 -14 -29 0 -52 5 -52 10 0 5 9 6 20 3 11 -4 20 -2 20 4
0 14 9 13 39 -3z m123 -4 c4 -4 -4 -7 -17 -7 -12 0 -21 4 -18 9 3 5 -6 7 -20
4 -15 -3 -24 -1 -20 4 6 10 62 3 75 -10z m-272 -33 c0 -6 -4 -7 -10 -4 -5 3
-10 11 -10 16 0 6 5 7 10 4 6 -3 10 -11 10 -16z m345 0 c17 -12 22 -18 12 -15
-11 3 -16 2 -12 -4 3 -6 13 -10 21 -10 8 0 14 -5 14 -10 0 -6 12 -8 28 -5 23
5 25 5 9 -5 -11 -7 -33 -9 -50 -6 -43 8 -48 9 -74 1 -36 -11 -28 19 8 32 34
13 31 38 -3 27 -14 -4 -18 -2 -14 5 10 16 27 13 61 -10z m-118 5 c-3 -3 -12
-4 -19 -1 -8 3 -5 6 6 6 11 1 17 -2 13 -5z m-1380 -26 c-3 -8 -6 -5 -6 6 -1
11 2 17 5 13 3 -3 4 -12 1 -19z m1570 -4 c-3 -3 -12 -4 -19 -1 -8 3 -5 6 6 6
11 1 17 -2 13 -5z m-303 -29 c3 -8 1 -15 -4 -15 -6 0 -10 7 -10 15 0 8 2 15 4
15 2 0 6 -7 10 -15z m96 -10 c0 -8 -4 -15 -10 -15 -5 0 -7 7 -4 15 4 8 8 15
10 15 2 0 4 -7 4 -15z m185 -15 c3 -6 -1 -7 -9 -4 -18 7 -21 14 -7 14 6 0 13
-4 16 -10z m-268 -6 c-3 -3 -12 -4 -19 -1 -8 3 -5 6 6 6 11 1 17 -2 13 -5z
m238 -12 c-3 -3 -11 0 -18 7 -9 10 -8 11 6 5 10 -3 15 -9 12 -12z m190 -2 c3
-5 -3 -10 -15 -10 -12 0 -18 5 -15 10 3 6 10 10 15 10 5 0 12 -4 15 -10z m42
-16 c-3 -3 -12 -4 -19 -1 -8 3 -5 6 6 6 11 1 17 -2 13 -5z m8 -30 c19 -16 19
-16 -5 -9 -23 7 -24 7 -10 -11 13 -17 13 -18 -1 -7 -8 7 -26 9 -39 6 -16 -4
-21 -3 -16 5 4 7 17 13 29 14 12 0 0 4 -28 8 l-50 7 50 1 c32 1 57 -4 70 -14z
m94 -21 c2 -2 -5 -3 -16 -3 -11 0 -20 7 -20 15 0 12 3 12 16 3 9 -7 18 -14 20
-15z m-59 -17 c0 -8 -4 -17 -8 -20 -4 -2 -8 4 -8 15 0 10 4 19 8 19 4 0 8 -6
8 -14z m115 4 c-3 -5 1 -10 9 -10 9 0 16 -5 16 -11 0 -6 7 -9 15 -5 18 6 67
-13 60 -24 -3 -4 4 -19 15 -33 11 -14 20 -28 20 -32 0 -13 -32 13 -44 36 -8
18 -20 24 -44 24 -17 1 -37 6 -44 13 -11 11 -9 12 7 7 20 -7 20 -6 1 9 -11 9
-25 16 -30 16 -6 0 -4 5 4 10 19 12 23 12 15 0z m-145 -14 c0 -3 -4 -8 -10
-11 -5 -3 -10 -1 -10 4 0 6 5 11 10 11 6 0 10 -2 10 -4z m82 -14 c-7 -2 -10
-8 -7 -13 4 -5 -1 -6 -9 -3 -25 10 -19 33 6 26 12 -3 17 -7 10 -10z m38 -36
c0 -3 -4 -8 -10 -11 -5 -3 -10 -1 -10 4 0 6 5 11 10 11 6 0 10 -2 10 -4z m190
-17 c0 -6 -4 -7 -10 -4 -5 3 -10 11 -10 16 0 6 5 7 10 4 6 -3 10 -11 10 -16z
m-150 -10 c0 -14 -17 -10 -23 5 -4 10 -1 13 9 9 7 -3 14 -9 14 -14z m50 -45
c0 -8 -7 -14 -15 -14 -15 0 -21 21 -9 33 10 9 24 -2 24 -19z m37 -20 c-9 -9
-27 6 -27 22 0 13 2 13 16 -1 9 -9 14 -18 11 -21z m46 9 c-25 -10 -12 -22 17
-16 19 3 30 1 30 -6 0 -11 -19 -16 -52 -13 -10 1 -18 -3 -18 -8 0 -5 -7 -7
-15 -4 -12 5 -11 10 7 30 13 13 28 23 33 23 6 0 4 -3 -2 -6z m214 1 c-3 -3
-12 -4 -19 -1 -8 3 -5 6 6 6 11 1 17 -2 13 -5z m73 -20 c0 -2 -11 -4 -25 -4
-14 0 -25 4 -25 9 0 4 11 6 25 3 14 -2 25 -6 25 -8z m1360 -2 c0 -18 -67 -70
-80 -62 -8 5 -2 10 16 14 23 6 25 9 13 18 -11 8 -10 9 5 4 14 -5 17 -2 12 9
-3 9 -2 13 4 10 6 -3 10 -1 10 4 0 6 5 11 10 11 6 0 10 -4 10 -8z m-1392 -22
c23 -10 42 -24 42 -31 0 -8 -7 -6 -18 4 -10 10 -27 17 -38 17 -11 0 -29 7 -40
15 -28 21 1 19 54 -5z m122 -7 c16 -8 20 -13 10 -15 -50 -5 -69 -4 -64 3 3 5
-2 9 -10 9 -8 0 -18 5 -22 11 -4 8 1 9 16 4 15 -5 20 -4 16 4 -8 12 11 6 54
-16z m1180 12 c-32 -12 -33 -14 -10 -16 24 -2 25 -2 2 -6 -17 -3 -21 -8 -13
-17 8 -9 7 -13 -4 -13 -8 0 -15 4 -15 9 0 4 -4 8 -10 8 -5 0 -10 -6 -10 -14 0
-16 -18 -31 -26 -23 -10 10 21 47 41 48 20 1 20 1 0 7 -17 4 -14 7 15 18 19 7
42 12 50 12 8 0 -1 -6 -20 -13z m-113 -11 c-3 -3 -12 -4 -19 -1 -8 3 -5 6 6 6
11 1 17 -2 13 -5z m-1236 -14 c4 0 6 -7 3 -15 -5 -12 1 -14 27 -10 31 5 27 1
-10 -11 -11 -3 -11 -7 -1 -19 24 -29 -6 -15 -32 15 -14 17 -21 30 -15 30 7 0
6 5 -3 11 -12 9 -12 10 3 5 10 -3 23 -6 28 -6z m232 2 c15 -6 13 -9 -13 -19
-17 -6 -32 -7 -36 -2 -3 5 5 9 18 9 18 0 20 2 8 10 -17 11 -4 12 23 2z m1011
-11 c4 -5 -3 -7 -14 -4 -23 6 -26 13 -6 13 8 0 17 -4 20 -9z m-949 -11 c-3 -5
-12 -7 -20 -3 -21 7 -19 13 6 13 11 0 18 -4 14 -10z m781 -5 c-23 -17 -36 -19
-36 -6 0 5 10 12 23 14 12 2 24 5 27 5 3 1 -4 -5 -14 -13z m64 5 c0 -5 -2 -10
-4 -10 -3 0 -8 5 -11 10 -3 6 -1 10 4 10 6 0 11 -4 11 -10z m-735 -20 c3 -4
-7 -11 -22 -15 -21 -5 -24 -8 -12 -16 9 -5 9 -9 2 -9 -19 0 -26 20 -9 26 9 3
13 10 10 15 -3 5 -10 6 -16 3 -6 -4 -8 -2 -5 4 7 11 44 5 52 -8z m46 -7 c-10
-4 -10 -7 -1 -13 8 -5 7 -9 -5 -13 -10 -4 -14 -3 -9 4 4 8 -1 9 -17 5 -24 -7
-24 -7 1 8 14 9 30 15 35 15 6 0 4 -3 -4 -6z m-185 -33 c6 0 11 -6 11 -13 0
-14 -73 -21 -81 -8 -3 5 6 6 19 3 31 -5 32 4 3 29 l-23 19 30 -15 c17 -8 35
-15 41 -15z m64 26 c0 -2 -11 -6 -25 -8 -14 -3 -25 -1 -25 3 0 5 11 9 25 9 14
0 25 -2 25 -4z m200 -11 c7 -8 27 -15 44 -14 29 1 30 1 6 8 -15 5 8 8 62 8 59
0 85 -4 82 -11 -2 -6 -18 -12 -35 -12 -22 -1 -27 1 -18 7 19 12 2 11 -45 -2
-43 -12 -156 -2 -121 11 19 7 18 8 -5 12 -21 5 -22 5 -4 7 12 0 27 -6 34 -14z
m353 8 c-7 -2 -19 -2 -25 0 -7 3 -2 5 12 5 14 0 19 -2 13 -5z m45 -7 c-7 -8
-17 -12 -22 -9 -4 3 -2 9 5 14 22 13 31 11 17 -5z m142 10 c0 -2 -9 -6 -20 -9
-11 -3 -18 -1 -14 4 5 9 34 13 34 5z m270 -2 c0 -8 -52 -33 -80 -38 l-35 -6
32 15 c17 8 34 19 37 24 5 8 46 12 46 5z m-332 -21 c-7 -9 -21 -12 -34 -9 -13
4 -24 1 -27 -7 -2 -6 -8 -9 -12 -5 -15 14 8 30 37 24 16 -3 27 -2 24 2 -3 5 1
9 9 9 11 0 12 -3 3 -14z m-155 0 c-13 -2 -33 -2 -45 0 -13 2 -3 4 22 4 25 0
35 -2 23 -4z m-683 -23 c0 -5 -4 -10 -10 -10 -5 0 -10 5 -10 10 0 6 5 10 10
10 6 0 10 -4 10 -10z m944 -5 c5 -13 10 -14 38 -2 20 8 41 11 53 6 16 -6 14
-8 -12 -8 -17 -1 -35 -5 -38 -11 -3 -5 -21 -10 -40 -10 -28 0 -32 3 -28 20 6
24 19 26 27 5z m-487 -11 c-3 -3 -12 -4 -19 -1 -8 3 -5 6 6 6 11 1 17 -2 13
-5z m130 0 c-3 -3 -12 -4 -19 -1 -8 3 -5 6 6 6 11 1 17 -2 13 -5z m-497 -14
c11 -7 6 -10 -20 -10 -26 0 -31 3 -20 10 8 5 17 10 20 10 3 0 12 -5 20 -10z
m929 -6 c-18 -17 -67 -26 -75 -13 -3 5 9 9 25 9 17 0 31 5 31 10 0 6 8 10 17
10 16 0 16 -1 2 -16z m-311 -1 c-10 -2 -28 -2 -40 0 -13 2 -5 4 17 4 22 1 32
-1 23 -4z m189 1 c-3 -3 -12 -4 -19 -1 -8 3 -5 6 6 6 11 1 17 -2 13 -5z m-127
-25 c0 -5 -4 -9 -10 -9 -5 0 -10 7 -10 16 0 8 5 12 10 9 6 -3 10 -10 10 -16z
m56 -6 c-10 -10 -19 5 -10 18 6 11 8 11 12 0 2 -7 1 -15 -2 -18z m-247 3 c11
-7 11 -10 0 -17 -8 -5 -21 -9 -29 -9 -13 0 -13 1 0 10 11 7 0 10 -37 10 -58 0
-65 -5 -30 -21 21 -9 21 -9 -3 -3 -14 3 -33 6 -42 7 -9 1 -14 5 -12 9 3 4 -4
8 -15 8 -11 0 -22 3 -24 8 -7 10 175 9 192 -2z m-229 -6 c0 -5 -9 -10 -21 -10
-11 0 -17 5 -14 10 3 6 13 10 21 10 8 0 14 -4 14 -10z m305 -10 c3 -5 -1 -10
-9 -10 -9 0 -16 5 -16 10 0 6 4 10 9 10 6 0 13 -4 16 -10z m60 -9 c-3 -6 -16
-11 -28 -11 -21 0 -21 1 3 13 27 15 36 14 25 -2z"/>
<path d="M2885 2300 c3 -5 10 -10 16 -10 5 0 9 5 9 10 0 6 -7 10 -16 10 -8 0
-12 -4 -9 -10z"/>
<path d="M662 2565 c-34 -8 -97 -31 -140 -51 -42 -21 -83 -37 -89 -37 -13 0
-18 -48 -7 -60 4 -3 16 0 28 8 27 18 132 45 166 44 23 -2 24 -2 2 -6 -12 -2
-20 -8 -17 -13 3 -5 -11 -17 -31 -26 -20 -10 -59 -38 -86 -63 l-51 -47 12 -49
c7 -28 12 -57 13 -65 0 -8 4 -31 9 -51 l9 -36 56 19 c73 25 79 18 9 -11 -39
-16 -55 -28 -55 -41 0 -27 16 -33 42 -16 13 8 59 27 102 42 77 26 79 26 98 7
10 -11 29 -45 42 -76 l23 -58 32 30 c17 16 31 36 31 44 0 25 50 106 78 126 15
10 38 21 52 25 14 4 35 12 48 18 14 7 26 8 31 2 16 -15 50 -114 40 -114 -10 0
-7 -58 3 -75 3 -6 8 -28 12 -50 4 -22 10 -49 13 -60 5 -17 4 -18 -11 -6 -9 7
-16 20 -16 28 0 7 -9 32 -20 53 -11 22 -18 40 -14 40 3 0 -2 8 -12 18 -24 23
-112 22 -148 -1 -32 -22 -33 -37 -2 -37 31 0 108 -34 128 -57 9 -10 35 -54 58
-98 l41 -79 -54 55 -55 56 -7 -33 c-6 -36 -55 -84 -85 -84 -22 0 -32 -23 -24
-57 5 -19 4 -24 -6 -18 -7 4 -10 20 -8 36 4 27 1 30 -34 40 -22 5 -48 19 -58
29 -17 17 -40 78 -40 108 0 6 -3 12 -8 12 -4 0 -12 10 -17 22 -18 40 -53 44
-133 12 -96 -37 -95 -58 1 -84 27 -7 61 -25 75 -40 25 -24 142 -228 142 -246
0 -4 -23 23 -50 59 -64 84 -92 104 -125 89 -14 -7 -25 -20 -25 -29 1 -31 94
-177 122 -190 14 -7 42 -31 62 -53 20 -22 36 -38 36 -36 0 3 12 -7 28 -21 38
-35 132 -107 160 -122 13 -7 21 -15 18 -18 -2 -3 -32 12 -66 33 -34 22 -69 44
-78 49 -53 32 -78 50 -89 64 -7 8 -15 12 -18 9 -13 -13 202 -264 227 -265 7 0
38 -7 68 -16 30 -9 71 -18 91 -21 20 -3 48 -10 63 -16 15 -5 87 -10 159 -11
149 -1 115 -20 -60 -34 -12 -1 -28 -6 -35 -12 -7 -6 -28 -14 -46 -18 -18 -4
-36 -13 -39 -22 -3 -8 -12 -12 -22 -8 -24 9 30 -45 61 -61 25 -13 32 -12 80
11 57 28 84 31 90 13 4 -12 -48 -54 -85 -67 -15 -6 -3 -17 65 -58 299 -183
690 -301 1015 -306 95 -2 114 3 94 26 -10 13 -116 69 -154 81 -10 3 -16 9 -13
14 2 4 -26 16 -62 26 -37 10 -87 24 -111 32 -24 7 -48 11 -53 8 -6 -4 -13 -2
-17 3 -3 5 -45 20 -92 32 -93 25 -129 25 -259 -3 -95 -21 -132 -24 -137 -11
-7 21 204 58 342 59 69 1 183 -18 217 -35 23 -12 31 -11 23 2 -4 6 11 1 34
-10 22 -12 45 -21 51 -21 6 0 54 -20 106 -45 51 -25 105 -45 118 -45 14 0 27
-4 30 -9 9 -15 187 -68 246 -74 30 -3 47 -4 38 -1 -10 3 -18 10 -18 15 0 5
-26 26 -57 46 l-57 38 51 3 c41 2 62 -3 119 -33 37 -20 71 -41 75 -47 10 -15
157 20 285 68 146 54 445 206 432 219 -2 2 -28 -3 -58 -11 -92 -23 -228 -31
-367 -23 -172 10 -196 22 -153 77 20 25 20 26 3 42 -10 10 -47 28 -83 41 -36
12 -139 54 -230 91 -135 56 -193 74 -315 98 -82 17 -160 35 -172 41 l-21 12
19 41 c11 22 31 61 45 86 51 94 95 191 109 247 24 91 17 233 -11 233 -11 0
-14 -17 -14 -69 0 -39 -5 -73 -10 -76 -6 -3 -10 -26 -10 -51 0 -31 -4 -43 -11
-38 -8 5 -10 -3 -7 -24 2 -17 1 -29 -3 -27 -3 3 -16 -17 -27 -44 -12 -26 -28
-54 -37 -61 -8 -7 -15 -17 -15 -22 0 -5 -12 -25 -26 -44 -23 -29 -32 -34 -69
-34 -25 0 -50 6 -59 15 -8 8 -21 15 -30 15 -15 0 -67 -20 -76 -30 -13 -13 -55
-8 -96 11 l-46 20 -109 -26 c-60 -14 -148 -28 -196 -31 -49 -4 -103 -13 -122
-22 -32 -15 -36 -15 -79 9 -25 13 -47 29 -49 34 -2 7 54 10 164 8 194 -2 266
11 374 71 71 40 74 46 8 16 -54 -24 -64 -25 -87 -2 -10 9 -35 25 -55 36 -20
10 -45 27 -55 36 -10 10 -34 26 -53 35 -52 27 -137 93 -149 115 -12 22 -3 24
125 35 97 9 139 23 185 62 29 25 40 42 40 63 0 16 -4 32 -10 35 -6 3 -10 -5
-10 -19 0 -31 -41 -71 -96 -92 -54 -20 -158 -15 -242 13 -52 18 -65 19 -76 8
-24 -24 -190 156 -258 279 -12 22 -17 55 -18 109 0 45 -6 93 -15 114 l-15 36
-60 -6 c-39 -5 -60 -3 -60 4 0 6 -14 44 -31 85 -20 47 -35 72 -42 68 -7 -4 -4
1 5 11 18 20 14 21 83 -30 18 -12 24 -13 47 0 34 17 129 29 163 21 20 -5 26
-15 31 -46 4 -22 9 -40 13 -40 10 0 31 77 31 115 l0 36 -47 -7 c-27 -4 -58
-11 -71 -15 -38 -14 -92 -11 -99 6 -9 26 -59 45 -117 45 -30 0 -58 5 -61 10
-9 14 -148 11 -223 -5z m51 -92 c-7 -2 -19 -2 -25 0 -7 3 -2 5 12 5 14 0 19
-2 13 -5z m171 -2 c4 -5 -3 -7 -14 -4 -23 6 -26 13 -6 13 8 0 17 -4 20 -9z
m-137 -127 c-3 -3 -12 -4 -19 -1 -8 3 -5 6 6 6 11 1 17 -2 13 -5z m339 -647
c12 -7 48 -35 80 -64 32 -28 70 -61 84 -72 14 -11 19 -20 12 -21 -7 0 -24 11
-37 25 -14 13 -25 21 -25 18 0 -3 -7 0 -16 7 -8 8 -36 13 -62 14 -26 0 -39 2
-29 4 9 2 15 8 12 13 -8 12 -55 12 -55 0 0 -5 -3 -17 -7 -27 -5 -13 -3 -15 7
-9 10 6 11 4 4 -6 -5 -8 -7 -23 -5 -34 2 -16 0 -18 -10 -7 -14 13 -25 131 -15
157 6 18 33 19 62 2z m110 -188 c5 -9 -1 -10 -20 -5 -15 4 -26 2 -26 -4 0 -5
-4 -10 -10 -10 -5 0 -10 7 -10 15 0 18 55 21 66 4z m955 -149 c10 -6 19 -16
19 -22 0 -6 -3 -8 -7 -5 -3 4 -12 -1 -19 -11 -9 -13 -9 -19 -1 -25 15 -11 -36
0 -76 16 l-29 12 28 14 c16 7 36 17 44 22 20 10 18 11 41 -1z m245 -171 c98
-27 190 -61 240 -90 22 -12 59 -33 82 -47 24 -14 74 -34 111 -46 80 -26 117
-48 107 -64 -10 -16 -43 -15 -53 2 -12 20 -44 34 -162 70 -87 26 -115 40 -144
68 -19 19 -46 38 -58 41 -94 21 -196 51 -204 60 -7 7 -5 8 5 3 8 -4 6 0 -4 8
-26 21 -11 20 80 -5z m-799 -85 c-3 -3 -12 -4 -19 -1 -8 3 -5 6 6 6 11 1 17
-2 13 -5z m712 -223 c9 -6 10 -11 2 -15 -6 -4 -11 -3 -11 3 0 5 -10 12 -22 14
-20 4 -20 4 -3 5 11 1 26 -2 34 -7z m81 -31 c12 -8 10 -9 -7 -7 -12 2 -26 6
-29 10 -11 11 19 8 36 -3z m70 -24 c0 -2 -7 -7 -16 -10 -8 -3 -12 -2 -9 4 6
10 25 14 25 6z m251 -123 c13 -16 12 -17 -3 -4 -17 13 -22 21 -14 21 2 0 10
-8 17 -17z m-739 -14 c51 -11 102 -24 113 -28 11 -5 47 -17 80 -27 62 -19 149
-63 142 -71 -3 -2 -45 11 -93 30 -103 40 -233 81 -319 101 -33 8 -50 15 -38
15 12 1 63 -8 115 -20z"/>
<path d="M1116 1631 c-3 -5 4 -11 16 -14 29 -8 32 -4 8 11 -10 6 -21 8 -24 3z"/>
<path d="M2578 2383 c7 -3 16 -2 19 1 4 3 -2 6 -13 5 -11 0 -14 -3 -6 -6z"/>
<path d="M1585 2360 c-33 -12 -64 -26 -70 -31 -5 -5 12 -2 38 7 60 20 111 12
133 -22 16 -23 21 -24 98 -22 45 1 86 -1 92 -4 5 -4 16 -3 24 2 12 8 8 16 -22
46 -36 37 -37 37 -135 41 -81 3 -108 0 -158 -17z"/>
<path d="M1920 2280 c0 -5 5 -10 11 -10 5 0 7 5 4 10 -3 6 -8 10 -11 10 -2 0
-4 -4 -4 -10z"/>
<path d="M1433 2198 c-40 -29 -59 -58 -38 -58 8 0 19 -17 26 -42 30 -114 43
-150 60 -170 11 -11 19 -24 19 -27 0 -10 60 -41 78 -40 12 0 11 3 -6 12 -35
16 -72 97 -73 159 0 29 -8 83 -17 121 l-17 67 -32 -22z"/>
<path d="M1996 2188 c3 -5 10 -6 15 -3 13 9 11 12 -6 12 -8 0 -12 -4 -9 -9z"/>
<path d="M2030 2180 c0 -5 5 -10 11 -10 5 0 7 5 4 10 -3 6 -8 10 -11 10 -2 0
-4 -4 -4 -10z"/>
<path d="M1705 2101 c-73 -34 -91 -54 -100 -106 l-6 -40 15 33 c10 21 22 32
35 32 12 0 38 16 58 35 43 40 119 67 145 51 9 -6 20 -7 24 -3 13 12 -2 18 -57
22 -44 4 -65 0 -114 -24z"/>
<path d="M1758 2056 c-25 -18 -23 -21 15 -21 l32 0 5 -70 c6 -70 6 -70 10 -20
5 46 7 50 32 53 22 3 37 -7 74 -45 43 -44 84 -116 84 -148 0 -38 42 -26 71 21
27 44 32 92 15 140 l-15 39 0 -42 c-1 -23 -5 -45 -11 -48 -5 -3 -27 11 -47 31
-69 67 -174 124 -227 124 -12 0 -29 -7 -38 -14z"/>
<path d="M2231 2044 c18 -21 32 -47 67 -119 l29 -60 12 28 c26 65 8 108 -59
141 -60 30 -67 32 -49 10z"/>
<path d="M2168 1993 c6 -2 12 -13 12 -23 0 -10 -6 -21 -12 -23 -8 -3 -6 -6 4
-6 11 -1 19 -13 24 -36 4 -22 10 -32 18 -28 6 3 3 -3 -7 -14 -18 -21 -17 -25
14 -36 14 -5 17 1 15 33 -1 21 -8 45 -15 54 -7 8 -10 20 -6 26 10 16 -22 60
-43 59 -10 0 -12 -3 -4 -6z m37 -43 c3 -5 1 -10 -4 -10 -6 0 -11 5 -11 10 0 6
2 10 4 10 3 0 8 -4 11 -10z"/>
<path d="M2400 1960 c0 -5 5 -10 11 -10 5 0 7 5 4 10 -3 6 -8 10 -11 10 -2 0
-4 -4 -4 -10z"/>
<path d="M1682 1943 c-6 -2 -10 -9 -6 -14 8 -14 21 -11 28 6 6 15 1 17 -22 8z"/>
<path d="M1360 1906 c0 -22 11 -46 21 -46 5 0 28 -13 51 -30 66 -48 67 -35 3
30 -61 62 -75 70 -75 46z"/>
<path d="M4454 1877 c-26 -14 -40 -27 -37 -37 4 -12 3 -12 -5 -1 -8 11 -17 11
-58 -2 -132 -43 -387 -47 -681 -11 -51 6 -53 5 -53 -17 0 -45 13 -51 121 -60
57 -5 129 -10 159 -13 30 -3 62 -6 70 -6 10 -1 8 -4 -5 -9 -20 -8 -209 1 -284
14 -44 7 -51 7 -52 0 0 -2 -7 -26 -15 -52 -10 -33 -11 -50 -4 -57 17 -17 263
-19 365 -3 l90 15 -89 1 c-49 0 -87 3 -84 6 2 3 74 14 158 25 84 12 157 23
162 26 5 3 20 7 33 8 19 3 71 14 180 41 6 1 24 37 42 79 17 42 31 76 30 76 -1
-1 -20 -11 -43 -23z"/>
<path d="M2680 1865 c-8 -9 12 -18 82 -38 95 -27 253 -67 261 -67 3 0 7 16 9
35 5 40 5 40 -137 50 -44 4 -108 12 -142 19 -50 11 -65 11 -73 1z"/>
<path d="M2583 1723 c16 -65 33 -123 38 -129 5 -6 52 -23 104 -39 94 -27 96
-29 90 -54 -3 -15 -2 -21 3 -14 5 9 14 2 26 -22 11 -19 23 -35 28 -35 4 0 8
-4 8 -10 0 -19 -29 2 -40 31 -7 16 -15 27 -18 24 -3 -3 -16 2 -29 10 -17 12
-23 12 -23 3 0 -8 -4 -6 -10 4 -9 14 -110 45 -132 40 -4 -1 -16 10 -26 23
l-20 25 0 -36 c0 -41 2 -42 131 -69 60 -12 85 -21 78 -28 -7 -7 -22 -7 -48 1
-21 6 -63 14 -93 18 -30 4 -63 11 -72 15 -29 15 -48 69 -48 137 0 36 -3 63 -6
59 -3 -3 -6 -60 -7 -127 -1 -93 3 -124 14 -135 8 -8 50 -19 94 -25 103 -13
243 -40 275 -52 14 -5 36 -11 50 -13 43 -7 173 -47 216 -66 22 -11 46 -19 53
-19 18 0 111 -44 111 -52 0 -5 -23 -8 -52 -8 -45 0 -106 12 -253 52 -58 15
-145 26 -145 17 0 -4 17 -10 38 -14 177 -32 338 -75 278 -75 -9 0 -14 -5 -11
-10 4 -6 10 -8 15 -5 5 3 51 -2 102 -10 51 -9 159 -19 240 -22 141 -6 236 3
415 36 30 6 41 5 36 -2 -8 -13 50 27 65 45 8 11 -18 12 -142 10 -205 -5 -288
17 -201 54 46 19 44 26 -5 21 -22 -2 -38 -1 -34 2 6 7 -143 30 -231 35 -33 3
-89 11 -125 20 -68 17 -251 56 -285 61 -38 6 -65 17 -65 27 0 6 -9 8 -21 5
-51 -14 -102 28 -114 95 -6 30 -3 35 20 46 65 30 118 7 131 -55 5 -25 13 -33
44 -42 137 -41 415 -52 665 -26 77 8 177 15 223 15 l83 0 -30 -28 c-17 -15
-54 -36 -81 -46 -28 -10 -50 -21 -50 -25 0 -10 41 -43 47 -37 3 3 15 1 26 -5
14 -8 18 -8 13 0 -9 14 33 15 53 2 9 -6 23 -6 35 1 18 9 18 7 -3 -16 -14 -14
-23 -28 -20 -30 2 -2 32 -7 66 -10 l63 -6 62 78 c74 93 155 215 196 299 l31
61 -31 -15 c-17 -9 -38 -17 -47 -18 -9 -1 -29 -5 -45 -10 -20 -5 -31 -4 -37 6
-5 8 -9 9 -9 3 0 -37 -260 -83 -505 -91 l-180 -6 -45 -30 c-24 -17 -60 -36
-80 -43 -55 -20 -151 -17 -215 7 -60 22 -134 88 -154 137 -13 32 -22 34 -280
83 l-124 24 -26 40 c-29 45 -40 55 -61 55 -13 0 -11 -18 13 -117z m247 -284
c0 -6 -4 -7 -10 -4 -5 3 -10 11 -10 16 0 6 5 7 10 4 6 -3 10 -11 10 -16z m94
-28 c4 -5 -3 -7 -14 -4 -23 6 -26 13 -6 13 8 0 17 -4 20 -9z"/>
<path d="M2035 1720 c-3 -5 -1 -10 4 -10 6 0 11 5 11 10 0 6 -2 10 -4 10 -3 0
-8 -4 -11 -10z"/>
<path d="M1963 1685 c-24 -10 -41 -11 -68 -4 -29 8 -48 6 -109 -15 -41 -15
-90 -26 -108 -26 -31 0 -58 -14 -58 -31 0 -13 53 -41 80 -43 30 -2 65 17 57
31 -3 4 8 9 25 10 39 3 170 49 211 73 37 23 17 26 -30 5z"/>
<path d="M2203 1623 c-9 -25 -9 -33 0 -33 8 0 8 -3 -1 -12 -35 -35 13 -38 54
-3 l28 24 -29 -2 c-25 -2 -30 2 -35 28 l-6 30 -11 -32z"/>
<path d="M1815 1486 c-18 -13 -18 -14 8 -9 15 3 27 9 27 14 0 13 -13 11 -35
-5z"/>
<path d="M780 1460 c6 -11 13 -20 16 -20 2 0 0 9 -6 20 -6 11 -13 20 -16 20
-2 0 0 -9 6 -20z"/>
<path d="M3957 1305 c3 -8 9 -12 14 -9 12 7 11 11 -5 17 -10 4 -13 1 -9 -8z"/>
<path d="M3768 1283 c7 -3 16 -2 19 1 4 3 -2 6 -13 5 -11 0 -14 -3 -6 -6z"/>
<path d="M2850 1150 c0 -6 216 -64 315 -85 186 -39 420 -43 629 -12 60 9 112
15 114 12 3 -2 22 9 44 26 21 17 37 34 34 37 -3 3 -12 -1 -20 -7 -8 -7 -21 -9
-27 -5 -8 5 -9 3 -4 -6 6 -10 4 -12 -9 -7 -9 4 -46 0 -82 -7 -54 -11 -66 -12
-70 -1 -5 11 -12 11 -37 2 -20 -7 -101 -12 -217 -12 -184 0 -235 6 -425 50
-58 14 -245 25 -245 15z"/>
<path d="M2908 573 c7 -3 16 -2 19 1 4 3 -2 6 -13 5 -11 0 -14 -3 -6 -6z"/>
</g>
</svg>
