<?xml version="1.0" standalone="no"?>
<!DOCTYPE svg PUBLIC "-//W3C//DTD SVG 20010904//EN"
 "http://www.w3.org/TR/2001/REC-SVG-20010904/DTD/svg10.dtd">
<svg version="1.0" xmlns="http://www.w3.org/2000/svg"
 width="500.000000pt" height="500.000000pt" viewBox="0 0 500.000000 500.000000"
 preserveAspectRatio="xMidYMid meet">

<g transform="translate(0.000000,500.000000) scale(0.100000,-0.100000)"
fill="#000000" stroke="none">
<path d="M2036 4153 c-3 -3 -32 -8 -63 -10 -32 -2 -69 -7 -83 -11 -14 -5 -38
-7 -55 -7 -16 1 -32 -1 -35 -5 -11 -14 -69 -50 -80 -50 -6 0 -26 -11 -44 -25
-19 -14 -40 -23 -47 -20 -16 5 -52 -22 -62 -47 -3 -10 -16 -18 -28 -18 -12 0
-39 -5 -60 -12 -30 -9 -36 -14 -28 -24 13 -15 -19 -67 -52 -85 -11 -5 -17 -15
-13 -22 4 -7 4 -9 -1 -5 -4 4 -14 3 -22 -3 -9 -9 -13 -8 -13 0 0 19 -29 12
-60 -16 -17 -14 -30 -34 -30 -43 0 -10 -9 -20 -21 -23 -12 -3 -18 -10 -14 -16
3 -6 -2 -25 -12 -41 -16 -28 -16 -32 -1 -58 20 -32 53 -40 78 -17 12 11 20 13
25 6 3 -6 1 -11 -4 -11 -6 0 -11 -4 -11 -10 0 -5 17 -10 39 -10 23 0 48 -8 64
-20 14 -11 30 -20 36 -20 6 0 11 -5 11 -11 0 -6 9 -8 20 -4 15 5 20 2 20 -13
0 -22 18 -32 68 -38 31 -4 81 -46 82 -68 0 -5 8 -14 17 -21 14 -10 20 -10 31
1 16 16 48 18 57 4 12 -19 91 -11 127 13 46 32 84 38 124 21 30 -13 33 -12 39
7 4 12 0 30 -9 44 -19 29 -15 31 20 8 21 -13 30 -14 45 -5 10 7 26 12 34 12 9
0 15 9 15 25 0 29 -20 75 -32 75 -5 0 -7 14 -3 31 4 19 2 41 -5 54 -13 24 -4
49 45 121 31 45 34 104 6 111 -13 3 -20 17 -24 51 -3 26 -9 55 -12 65 -6 13
-2 17 16 17 38 0 69 11 69 24 0 7 -19 23 -42 36 -24 13 -45 27 -48 30 -9 13
-67 39 -74 33z m-367 -175 c5 -15 4 -26 -3 -30 -20 -14 -26 -8 -26 22 0 35 17
40 29 8z"/>
<path d="M2293 3976 c-13 -7 -20 -16 -15 -21 4 -5 1 -5 -7 0 -8 4 -16 2 -21
-5 -11 -17 0 -50 16 -50 8 0 14 -6 14 -14 0 -28 22 -28 51 0 16 15 29 34 29
41 0 7 7 13 15 13 20 0 19 13 -3 33 -21 20 -48 20 -79 3z"/>
<path d="M3040 3795 c0 -9 6 -12 15 -9 8 4 15 10 15 15 0 5 -7 9 -15 9 -8 0
-15 -7 -15 -15z"/>
<path d="M2943 3713 c-13 -2 -23 -11 -23 -19 0 -17 2 -17 45 0 53 23 43 31
-22 19z"/>
<path d="M2841 3652 c-13 -24 4 -42 39 -42 35 0 52 18 39 42 -6 11 -21 18 -39
18 -18 0 -33 -7 -39 -18z"/>
<path d="M2754 3649 c-3 -6 -1 -16 5 -22 8 -8 11 -5 11 11 0 24 -5 28 -16 11z"/>
<path d="M2680 3475 c0 -8 9 -15 20 -15 11 0 20 7 20 15 0 8 -9 15 -20 15 -11
0 -20 -7 -20 -15z"/>
<path d="M2718 3132 c-9 -4 -26 -19 -38 -34 -11 -15 -42 -37 -68 -48 -41 -19
-53 -20 -97 -10 -111 25 -100 28 -165 -39 -34 -33 -70 -61 -80 -61 -11 0 -24
-9 -30 -21 -13 -24 3 -42 54 -61 l29 -11 -36 -18 c-31 -16 -35 -23 -32 -49 2
-17 13 -44 25 -59 11 -16 20 -37 20 -46 0 -10 5 -13 12 -9 7 5 9 0 6 -14 -3
-12 -2 -22 4 -24 5 -2 10 -11 12 -21 1 -9 12 -28 23 -41 12 -13 19 -27 16 -30
-4 -3 -1 -6 5 -6 7 0 11 -3 11 -7 -4 -18 14 -93 22 -93 5 0 9 -5 9 -11 0 -13
26 -40 33 -33 2 3 8 -11 11 -31 4 -19 11 -35 17 -35 6 0 8 -4 4 -10 -3 -5 9
-13 27 -18 25 -6 36 -4 50 10 10 10 18 23 18 28 0 6 5 10 10 10 15 0 12 -27
-4 -33 -8 -3 -22 -17 -31 -31 -13 -20 -14 -29 -5 -46 10 -19 8 -26 -20 -55
-29 -30 -31 -35 -22 -69 11 -37 7 -42 -17 -27 -8 5 -27 5 -45 0 -17 -5 -64
-16 -105 -25 -40 -8 -82 -24 -94 -35 -11 -10 -25 -19 -29 -19 -5 0 -13 -11
-18 -25 -12 -32 -27 -31 -70 0 -41 31 -100 49 -114 35 -6 -6 -5 -19 4 -35 13
-24 12 -28 -18 -57 -24 -25 -34 -29 -45 -20 -15 13 -27 6 -27 -15 0 -21 -22
-41 -40 -36 -15 4 -119 -92 -128 -117 -2 -6 -15 -10 -28 -10 -16 0 -27 -8 -33
-22 -9 -25 -3 -58 10 -58 22 0 49 -42 49 -75 0 -19 -3 -35 -8 -35 -4 0 -26 18
-49 40 -35 33 -47 38 -65 31 -58 -22 -88 -47 -103 -88 -12 -32 -23 -43 -45
-48 -37 -8 -45 -19 -59 -83 -14 -67 -14 -64 8 -57 18 5 131 -60 146 -85 10
-16 25 -1 25 26 0 31 13 31 30 -1 15 -28 34 -28 77 3 17 12 48 24 69 27 20 2
54 16 75 31 48 33 78 29 146 -19 26 -19 64 -41 84 -50 52 -24 62 -39 48 -71
-14 -29 -11 -34 17 -39 10 -1 20 -6 21 -11 0 -4 14 -21 29 -37 22 -23 36 -29
71 -29 32 0 43 -4 43 -15 0 -8 5 -15 10 -15 6 0 10 -7 10 -15 0 -9 9 -15 22
-15 12 0 31 -9 42 -19 12 -11 35 -22 51 -24 21 -3 30 -10 32 -23 3 -47 15 -64
50 -70 31 -6 34 -9 28 -35 -6 -27 -4 -29 22 -29 15 0 43 4 61 9 47 14 82 -1
82 -35 0 -23 3 -25 23 -20 54 16 64 19 95 23 18 3 39 0 47 -7 12 -10 16 -9 21
5 5 11 14 15 29 11 16 -4 25 1 34 18 15 27 78 50 115 40 15 -3 34 1 50 11 14
9 30 14 35 11 6 -4 15 3 21 14 13 23 30 27 30 5 0 -25 15 -17 49 25 34 43 51
49 75 25 18 -18 26 -19 26 -2 0 15 53 57 72 57 19 0 68 58 68 80 0 30 21 35
40 10 l17 -23 7 37 c5 28 2 47 -13 77 -12 22 -21 46 -21 54 0 18 -4 18 -46 3
-45 -16 -144 5 -144 31 0 28 -19 39 -59 34 -25 -3 -42 0 -52 9 -8 8 -38 15
-68 17 -76 3 -111 24 -131 76 -9 23 -14 26 -38 20 -15 -4 -40 -6 -55 -6 -22 0
-33 -8 -48 -33 -13 -22 -26 -33 -37 -31 -9 2 -20 4 -24 4 -5 1 -8 7 -8 14 0 6
-17 30 -37 53 -33 36 -41 40 -60 31 -13 -6 -23 -14 -23 -18 0 -8 -74 22 -88
35 -4 4 2 14 12 22 16 11 20 27 20 75 l1 61 40 14 c22 8 45 12 52 9 7 -2 15 0
18 5 4 6 -1 10 -10 10 -9 0 -14 4 -11 9 3 4 17 6 31 3 14 -2 25 0 25 6 0 6 20
14 45 18 33 5 51 2 70 -10 13 -9 31 -16 40 -16 8 0 15 -4 15 -10 0 -5 5 -10
11 -10 5 0 7 4 4 10 -4 6 6 7 25 4 42 -9 73 19 65 57 -6 27 8 49 45 69 11 6
26 26 35 44 14 28 14 38 4 55 -11 17 -10 23 9 39 12 11 24 35 26 53 2 19 4 38
5 42 0 5 11 7 24 5 14 -2 21 2 19 11 -4 19 41 82 55 77 6 -3 17 2 24 10 10 12
9 13 -7 8 -18 -5 -18 -5 1 10 11 9 24 15 31 12 6 -2 17 5 25 15 12 17 21 19
67 13 50 -6 54 -5 82 25 17 17 30 34 30 37 0 3 14 19 30 34 38 36 38 60 -1 83
-34 19 -129 24 -129 6 0 -5 -4 -7 -10 -4 -5 3 -10 11 -10 16 0 6 5 7 10 4 6
-3 10 -2 10 4 0 6 11 13 24 17 42 10 57 36 59 105 1 36 -3 64 -9 66 -7 2 -7
21 1 60 10 52 14 57 40 60 43 6 57 22 52 57 -4 24 1 38 21 58 l25 27 -39 44
c-43 47 -133 114 -148 109 -5 -2 -13 2 -17 9 -10 16 -65 -6 -74 -29 -5 -14 -9
-13 -25 8 -15 20 -21 22 -31 13 -10 -10 -8 -19 10 -43 12 -17 19 -36 15 -42
-4 -7 -3 -8 4 -4 17 10 14 -15 -3 -38 -14 -18 -16 -18 -60 8 -25 15 -45 34
-45 42 0 8 -7 17 -15 20 -8 4 -12 10 -9 15 3 5 -2 9 -10 9 -8 0 -17 -4 -20 -9
-3 -5 -15 -7 -26 -4 -15 4 -18 11 -13 37 3 17 9 36 14 41 4 6 4 17 -1 25 -7
12 -14 9 -34 -13 -29 -31 -78 -36 -114 -11 -12 8 -27 12 -32 9 -6 -3 -10 -2
-10 3 0 6 -15 13 -32 16 -45 9 -138 53 -138 66 0 11 -75 13 -102 2z m-688
-1732 c0 -11 -4 -20 -10 -20 -5 0 -10 9 -10 20 0 11 5 20 10 20 6 0 10 -9 10
-20z m443 -212 c7 -21 -4 -38 -23 -38 -10 0 -20 6 -23 13 -7 20 4 37 23 37 10
0 20 -6 23 -12z m-156 -96 c6 2 11 0 12 -4 1 -5 -1 -8 -4 -8 -3 0 -12 0 -20 0
-8 0 -15 8 -15 18 0 13 2 14 9 4 4 -7 13 -12 18 -10z m47 -27 c-4 -8 -14 -15
-23 -15 -14 1 -13 3 3 15 25 19 27 19 20 0z m1096 -19 c0 -3 -4 -8 -10 -11 -5
-3 -10 -1 -10 4 0 6 5 11 10 11 6 0 10 -2 10 -4z"/>
<path d="M2192 2888 c-16 -16 -15 -38 2 -38 17 0 30 30 18 42 -4 4 -13 3 -20
-4z"/>
<path d="M3627 2433 c-10 -16 9 -78 23 -78 23 0 24 48 1 69 -10 9 -21 14 -24
9z"/>
<path d="M2517 2266 c-4 -10 -5 -21 -2 -24 9 -9 17 6 13 25 -3 17 -4 17 -11
-1z"/>
<path d="M3274 2075 c-3 -8 -4 -20 -2 -27 3 -7 7 -1 10 15 6 29 1 36 -8 12z"/>
<path d="M3215 2020 c-3 -5 1 -10 10 -10 9 0 13 5 10 10 -3 6 -8 10 -10 10 -2
0 -7 -4 -10 -10z"/>
<path d="M983 1767 c-35 -12 -51 -36 -32 -47 8 -6 8 -9 -1 -12 -7 -2 -15 -15
-17 -28 -4 -27 35 -113 47 -105 5 3 16 -10 26 -30 17 -37 34 -54 34 -35 0 6 5
8 10 5 6 -4 8 -10 5 -15 -3 -5 6 -17 20 -26 14 -9 25 -22 25 -30 0 -8 9 -19
19 -26 10 -6 17 -18 14 -25 -3 -7 2 -13 10 -13 9 0 20 -7 25 -15 7 -14 15 -12
58 12 27 15 55 35 62 44 7 10 25 19 40 21 24 3 27 7 25 38 -1 19 0 29 3 22 10
-21 47 34 39 58 -4 11 -10 18 -15 15 -11 -7 -21 36 -13 63 5 22 -11 52 -28 52
-5 0 -9 -8 -9 -17 0 -10 -7 -27 -15 -37 -8 -11 -13 -28 -10 -37 4 -13 -13 -36
-57 -78 -66 -64 -78 -70 -98 -46 -10 12 -7 20 13 44 l25 30 -18 70 c-20 78
-26 90 -54 111 -27 19 -89 50 -96 49 -3 -1 -19 -7 -37 -12z m404 -229 c-3 -8
-6 -5 -6 6 -1 11 2 17 5 13 3 -3 4 -12 1 -19z"/>
<path d="M1592 1755 c0 -16 2 -22 5 -12 2 9 2 23 0 30 -3 6 -5 -1 -5 -18z"/>
</g>
</svg>
