<?xml version="1.0" standalone="no"?>
<!DOCTYPE svg PUBLIC "-//W3C//DTD SVG 20010904//EN"
 "http://www.w3.org/TR/2001/REC-SVG-20010904/DTD/svg10.dtd">
<svg version="1.0" xmlns="http://www.w3.org/2000/svg"
 width="548.000000pt" height="456.000000pt" viewBox="0 0 548.000000 456.000000"
 preserveAspectRatio="xMidYMid meet">

<g transform="translate(0.000000,456.000000) scale(0.100000,-0.100000)"
fill="#000000" stroke="none">
<path d="M2645 4040 c-3 -6 1 -7 9 -4 18 7 21 14 7 14 -6 0 -13 -4 -16 -10z"/>
<path d="M4280 4020 c-12 -7 -10 -9 7 -7 12 0 19 5 17 9 -6 10 -6 10 -24 -2z"/>
<path d="M2245 3999 c-4 -6 -5 -12 -2 -15 2 -3 7 2 10 11 7 17 1 20 -8 4z"/>
<path d="M4206 3992 c-2 -4 -1 -14 4 -22 7 -11 9 -9 7 8 -1 24 -3 26 -11 14z"/>
<path d="M4235 3990 c-3 -5 -1 -10 4 -10 6 0 11 5 11 10 0 6 -2 10 -4 10 -3 0
-8 -4 -11 -10z"/>
<path d="M2390 3975 c-8 -9 -8 -15 -2 -15 12 0 26 19 19 26 -2 2 -10 -2 -17
-11z"/>
<path d="M2569 3953 c-13 -16 -12 -17 4 -4 16 13 21 21 13 21 -2 0 -10 -8 -17
-17z"/>
<path d="M3995 3961 c-3 -5 -2 -12 3 -15 5 -3 9 1 9 9 0 17 -3 19 -12 6z"/>
<path d="M4144 3939 c-4 -7 -3 -9 4 -5 6 3 15 -2 21 -11 9 -17 11 -17 28 0 17
17 17 18 0 11 -9 -3 -24 -1 -31 5 -11 9 -16 9 -22 0z"/>
<path d="M2376 3932 c-3 -6 1 -15 8 -21 8 -7 17 -8 20 -3 3 6 -1 15 -8 21 -8
7 -17 8 -20 3z"/>
<path d="M3915 3900 c-3 -5 -2 -10 4 -10 5 0 13 5 16 10 3 6 2 10 -4 10 -5 0
-13 -4 -16 -10z"/>
<path d="M1995 3890 c-16 -7 -17 -9 -3 -9 9 -1 20 4 23 9 7 11 7 11 -20 0z"/>
<path d="M2505 3890 c-8 -13 5 -13 25 0 13 8 13 10 -2 10 -9 0 -20 -4 -23 -10z"/>
<path d="M1887 3879 c7 -7 15 -10 18 -7 3 3 -2 9 -12 12 -14 6 -15 5 -6 -5z"/>
<path d="M4090 3870 c0 -6 4 -9 9 -6 5 4 12 1 14 -4 3 -6 4 -5 3 2 -3 15 -26
23 -26 8z"/>
<path d="M2460 3850 c-9 -6 -10 -10 -3 -10 6 0 15 5 18 10 8 12 4 12 -15 0z"/>
<path d="M2280 3830 c0 -5 4 -10 9 -10 6 0 13 5 16 10 3 6 -1 10 -9 10 -9 0
-16 -4 -16 -10z"/>
<path d="M2328 3833 c7 -3 16 -2 19 1 4 3 -2 6 -13 5 -11 0 -14 -3 -6 -6z"/>
<path d="M2575 3819 c-4 -6 -5 -12 -2 -15 2 -3 7 2 10 11 7 17 1 20 -8 4z"/>
<path d="M3861 3804 c0 -11 3 -14 6 -6 3 7 2 16 -1 19 -3 4 -6 -2 -5 -13z"/>
<path d="M3605 3790 c3 -5 8 -10 11 -10 2 0 4 5 4 10 0 6 -5 10 -11 10 -5 0
-7 -4 -4 -10z"/>
<path d="M2497 3740 c-9 -11 -13 -20 -8 -20 5 0 14 7 21 15 7 8 17 12 23 8 6
-3 7 -1 3 5 -10 17 -19 15 -39 -8z"/>
<path d="M3547 3745 c3 -8 9 -12 14 -9 12 7 11 11 -5 17 -10 4 -13 1 -9 -8z"/>
<path d="M3570 3725 c-11 -13 -10 -14 4 -9 9 3 16 10 16 15 0 13 -6 11 -20 -6z"/>
<path d="M3800 3730 c0 -5 5 -10 11 -10 5 0 7 5 4 10 -3 6 -8 10 -11 10 -2 0
-4 -4 -4 -10z"/>
<path d="M3466 3692 c-3 -5 1 -9 9 -9 8 0 12 4 9 9 -3 4 -7 8 -9 8 -2 0 -6 -4
-9 -8z"/>
<path d="M3768 3665 c-8 -19 -14 -22 -20 -13 -6 10 -8 9 -8 -4 0 -40 31 -26
43 20 7 30 -1 28 -15 -3z"/>
<path d="M2400 3649 c0 -5 5 -7 10 -4 6 3 10 8 10 11 0 2 -4 4 -10 4 -5 0 -10
-5 -10 -11z"/>
<path d="M2315 3610 c3 -5 8 -10 11 -10 2 0 4 5 4 10 0 6 -5 10 -11 10 -5 0
-7 -4 -4 -10z"/>
<path d="M3475 3600 c-3 -5 -1 -10 4 -10 6 0 11 5 11 10 0 6 -2 10 -4 10 -3 0
-8 -4 -11 -10z"/>
<path d="M3650 3590 c-9 -6 -10 -10 -3 -10 6 0 15 5 18 10 8 12 4 12 -15 0z"/>
<path d="M2315 3570 c3 -5 8 -10 11 -10 2 0 4 5 4 10 0 6 -5 10 -11 10 -5 0
-7 -4 -4 -10z"/>
<path d="M3690 3561 c0 -6 4 -13 10 -16 6 -3 7 1 4 9 -7 18 -14 21 -14 7z"/>
<path d="M3715 3546 c0 -13 5 -23 11 -23 6 0 9 9 6 19 -7 27 -17 29 -17 4z"/>
<path d="M2225 3550 c-3 -5 -1 -10 4 -10 6 0 11 5 11 10 0 6 -2 10 -4 10 -3 0
-8 -4 -11 -10z"/>
<path d="M4640 3541 c0 -5 5 -13 10 -16 6 -3 10 -2 10 4 0 5 -4 13 -10 16 -5
3 -10 2 -10 -4z"/>
<path d="M2250 3506 c0 -2 7 -7 16 -10 8 -3 12 -2 9 4 -6 10 -25 14 -25 6z"/>
<path d="M2978 3503 c7 -3 16 -2 19 1 4 3 -2 6 -13 5 -11 0 -14 -3 -6 -6z"/>
<path d="M4601 3505 c0 -5 6 -21 14 -35 10 -18 14 -20 15 -8 0 9 3 25 6 35 5
15 4 16 -5 3 -10 -13 -12 -13 -21 0 -5 8 -10 11 -9 5z"/>
<path d="M4741 3468 l-22 -33 24 27 c14 15 28 24 31 21 3 -4 6 -1 6 5 0 21
-16 13 -39 -20z"/>
<path d="M2933 3472 c-8 -14 -8 -19 1 -19 7 0 13 9 13 19 1 10 1 18 0 18 -1 0
-7 -8 -14 -18z"/>
<path d="M3790 3428 c0 -19 2 -20 10 -8 13 19 13 30 0 30 -5 0 -10 -10 -10
-22z"/>
<path d="M3411 3413 c-10 -26 -10 -27 4 -9 8 11 15 23 15 28 0 15 -7 8 -19
-19z"/>
<path d="M3568 3423 c-11 -14 -11 -16 1 -9 8 5 16 4 21 -4 4 -7 10 -8 13 -4 3
5 -1 14 -8 21 -10 10 -16 9 -27 -4z"/>
<path d="M3251 3421 c-8 -6 -9 -11 -3 -15 6 -3 14 -1 17 5 9 14 2 20 -14 10z"/>
<path d="M3637 3417 c-4 -10 -2 -17 3 -17 6 0 10 -8 11 -17 0 -10 3 -13 5 -7
3 6 1 21 -4 34 -7 19 -10 21 -15 7z"/>
<path d="M4561 3411 c-8 -6 -9 -11 -3 -15 6 -3 14 -1 17 5 9 14 2 20 -14 10z"/>
<path d="M1526 3373 c87 -82 88 -176 2 -285 -16 -20 -34 -54 -42 -75 -12 -36
-15 -38 -62 -41 -54 -4 -64 -12 -64 -57 0 -74 -68 -127 -166 -130 -42 -2 -59
3 -95 28 -24 17 -69 44 -99 60 -30 16 -64 37 -74 46 -18 15 -18 15 -7 -6 6
-12 23 -30 37 -40 13 -10 55 -42 92 -70 77 -61 136 -84 219 -85 77 -1 139 27
182 81 23 29 40 41 58 41 17 0 40 15 68 43 79 79 116 239 80 348 -19 55 -95
143 -145 168 -18 9 -13 1 16 -26z"/>
<path d="M3040 3400 c0 -5 4 -10 9 -10 6 0 13 5 16 10 3 6 -1 10 -9 10 -9 0
-16 -4 -16 -10z"/>
<path d="M2110 3390 c-9 -6 -10 -10 -3 -10 6 0 15 5 18 10 8 12 4 12 -15 0z"/>
<path d="M2985 3381 c-3 -5 -1 -12 5 -16 5 -3 10 1 10 9 0 18 -6 21 -15 7z"/>
<path d="M3207 3369 c7 -7 15 -10 18 -7 3 3 -2 9 -12 12 -14 6 -15 5 -6 -5z"/>
<path d="M3741 3377 c2 -1 13 -9 24 -17 19 -14 19 -14 6 3 -7 9 -18 17 -24 17
-6 0 -8 -1 -6 -3z"/>
<path d="M3795 3370 c3 -5 8 -10 11 -10 2 0 4 5 4 10 0 6 -5 10 -11 10 -5 0
-7 -4 -4 -10z"/>
<path d="M3620 3362 c0 -5 7 -9 15 -9 8 0 12 4 9 9 -3 4 -9 8 -15 8 -5 0 -9
-4 -9 -8z"/>
<path d="M4526 3344 c-11 -28 -6 -38 9 -18 8 10 15 22 15 27 0 13 -18 7 -24
-9z"/>
<path d="M2150 3340 c-9 -6 -10 -10 -3 -10 6 0 15 5 18 10 8 12 4 12 -15 0z"/>
<path d="M1224 3326 c-9 -23 -1 -49 16 -53 12 -4 13 -3 1 5 -9 7 -11 19 -7 36
7 27 -1 36 -10 12z"/>
<path d="M3350 3325 c0 -8 2 -15 4 -15 2 0 6 7 10 15 3 8 1 15 -4 15 -6 0 -10
-7 -10 -15z"/>
<path d="M3610 3331 c0 -6 4 -13 10 -16 6 -3 7 1 4 9 -7 18 -14 21 -14 7z"/>
<path d="M2120 3321 c0 -6 4 -13 10 -16 6 -3 7 1 4 9 -7 18 -14 21 -14 7z"/>
<path d="M3276 3317 c3 -10 9 -15 12 -12 3 3 0 11 -7 18 -10 9 -11 8 -5 -6z"/>
<path d="M4236 3312 c-3 -5 1 -9 9 -9 8 0 12 4 9 9 -3 4 -7 8 -9 8 -2 0 -6 -4
-9 -8z"/>
<path d="M3714 3295 c3 -8 9 -22 12 -30 3 -8 1 -15 -6 -15 -6 0 -8 -5 -4 -11
5 -8 9 -7 15 4 9 15 -4 67 -17 67 -3 0 -3 -7 0 -15z"/>
<path d="M4511 3284 c0 -11 3 -14 6 -6 3 7 2 16 -1 19 -3 4 -6 -2 -5 -13z"/>
<path d="M2025 3270 c-3 -5 -1 -10 4 -10 6 0 11 5 11 10 0 6 -2 10 -4 10 -3 0
-8 -4 -11 -10z"/>
<path d="M3687 3273 c-4 -3 -7 -11 -7 -17 0 -6 5 -5 12 2 6 6 9 14 7 17 -3 3
-9 2 -12 -2z"/>
<path d="M4893 3265 c-3 -9 -3 -18 -1 -21 3 -3 8 4 11 16 6 23 -1 27 -10 5z"/>
<path d="M985 3227 c-27 -66 -18 -138 21 -156 36 -16 42 -13 17 7 -33 25 -42
68 -27 127 15 61 10 71 -11 22z"/>
<path d="M4504 3222 c-2 -37 -2 -37 8 -9 6 16 6 33 2 37 -5 5 -10 -7 -10 -28z"/>
<path d="M2666 3219 c2 -4 -3 -9 -11 -13 -8 -3 -15 -10 -15 -16 0 -6 7 -4 16
4 8 9 19 14 22 12 4 -2 13 2 20 10 10 12 9 13 -12 12 -13 -1 -23 -5 -20 -9z"/>
<path d="M2980 3220 c0 -5 5 -10 11 -10 5 0 7 5 4 10 -3 6 -8 10 -11 10 -2 0
-4 -4 -4 -10z"/>
<path d="M4855 3211 c-3 -5 -1 -12 4 -16 6 -3 8 -13 5 -23 -5 -14 -4 -14 4 -2
7 9 7 19 2 26 -6 6 -7 14 -3 17 3 4 4 7 0 7 -3 0 -8 -4 -12 -9z"/>
<path d="M1276 3188 c-23 -33 -21 -95 3 -108 19 -10 19 -9 5 17 -18 35 -18 47
1 83 18 35 13 39 -9 8z"/>
<path d="M3215 3170 c3 -5 8 -10 11 -10 2 0 4 5 4 10 0 6 -5 10 -11 10 -5 0
-7 -4 -4 -10z"/>
<path d="M4300 3137 c-12 -19 -11 -21 2 -10 8 7 18 10 21 6 4 -3 7 -1 7 5 0
21 -16 21 -30 -1z"/>
<path d="M2579 3133 c-13 -16 -12 -17 4 -4 16 13 21 21 13 21 -2 0 -10 -8 -17
-17z"/>
<path d="M2656 3125 c-3 -8 -1 -15 4 -15 6 0 10 7 10 15 0 8 -2 15 -4 15 -2 0
-6 -7 -10 -15z"/>
<path d="M2545 3109 c-4 -6 -5 -12 -2 -15 2 -3 7 2 10 11 7 17 1 20 -8 4z"/>
<path d="M4815 3070 c-3 -5 -1 -10 4 -10 6 0 11 5 11 10 0 6 -2 10 -4 10 -3 0
-8 -4 -11 -10z"/>
<path d="M3541 2994 c0 -11 3 -14 6 -6 3 7 2 16 -1 19 -3 4 -6 -2 -5 -13z"/>
<path d="M1034 2985 c-7 -17 3 -35 19 -35 8 0 8 3 0 11 -6 6 -9 18 -6 25 3 8
2 14 -1 14 -4 0 -9 -7 -12 -15z"/>
<path d="M4660 2970 c0 -5 5 -10 10 -10 6 0 10 5 10 10 0 6 -4 10 -10 10 -5 0
-10 -4 -10 -10z"/>
<path d="M4266 2945 c-9 -26 -7 -32 5 -12 6 10 9 21 6 23 -2 3 -7 -2 -11 -11z"/>
<path d="M2370 2915 c-14 -16 -10 -18 14 -9 9 3 16 10 16 15 0 14 -16 11 -30
-6z"/>
<path d="M4130 2911 c0 -25 6 -27 13 -6 4 8 2 17 -3 20 -6 4 -10 -3 -10 -14z"/>
<path d="M2135 2900 c-3 -5 -1 -10 4 -10 6 0 11 5 11 10 0 6 -2 10 -4 10 -3 0
-8 -4 -11 -10z"/>
<path d="M4025 2869 c-4 -6 -5 -12 -2 -15 2 -3 7 2 10 11 7 17 1 20 -8 4z"/>
<path d="M4560 2871 c0 -6 4 -13 10 -16 6 -3 7 1 4 9 -7 18 -14 21 -14 7z"/>
<path d="M4631 2854 c0 -11 3 -14 6 -6 3 7 2 16 -1 19 -3 4 -6 -2 -5 -13z"/>
<path d="M2055 2840 c-3 -5 -2 -10 4 -10 5 0 13 5 16 10 3 6 2 10 -4 10 -5 0
-13 -4 -16 -10z"/>
<path d="M3995 2829 c-4 -6 -5 -12 -2 -15 2 -3 7 2 10 11 7 17 1 20 -8 4z"/>
<path d="M4231 2804 c0 -11 3 -14 6 -6 3 7 2 16 -1 19 -3 4 -6 -2 -5 -13z"/>
<path d="M2260 2800 c0 -5 5 -10 11 -10 5 0 7 5 4 10 -3 6 -8 10 -11 10 -2 0
-4 -4 -4 -10z"/>
<path d="M4085 2779 c-4 -6 -5 -12 -2 -15 2 -3 7 2 10 11 7 17 1 20 -8 4z"/>
<path d="M1995 2770 c-3 -5 -1 -10 4 -10 6 0 11 5 11 10 0 6 -2 10 -4 10 -3 0
-8 -4 -11 -10z"/>
<path d="M4030 2775 c0 -5 5 -17 10 -25 5 -8 10 -10 10 -5 0 6 -5 17 -10 25
-5 8 -10 11 -10 5z"/>
<path d="M4821 2754 c0 -11 3 -14 6 -6 3 7 2 16 -1 19 -3 4 -6 -2 -5 -13z"/>
<path d="M3360 2741 c0 -6 4 -13 10 -16 6 -3 7 1 4 9 -7 18 -14 21 -14 7z"/>
<path d="M3531 2714 c0 -11 3 -14 6 -6 3 7 2 16 -1 19 -3 4 -6 -2 -5 -13z"/>
<path d="M1931 2704 c0 -11 3 -14 6 -6 3 7 2 16 -1 19 -3 4 -6 -2 -5 -13z"/>
<path d="M4377 2700 c-3 -11 -1 -20 4 -20 5 0 9 9 9 20 0 11 -2 20 -4 20 -2 0
-6 -9 -9 -20z"/>
<path d="M3938 2703 c7 -3 16 -2 19 1 4 3 -2 6 -13 5 -11 0 -14 -3 -6 -6z"/>
<path d="M3324 2686 c-3 -8 -1 -22 4 -32 7 -13 9 -10 8 15 -1 34 -4 38 -12 17z"/>
<path d="M3476 2643 c-6 -14 -5 -15 5 -6 7 7 10 15 7 18 -3 3 -9 -2 -12 -12z"/>
<path d="M3735 2613 c0 -28 -1 -28 19 1 14 23 14 25 -2 23 -11 0 -17 -9 -17
-24z"/>
<path d="M4563 2598 c2 -21 5 -23 20 -14 12 8 13 12 5 15 -7 2 -16 9 -20 14
-3 6 -5 -1 -5 -15z"/>
<path d="M3240 2589 c0 -5 5 -7 10 -4 6 3 10 8 10 11 0 2 -4 4 -10 4 -5 0 -10
-5 -10 -11z"/>
<path d="M3398 2583 c7 -3 16 -2 19 1 4 3 -2 6 -13 5 -11 0 -14 -3 -6 -6z"/>
<path d="M3760 2479 c0 -5 5 -7 10 -4 6 3 10 8 10 11 0 2 -4 4 -10 4 -5 0 -10
-5 -10 -11z"/>
<path d="M3745 2450 c-3 -5 -1 -10 4 -10 6 0 11 5 11 10 0 6 -2 10 -4 10 -3 0
-8 -4 -11 -10z"/>
<path d="M3030 2271 c0 -6 4 -13 10 -16 6 -3 7 1 4 9 -7 18 -14 21 -14 7z"/>
<path d="M3010 2251 c0 -6 4 -13 10 -16 6 -3 7 1 4 9 -7 18 -14 21 -14 7z"/>
<path d="M3133 2235 c-3 -9 -3 -18 -1 -21 3 -3 8 4 11 16 6 23 -1 27 -10 5z"/>
<path d="M3090 2185 c-7 -9 -8 -15 -2 -15 5 0 12 7 16 15 3 8 4 15 2 15 -2 0
-9 -7 -16 -15z"/>
<path d="M4562 2099 c-7 -11 -9 -25 -5 -32 4 -7 10 0 15 18 9 36 6 40 -10 14z"/>
<path d="M3050 2095 c-7 -9 -8 -15 -2 -15 5 0 12 7 16 15 3 8 4 15 2 15 -2 0
-9 -7 -16 -15z"/>
<path d="M4585 2080 c3 -5 8 -10 11 -10 2 0 4 5 4 10 0 6 -5 10 -11 10 -5 0
-7 -4 -4 -10z"/>
<path d="M2895 2020 c-3 -5 -1 -10 4 -10 6 0 11 5 11 10 0 6 -2 10 -4 10 -3 0
-8 -4 -11 -10z"/>
<path d="M4520 1976 c0 -8 4 -17 9 -20 5 -4 7 3 4 14 -6 23 -13 26 -13 6z"/>
<path d="M3670 1689 c-51 -8 -134 -42 -145 -59 -4 -6 9 -2 29 8 43 23 134 20
175 -6 100 -64 162 -225 163 -427 1 -154 -22 -230 -90 -300 -52 -53 -58 -57
-119 -78 -53 -19 -126 -19 -183 -2 -19 6 -22 5 -14 -4 6 -7 44 -24 85 -38 201
-70 395 0 481 175 31 63 33 73 33 172 -1 91 -4 111 -24 150 -13 25 -32 79 -43
120 -37 148 -86 223 -171 264 -60 28 -113 35 -177 25z m-3 -25 c-3 -3 -12 -4
-19 -1 -8 3 -5 6 6 6 11 1 17 -2 13 -5z"/>
<path d="M1683 1645 c22 -8 67 -35 102 -59 34 -25 65 -42 69 -39 3 4 6 -2 6
-11 0 -12 5 -16 16 -12 8 3 12 2 9 -4 -3 -6 2 -22 12 -38 63 -93 58 -249 -11
-345 -15 -21 -22 -48 -25 -104 -4 -86 -18 -106 -79 -118 -82 -15 -83 -17 -81
-129 3 -85 0 -106 -16 -131 -25 -41 -67 -85 -79 -85 -5 0 -20 -9 -32 -21 -14
-13 -46 -24 -93 -32 -84 -13 -142 -1 -231 45 -39 20 -69 28 -106 28 -64 0
-130 22 -168 58 l-30 27 25 -34 c35 -48 98 -91 144 -98 22 -3 71 -21 109 -40
124 -60 194 -76 314 -71 94 4 115 8 172 36 109 52 156 109 205 249 2 7 21 19
42 28 109 46 163 168 163 370 0 205 -66 348 -203 436 -59 38 -185 92 -242 103
-24 5 -22 3 8 -9z"/>
<path d="M3415 1545 l-30 -25 32 17 c18 10 33 21 33 26 0 10 -2 9 -35 -18z"/>
<path d="M3690 1471 c-23 -45 -8 -111 31 -132 l21 -11 -21 29 c-21 29 -29 85
-16 116 10 23 -2 22 -15 -2z"/>
<path d="M1320 1431 c-14 -27 -13 -86 3 -99 6 -6 26 -13 42 -17 l30 -7 -32 20
c-17 12 -34 30 -38 41 -7 24 2 63 19 73 8 6 7 8 -1 8 -7 0 -17 -9 -23 -19z"/>
<path d="M3504 1395 c-4 -15 -1 -32 6 -40 20 -24 32 -17 15 9 -8 13 -13 31 -9
40 3 9 3 16 0 16 -3 0 -8 -11 -12 -25z"/>
<path d="M3321 1295 c-26 -34 -34 -75 -22 -108 13 -35 52 -53 77 -38 18 10 18
10 -3 11 -44 0 -53 10 -53 60 0 33 6 55 21 74 11 14 16 26 10 26 -5 0 -19 -11
-30 -25z"/>
<path d="M1476 1253 c-64 -97 -32 -236 54 -232 20 1 21 2 5 6 -71 17 -93 148
-39 231 9 13 13 26 11 29 -3 3 -17 -13 -31 -34z"/>
<path d="M1012 1225 c-32 -41 -45 -92 -40 -159 10 -125 85 -201 165 -168 13 5
6 8 -27 12 -40 4 -48 10 -76 52 -41 61 -51 132 -28 208 9 30 21 58 27 62 6 4
9 10 5 13 -3 3 -15 -6 -26 -20z"/>
<path d="M3628 1174 c-28 -15 -58 -61 -58 -89 0 -24 46 -65 72 -64 l23 0 -22
9 c-12 5 -29 20 -37 33 -22 32 -4 82 38 108 36 22 24 25 -16 3z"/>
<path d="M1167 811 c-9 -16 -17 -36 -17 -43 0 -22 33 -48 61 -48 22 1 21 2 -8
15 -36 16 -41 35 -19 78 20 36 5 35 -17 -2z"/>
</g>
</svg>
