<?xml version="1.0" standalone="no"?>
<!DOCTYPE svg PUBLIC "-//W3C//DTD SVG 20010904//EN"
 "http://www.w3.org/TR/2001/REC-SVG-20010904/DTD/svg10.dtd">
<svg version="1.0" xmlns="http://www.w3.org/2000/svg"
 width="499.000000pt" height="499.000000pt" viewBox="0 0 499.000000 499.000000"
 preserveAspectRatio="xMidYMid meet">

<g transform="translate(0.000000,499.000000) scale(0.100000,-0.100000)"
fill="#000000" stroke="none">
<path d="M2553 4315 c0 -7 10 -10 24 -7 13 2 23 6 23 7 0 1 -10 5 -23 7 -14 3
-24 0 -24 -7z"/>
<path d="M2498 4313 c7 -3 16 -2 19 1 4 3 -2 6 -13 5 -11 0 -14 -3 -6 -6z"/>
<path d="M2658 4303 c7 -3 16 -2 19 1 4 3 -2 6 -13 5 -11 0 -14 -3 -6 -6z"/>
<path d="M2908 4218 c6 -6 18 -8 28 -6 14 3 12 5 -9 10 -19 3 -25 2 -19 -4z"/>
<path d="M3064 4165 c11 -8 27 -15 35 -15 11 0 10 4 -5 15 -10 8 -26 14 -34
14 -11 0 -10 -3 4 -14z"/>
<path d="M3185 4139 c4 -6 17 -15 29 -20 19 -8 18 -9 -7 -6 -34 5 -41 -4 -22
-29 10 -13 14 -14 15 -5 0 7 6 11 15 7 8 -3 19 2 24 12 7 13 3 20 -20 34 -34
21 -43 23 -34 7z"/>
<path d="M3278 4098 c35 -35 59 -70 72 -108 11 -30 25 -64 30 -75 10 -21 9
-42 -3 -62 -4 -6 -3 -14 3 -18 13 -8 24 20 15 37 -4 7 3 2 16 -12 46 -48 79
-92 79 -103 0 -7 -7 -3 -15 7 -14 19 -15 19 -15 -8 0 -15 4 -25 9 -21 14 8 18
-22 13 -110 -5 -84 0 -107 43 -220 22 -60 25 -81 21 -145 -3 -48 -2 -64 3 -45
8 27 9 24 10 -21 1 -54 -30 -166 -48 -172 -6 -2 -11 -10 -11 -17 0 -7 -24 -28
-52 -46 -29 -18 -64 -42 -77 -53 l-23 -21 6 25 c7 25 -3 10 -48 -78 -10 -18
-22 -30 -27 -27 -5 4 -6 -1 -3 -10 4 -8 2 -21 -4 -28 -6 -6 -18 -32 -28 -57
-9 -25 -47 -94 -83 -155 -59 -98 -66 -115 -64 -158 1 -51 21 -103 59 -154 13
-17 24 -34 24 -38 0 -3 9 -16 20 -28 12 -12 16 -23 10 -25 -14 -5 -13 -39 3
-45 9 -3 9 -7 -1 -19 -13 -16 -12 -61 1 -74 12 -13 8 -56 -5 -51 -7 2 -12 15
-10 29 4 31 -23 45 -45 23 -13 -14 -7 -23 54 -83 94 -91 110 -134 78 -199 -9
-17 -34 -48 -58 -70 -44 -41 -157 -113 -176 -113 -6 0 -11 -4 -11 -10 0 -5 -6
-10 -14 -10 -8 0 -31 -9 -53 -20 -59 -30 -227 -100 -240 -100 -7 0 -13 -4 -13
-10 0 -5 -6 -7 -14 -4 -8 3 -17 1 -21 -5 -3 -6 -14 -11 -23 -11 -21 0 -87 -34
-114 -59 -43 -41 -285 -151 -359 -165 -35 -6 -152 5 -407 39 -224 30 -305 57
-364 123 -24 28 -30 29 -65 22 -70 -16 -87 -6 -235 137 -43 42 -95 96 -115
121 -21 25 -45 52 -54 61 -21 21 -118 155 -148 204 -27 44 -36 47 -26 10 4
-16 7 -38 7 -50 -1 -12 3 -25 8 -28 6 -4 8 -11 5 -16 -4 -5 -2 -9 3 -9 4 0 16
-16 25 -35 9 -19 22 -35 27 -35 6 0 9 -4 5 -9 -3 -6 3 -14 12 -20 10 -6 15
-11 11 -11 -4 0 18 -26 48 -57 31 -32 58 -70 61 -85 3 -15 10 -25 15 -22 5 3
8 0 7 -7 -5 -31 36 -133 50 -125 6 4 38 -26 34 -31 -11 -12 0 -13 14 -2 14 13
15 12 6 -6 -6 -11 -16 -44 -23 -74 -18 -76 0 -97 116 -136 101 -34 133 -54
221 -137 65 -61 85 -68 133 -43 45 23 81 21 130 -8 25 -14 86 -36 135 -47 106
-24 145 -40 240 -95 148 -86 206 -100 331 -81 50 8 53 8 70 -20 29 -47 56 -74
75 -74 9 0 50 16 91 35 78 37 186 65 254 65 52 0 86 26 124 94 32 56 49 70
100 81 19 4 85 27 145 50 61 24 128 47 150 50 93 16 178 70 307 194 122 116
125 118 180 125 61 8 82 24 94 71 14 60 45 105 98 145 66 48 109 101 109 135
0 13 -10 39 -22 57 -50 78 -53 92 -36 170 28 128 34 171 43 288 8 92 17 137
47 220 35 99 37 113 42 260 8 229 -8 284 -124 433 -64 83 -72 118 -44 182 12
26 21 57 21 69 0 11 -23 54 -50 94 -31 46 -57 100 -71 145 -29 101 -40 127
-53 128 -6 0 -52 1 -101 2 -85 2 -95 4 -149 37 -80 48 -172 142 -238 242 -64
96 -103 130 -178 152 l-53 16 51 -52z m463 -1270 c78 -35 149 -102 178 -168
29 -66 54 -215 48 -285 -6 -87 -36 -138 -100 -175 -160 -92 -368 -97 -497 -11
-74 49 -98 81 -131 176 -28 81 -30 97 -24 165 9 103 40 171 97 206 23 15 60
42 81 60 35 30 70 42 192 67 35 8 88 -4 156 -35z m-481 -743 c0 -24 -19 -55
-34 -55 -3 0 -6 9 -6 20 0 11 5 20 11 20 8 0 10 12 6 35 -5 31 -4 33 9 21 8
-8 14 -26 14 -41z m40 -15 c0 -5 -2 -10 -4 -10 -3 0 -8 5 -11 10 -3 6 -1 10 4
10 6 0 11 -4 11 -10z m10 -30 c0 -5 11 -10 25 -10 42 0 28 -16 -16 -19 -35 -2
-40 1 -35 14 3 9 2 13 -4 10 -6 -3 -10 -1 -10 4 0 6 9 11 20 11 11 0 20 -4 20
-10z m170 -120 c0 -5 -2 -10 -4 -10 -3 0 -8 5 -11 10 -3 6 -1 10 4 10 6 0 11
-4 11 -10z m-584 -649 c-7 -11 -56 -21 -56 -10 0 4 8 10 18 12 30 8 43 7 38
-2z m4 -25 c0 -2 -7 -7 -16 -10 -8 -3 -12 -2 -9 4 6 10 25 14 25 6z"/>
<path d="M3524 2749 c-71 -27 -137 -88 -171 -157 -56 -115 -29 -265 63 -355
56 -55 115 -79 198 -85 98 -6 172 23 238 91 67 70 91 138 86 242 -7 127 -66
218 -172 266 -56 26 -174 25 -242 -2z m216 -264 c6 -8 10 -22 8 -32 -4 -24
-47 -24 -62 0 -9 15 -7 21 8 33 25 18 31 18 46 -1z m118 -17 c4 -34 -27 -54
-58 -38 -21 11 -25 27 -14 55 5 11 16 15 38 13 25 -2 32 -8 34 -30z m-92 -76
c6 -4 17 -18 24 -31 10 -20 9 -27 -7 -49 -23 -30 -50 -36 -80 -16 -31 20 -31
67 -1 88 24 17 47 20 64 8z"/>
<path d="M3106 4120 c7 -7 19 -7 35 -1 23 9 22 10 -10 10 -24 1 -32 -2 -25 -9z"/>
<path d="M2770 4106 c0 -2 7 -7 16 -10 8 -3 12 -2 9 4 -6 10 -25 14 -25 6z"/>
<path d="M3260 4080 c0 -5 4 -10 10 -10 5 0 15 -10 21 -22 9 -19 9 -21 -2 -10
-16 15 -29 16 -29 2 0 -5 6 -10 14 -10 8 0 17 -10 19 -22 l4 -23 2 23 c0 12 6
22 12 22 7 0 9 -9 5 -22 -19 -68 -19 -78 2 -78 12 0 23 -9 27 -22 l8 -23 4 25
c3 13 0 26 -6 28 -6 2 -8 9 -4 15 4 6 0 8 -10 4 -15 -6 -16 -1 -11 31 4 32 1
42 -25 70 -31 33 -41 39 -41 22z"/>
<path d="M2465 4056 c-27 -12 -67 -42 -87 -64 -34 -38 -38 -48 -38 -97 0 -101
45 -160 141 -186 145 -39 267 96 217 242 -18 54 -48 90 -92 110 -54 24 -81 24
-141 -5z m169 -72 c9 -8 14 -20 11 -25 -4 -5 -2 -9 3 -9 15 0 22 -39 12 -63
-5 -12 -9 -17 -10 -12 -1 6 -7 -10 -13 -35 -10 -37 -16 -45 -34 -44 -12 0 -20
-3 -18 -7 3 -4 -7 -10 -20 -13 -14 -4 -23 -11 -20 -16 3 -5 1 -11 -4 -14 -5
-4 -12 -2 -16 4 -3 5 -15 10 -25 10 -14 0 -18 5 -13 18 5 13 3 15 -7 5 -21
-19 -42 12 -48 68 -4 39 0 59 19 94 23 43 25 44 79 48 30 2 63 4 72 5 9 1 24
-5 32 -14z m36 -134 c0 -5 -5 -10 -11 -10 -5 0 -7 5 -4 10 3 6 8 10 11 10 2 0
4 -4 4 -10z m-80 -90 c8 -5 11 -10 5 -10 -5 0 -17 5 -25 10 -8 5 -10 10 -5 10
6 0 17 -5 25 -10z"/>
<path d="M2636 3917 c3 -10 9 -15 12 -12 3 3 0 11 -7 18 -10 9 -11 8 -5 -6z"/>
<path d="M2594 3828 l-19 -23 25 20 c14 11 27 21 29 22 2 2 0 3 -6 3 -5 0 -18
-10 -29 -22z"/>
<path d="M3222 3856 c7 -8 15 -12 17 -11 5 6 -10 25 -20 25 -5 0 -4 -6 3 -14z"/>
<path d="M3262 3856 c7 -8 15 -12 17 -11 5 6 -10 25 -20 25 -5 0 -4 -6 3 -14z"/>
<path d="M3325 3840 c3 -5 10 -10 16 -10 5 0 9 5 9 10 0 6 -7 10 -16 10 -8 0
-12 -4 -9 -10z"/>
<path d="M3397 3818 c-4 -12 -4 -24 -1 -27 8 -9 37 27 30 38 -11 17 -23 13
-29 -11z"/>
<path d="M3360 3809 c0 -5 5 -7 10 -4 6 3 10 8 10 11 0 2 -4 4 -10 4 -5 0 -10
-5 -10 -11z"/>
<path d="M3442 3790 c0 -14 2 -19 5 -12 2 6 2 18 0 25 -3 6 -5 1 -5 -13z"/>
<path d="M3347 3766 c-4 -10 -5 -21 -2 -24 9 -9 17 6 13 25 -3 17 -4 17 -11
-1z"/>
<path d="M3451 3698 c17 -34 19 -34 19 -5 0 18 -5 27 -15 27 -13 0 -14 -4 -4
-22z"/>
<path d="M3380 3700 c0 -5 7 -7 15 -4 8 4 15 8 15 10 0 2 -7 4 -15 4 -8 0 -15
-4 -15 -10z"/>
<path d="M3420 3691 c0 -5 5 -13 10 -16 6 -3 10 -2 10 4 0 5 -4 13 -10 16 -5
3 -10 2 -10 -4z"/>
<path d="M3414 3649 c14 -17 26 -35 26 -41 0 -6 3 -9 6 -6 10 11 -34 78 -51
78 -4 0 5 -14 19 -31z"/>
<path d="M3461 3584 c0 -11 3 -14 6 -6 3 7 2 16 -1 19 -3 4 -6 -2 -5 -13z"/>
<path d="M3482 3444 c-1 -17 -4 -47 -7 -65 l-5 -34 11 34 c5 18 8 47 6 65 l-4
31 -1 -31z"/>
<path d="M3500 3389 c0 -11 4 -18 10 -14 5 3 7 12 3 20 -7 21 -13 19 -13 -6z"/>
<path d="M1922 3351 c-51 -13 -189 -100 -255 -161 -69 -63 -90 -103 -82 -157
3 -21 7 -76 8 -123 5 -141 61 -226 194 -294 260 -131 563 53 563 342 0 161
-79 301 -205 363 -69 33 -160 46 -223 30z m18 -117 c0 -4 -8 -13 -17 -21 -16
-13 -16 -14 7 -8 25 6 25 6 5 -11 -20 -16 -20 -16 5 -10 172 49 312 -30 349
-196 6 -27 6 -47 0 -52 -6 -6 -9 -3 -10 10 0 10 -3 14 -5 7 -3 -7 -1 -20 4
-30 6 -12 5 -28 -5 -48 l-13 -30 5 31 c4 22 0 37 -14 55 l-20 24 4 -24 c5 -30
-10 -59 -38 -72 -19 -8 -18 -9 6 -4 19 4 26 2 22 -5 -3 -5 -1 -10 5 -10 7 0 7
-7 -1 -22 -8 -16 -9 -23 -1 -26 6 -2 9 -9 6 -17 -4 -11 -9 -10 -24 5 -9 9 -19
22 -21 28 -2 6 -9 0 -16 -14 -10 -22 -10 -24 8 -19 11 4 19 2 19 -4 0 -6 -7
-11 -15 -11 -14 0 -20 -12 -16 -34 1 -5 -5 -6 -14 -3 -10 4 -15 0 -15 -12 0
-10 -9 -21 -20 -24 -11 -3 -20 -1 -20 5 0 6 -7 8 -15 4 -8 -3 -15 -1 -15 4 0
5 -7 7 -15 4 -8 -4 -15 -12 -15 -20 0 -20 -17 -17 -29 4 -10 16 -10 16 -11 -1
0 -11 9 -21 20 -24 11 -3 20 -9 20 -14 0 -11 -7 -11 -50 -3 -22 5 -28 9 -18
15 11 7 10 11 -2 18 -10 7 -19 6 -30 -4 -18 -16 -36 -8 -88 39 -52 47 -64 84
-63 203 1 57 2 106 3 111 4 15 -29 65 -36 53 -4 -6 -2 -11 3 -11 6 0 11 -15
11 -32 -1 -33 -1 -33 -16 10 -15 41 -14 43 15 85 35 50 62 74 105 93 33 14 66
18 66 8z m-219 -207 c-10 -9 -11 -8 -5 6 3 10 9 15 12 12 3 -3 0 -11 -7 -18z
m533 -152 c-4 -17 -10 -23 -16 -17 -6 6 -5 17 3 30 17 27 22 22 13 -13z m-169
-205 c3 -5 -1 -10 -10 -10 -9 0 -13 5 -10 10 3 6 8 10 10 10 2 0 7 -4 10 -10z"/>
<path d="M1836 3167 c3 -10 9 -15 12 -12 3 3 0 11 -7 18 -10 9 -11 8 -5 -6z"/>
<path d="M1795 3081 c-3 -5 -2 -12 3 -15 5 -3 9 1 9 9 0 17 -3 19 -12 6z"/>
<path d="M2215 2970 c3 -5 8 -10 11 -10 2 0 4 5 4 10 0 6 -5 10 -11 10 -5 0
-7 -4 -4 -10z"/>
<path d="M2155 2830 c-3 -5 -1 -10 4 -10 6 0 11 5 11 10 0 6 -2 10 -4 10 -3 0
-8 -4 -11 -10z"/>
<path d="M2196 2825 c4 -8 10 -12 15 -9 14 8 10 24 -6 24 -9 0 -12 -6 -9 -15z"/>
<path d="M2110 2765 c0 -10 -6 -15 -13 -12 -7 3 -13 -3 -13 -12 0 -14 4 -15
22 -7 12 6 20 15 17 20 -4 5 1 6 11 3 12 -5 16 -3 14 5 -7 20 -38 22 -38 3z"/>
<path d="M1890 2706 c0 -2 7 -7 16 -10 8 -3 12 -2 9 4 -6 10 -25 14 -25 6z"/>
<path d="M3491 3335 c0 -11 4 -27 9 -35 6 -10 10 -11 10 -2 0 21 18 13 23 -10
4 -22 4 -22 6 -2 0 12 -6 27 -14 34 -12 10 -15 10 -16 -1 -1 -8 -5 -3 -9 11
-7 21 -8 21 -9 5z"/>
<path d="M3451 3244 c0 -11 3 -14 6 -6 3 7 2 16 -1 19 -3 4 -6 -2 -5 -13z"/>
<path d="M3520 3241 c0 -7 -4 -9 -10 -6 -6 4 -7 -1 -3 -11 6 -15 7 -15 15 1 6
9 7 19 4 22 -3 4 -6 1 -6 -6z"/>
<path d="M3520 3165 c0 -5 5 -17 10 -25 5 -8 10 -10 10 -5 0 6 -5 17 -10 25
-5 8 -10 11 -10 5z"/>
<path d="M3422 3135 c0 -16 2 -22 5 -12 2 9 2 23 0 30 -3 6 -5 -1 -5 -18z"/>
<path d="M3245 2779 c-4 -6 -5 -12 -2 -15 2 -3 7 2 10 11 7 17 1 20 -8 4z"/>
<path d="M3160 2659 c0 -5 5 -7 10 -4 6 3 10 8 10 11 0 2 -4 4 -10 4 -5 0 -10
-5 -10 -11z"/>
<path d="M1129 2147 c-123 -64 -113 -243 16 -292 84 -33 170 1 206 79 69 153
-74 290 -222 213z m57 -46 c-3 -5 15 -6 40 -3 43 5 48 3 80 -33 38 -43 43 -75
17 -101 -17 -17 -17 -18 0 -11 20 8 21 0 3 -32 -9 -16 -16 -20 -20 -12 -11 17
-37 -6 -29 -25 14 -38 -102 -2 -137 43 -19 24 -21 36 -15 80 4 35 3 53 -4 53
-22 0 -10 18 22 34 36 18 51 20 43 7z m-73 -76 c-7 -21 -12 -19 -10 4 0 11 5
18 9 15 4 -3 5 -11 1 -19z"/>
<path d="M3160 2095 c0 -9 -11 -27 -25 -41 l-24 -24 -16 30 c-9 16 -20 30 -26
30 -7 0 -4 -12 7 -27 19 -29 62 -77 50 -55 -5 8 4 24 23 41 30 28 41 61 21 61
-5 0 -10 -7 -10 -15z"/>
<path d="M3111 2084 c0 -11 3 -14 6 -6 3 7 2 16 -1 19 -3 4 -6 -2 -5 -13z"/>
<path d="M2357 1981 c-65 -21 -97 -45 -97 -71 0 -10 -7 -37 -15 -60 -12 -33
-13 -51 -5 -81 12 -45 60 -103 101 -125 36 -18 132 -18 167 0 120 62 137 250
30 329 -37 28 -111 31 -181 8z m99 -45 c3 -8 18 -18 34 -21 15 -3 37 -16 49
-29 l22 -24 -83 -58 c-115 -82 -126 -88 -144 -73 -20 16 -17 59 7 114 22 51
21 65 -5 40 -9 -9 -16 -12 -16 -7 0 10 37 45 65 60 28 16 65 15 71 -2z m79
-171 c0 -23 -34 -33 -45 -14 -13 20 1 40 24 37 13 -2 21 -10 21 -23z m-75 -20
c0 -8 -7 -15 -15 -15 -8 0 -15 7 -15 15 0 8 7 15 15 15 8 0 15 -7 15 -15z"/>
<path d="M2420 1930 c-23 -7 -23 -8 -3 -9 12 -1 25 4 28 9 3 6 5 10 3 9 -2 -1
-14 -5 -28 -9z"/>
<path d="M1983 1514 c-7 -20 17 -37 34 -23 15 13 6 39 -13 39 -8 0 -17 -7 -21
-16z"/>
</g>
</svg>
