<?xml version="1.0" standalone="no"?>
<!DOCTYPE svg PUBLIC "-//W3C//DTD SVG 20010904//EN"
 "http://www.w3.org/TR/2001/REC-SVG-20010904/DTD/svg10.dtd">
<svg version="1.0" xmlns="http://www.w3.org/2000/svg"
 width="500.000000pt" height="500.000000pt" viewBox="0 0 500.000000 500.000000"
 preserveAspectRatio="xMidYMid meet">

<g transform="translate(0.000000,500.000000) scale(0.100000,-0.100000)"
fill="#000000" stroke="none">
<path d="M2015 4180 c-143 -29 -251 -105 -309 -218 -11 -21 -31 -38 -57 -48
-21 -9 -48 -28 -58 -43 -41 -58 -38 -203 5 -267 24 -34 24 -36 9 -88 -9 -30
-18 -88 -20 -131 -2 -43 -6 -79 -8 -81 -2 -2 -25 -8 -50 -13 l-46 -8 -29 44
c-26 40 -28 49 -25 124 4 84 -10 129 -41 129 -9 0 -17 18 -21 51 -6 46 -32 89
-52 89 -14 0 -30 -15 -42 -38 l-13 -24 -23 22 c-14 13 -33 20 -47 18 -21 -3
-23 -7 -23 -67 0 -57 -3 -67 -27 -92 -42 -41 -36 -89 16 -149 25 -28 43 -71
75 -175 58 -193 178 -286 348 -271 l74 6 -6 -73 c-11 -132 -10 -130 -60 -151
-56 -23 -86 -64 -120 -166 l-25 -75 -79 -28 c-111 -39 -343 -158 -487 -250
-137 -87 -292 -203 -308 -230 -9 -16 1 -30 74 -99 484 -457 1061 -716 1602
-718 l87 0 53 -47 c173 -153 370 -250 581 -283 174 -28 519 11 551 63 14 23 0
34 -113 96 -94 51 -228 156 -283 222 l-39 46 30 44 c23 36 38 47 75 57 32 8
62 27 98 63 71 68 84 73 150 46 43 -17 73 -21 163 -21 105 0 195 15 195 33 0
4 -10 13 -22 19 -22 10 -22 11 -2 11 63 2 189 48 344 125 135 67 188 88 246
97 41 7 74 18 74 24 0 40 -328 228 -510 292 -85 30 -100 43 -49 43 51 0 28 22
-57 54 -70 26 -92 30 -189 30 -76 0 -123 -4 -151 -15 -38 -14 -43 -14 -74 2
-19 10 -50 40 -70 66 -23 31 -55 57 -90 75 -42 21 -59 36 -77 71 l-22 45 47
44 c26 24 76 63 111 87 66 45 226 125 274 136 30 8 50 34 39 52 -27 43 -342
122 -485 123 -13 0 -17 5 -13 18 4 10 2 43 -4 73 -12 67 -56 113 -118 124 -34
5 -42 11 -47 35 -7 32 -29 55 -44 45 -6 -3 -18 -21 -27 -40 -23 -49 -50 -46
-186 23 -167 85 -178 94 -178 147 0 32 -7 51 -26 74 l-25 31 43 50 c31 36 53
52 78 56 19 4 42 10 51 15 38 20 82 187 66 251 -4 14 -18 37 -33 53 l-26 28
18 119 c12 82 23 125 36 140 10 12 17 26 15 32 -6 17 -34 29 -52 23 -13 -6
-15 -14 -10 -46 8 -46 -24 -263 -38 -258 -5 1 -16 22 -24 47 -46 134 -178 241
-343 276 -71 15 -162 16 -225 4z m237 -25 c146 -38 238 -106 293 -218 104
-210 19 -478 -191 -597 -214 -123 -492 -45 -620 173 -62 106 -78 212 -49 335
38 160 146 268 308 308 73 17 188 17 259 -1z m-575 -268 c-27 -70 -31 -176
-11 -274 l6 -33 -31 11 c-17 6 -31 16 -32 22 0 7 0 66 1 132 1 108 3 122 22
138 24 20 52 23 45 4z m967 -79 l25 -23 -16 -95 c-8 -52 -16 -106 -17 -120 -2
-36 -12 -47 -46 -52 -25 -4 -30 -2 -24 11 26 58 45 163 42 229 -2 39 0 72 4
72 4 0 18 -10 32 -22z m-1307 -139 c7 -13 13 -38 13 -55 0 -25 -6 -33 -35 -47
-37 -18 -48 -53 -20 -63 10 -4 13 -14 9 -33 l-5 -26 14 24 c8 14 23 28 33 32
16 6 14 8 -8 8 -61 2 -35 51 28 51 35 0 44 -13 44 -65 0 -53 -15 -81 -56 -100
-111 -52 -224 -7 -224 89 0 27 42 66 71 66 26 0 42 -36 35 -79 -5 -26 -4 -32
3 -21 26 38 2 120 -35 120 -7 0 -15 8 -18 18 -13 46 -15 78 -6 92 14 22 68
-33 77 -79 l6 -36 11 55 c18 86 37 101 63 49z m355 -123 c18 -26 9 -35 -24
-23 -18 6 -34 12 -36 13 -1 1 0 9 4 18 7 18 43 13 56 -8z m-19 -40 c15 -12 17
-22 12 -60 -7 -46 -7 -46 -47 -46 -39 0 -39 1 -34 30 3 17 9 44 12 60 6 33 27
39 57 16z m56 -77 c-29 -22 -36 -8 -19 36 l11 28 16 -23 c15 -21 15 -24 -8
-41z m71 -49 c0 -13 -7 -16 -29 -12 -16 2 -38 -1 -50 -7 -32 -17 -27 5 9 41
30 29 32 30 50 13 11 -10 20 -26 20 -35z m-410 -10 c-27 -20 -151 -46 -175
-36 -32 12 -13 23 33 19 34 -2 63 3 102 20 62 26 77 25 40 -3z m274 14 c9 -3
16 -16 16 -29 0 -17 -9 -26 -31 -34 -18 -6 -36 -11 -40 -11 -10 0 -12 64 -2
73 8 9 36 9 57 1z m335 -104 c108 -34 232 -24 335 25 28 13 52 22 55 19 7 -7
-30 -33 -87 -61 -142 -67 -402 -21 -470 85 -12 19 -6 17 44 -13 33 -20 88 -45
123 -55z m484 52 c23 -39 17 -50 -15 -28 -12 9 -33 16 -45 16 -27 0 -29 7 -6
32 23 25 43 19 66 -20z m-1033 -37 c23 -36 44 -65 45 -65 2 0 1 8 -1 18 -4 14
8 20 77 35 45 11 87 21 93 23 8 3 11 -46 11 -161 l0 -164 -48 -11 c-81 -17
-94 -14 -113 25 -9 20 -29 44 -44 55 -29 21 -99 39 -140 37 -19 -2 -29 7 -48
40 -25 46 -64 171 -57 183 2 4 31 10 63 13 33 2 72 12 88 21 16 8 30 15 30 16
1 0 21 -29 44 -65z m333 17 c0 -18 -3 -35 -5 -36 -1 -2 -20 -1 -41 2 -33 4
-37 7 -31 26 11 35 26 47 53 44 23 -3 26 -7 24 -36z m141 -62 c23 -10 67 -23
99 -30 l59 -12 -7 -76 c-3 -43 -8 -94 -11 -115 l-6 -38 -88 7 c-82 6 -89 5
-99 -14 -6 -11 -11 -32 -11 -45 0 -23 -4 -25 -67 -30 -38 -3 -70 -3 -73 -1 -8
8 26 184 60 311 l33 123 35 -32 c20 -17 54 -39 76 -48z m541 40 c4 -6 10 -24
15 -40 8 -30 8 -30 -30 -30 -42 0 -57 21 -45 60 7 21 49 28 60 10z m-65 -187
c13 -135 13 -250 1 -258 -6 -3 -37 2 -70 11 -61 17 -61 17 -61 55 0 46 -19 59
-83 59 -25 0 -59 3 -76 6 l-32 7 6 76 c3 42 8 92 11 112 l5 36 81 6 c62 4 94
12 137 34 l56 29 7 -33 c4 -18 12 -81 18 -140z m-636 149 c3 -5 2 -22 -3 -38
-6 -23 -14 -30 -39 -32 -31 -3 -32 -2 -32 37 0 40 1 41 34 41 19 0 37 -4 40
-8z m724 -57 c2 -2 0 -19 -3 -39 -7 -32 -10 -36 -36 -34 -24 2 -30 8 -35 36
-8 40 8 55 46 46 14 -3 26 -7 28 -9z m117 -35 c49 -27 113 -59 142 -71 42 -17
53 -25 47 -38 -19 -47 -26 -92 -22 -153 2 -37 1 -68 -2 -68 -3 0 -17 16 -33
35 -47 59 -151 71 -199 23 -20 -20 -22 -20 -55 -4 -29 14 -34 21 -29 39 32
107 46 179 46 229 0 32 4 58 8 58 5 0 49 -22 97 -50z m-870 -1 c4 -6 4 -26 1
-45 -5 -25 -12 -34 -26 -34 -17 0 -20 7 -20 45 0 38 3 45 19 45 11 0 23 -5 26
-11z m1190 -40 c4 -11 4 -37 1 -57 -5 -29 -4 -33 4 -19 21 33 114 10 145 -36
36 -55 28 -173 -14 -211 -17 -16 -20 -16 -36 0 -14 15 -17 31 -13 98 4 76 4
79 -8 41 -7 -22 -13 -59 -13 -81 -1 -47 -11 -54 -69 -54 -46 1 -67 17 -87 63
-23 57 -19 107 15 168 17 30 35 66 41 82 13 32 25 35 34 6z m-452 -43 c-3 -45
-10 -55 -32 -49 -17 4 -21 13 -21 45 0 37 2 39 28 36 23 -3 27 -7 25 -32z
m-753 -33 c0 -34 -20 -70 -20 -38 0 11 -3 30 -6 43 -5 16 -2 22 10 22 11 0 16
-9 16 -27z m1104 -19 c-20 -30 -25 -128 -10 -178 6 -20 6 -27 -2 -22 -6 3 -15
29 -21 56 -12 58 0 133 26 162 23 26 28 14 7 -18z m-370 -36 c-14 -48 -23 -54
-24 -15 0 27 4 37 16 37 11 0 14 -6 8 -22z m-448 -100 c-4 -46 -10 -98 -13
-116 l-6 -34 -51 7 c-28 4 -55 10 -60 13 -9 5 0 187 10 203 3 5 32 9 66 9 l61
0 -7 -82z m-306 37 c0 -20 -7 -47 -16 -60 -13 -20 -14 -31 -5 -56 16 -46 14
-59 -9 -59 -16 0 -19 5 -15 28 2 15 7 62 11 105 4 57 9 77 20 77 9 0 14 -12
14 -35z m544 18 c9 -6 1 -180 -10 -207 -6 -15 -25 -15 -171 0 l-52 5 5 67 c3
37 7 87 10 111 l6 43 101 -7 c56 -4 106 -9 111 -12z m-388 -79 c-3 -9 -6 -21
-6 -28 0 -8 -18 -16 -42 -19 -24 -4 -57 -9 -74 -13 -26 -5 -32 -2 -37 15 -10
41 20 58 112 60 45 1 52 -2 47 -15z m599 6 c3 -5 3 -48 -1 -95 -6 -74 -9 -85
-25 -85 -23 0 -25 32 -4 50 17 14 20 61 4 77 -5 5 -7 22 -3 37 6 27 18 33 29
16z m242 -67 c76 -6 76 -7 42 -18 -40 -14 -148 -68 -199 -99 -51 -32 -70 -24
-70 27 0 23 3 65 6 92 l6 51 69 -23 c37 -13 103 -26 146 -30z m-328 22 c40
-13 57 -35 47 -60 -7 -18 -8 -18 -98 7 -58 17 -61 19 -52 52 6 24 10 26 37 20
17 -3 47 -12 66 -19z m883 0 c37 -4 80 -11 95 -16 l28 -9 -30 5 c-16 3 -76 8
-132 11 -56 4 -100 11 -97 16 3 5 20 6 37 4 18 -3 62 -8 99 -11z m-1402 -47
c0 -13 4 -29 8 -36 9 -13 349 -46 377 -36 8 3 18 17 21 30 7 29 23 30 87 7 58
-21 67 -52 15 -54 -22 -1 -11 -5 32 -13 l65 -11 6 -58 c8 -71 51 -146 96 -167
32 -15 43 -35 42 -80 0 -21 -11 -30 -62 -54 -35 -17 -87 -54 -119 -86 -52 -50
-59 -54 -64 -36 -2 12 -13 64 -23 116 -11 52 -20 82 -20 67 -1 -27 -3 -28 -33
-22 -18 4 -57 16 -86 27 -43 16 -51 22 -41 34 9 12 6 12 -20 3 -43 -15 -159
-7 -200 14 -41 21 -47 21 -32 3 10 -11 3 -16 -36 -25 -26 -6 -66 -12 -88 -13
-37 -3 -40 -1 -37 22 2 22 -17 -22 -64 -148 l-16 -43 -29 44 c-34 52 -117 132
-154 149 -28 13 -29 18 -14 71 7 27 15 37 30 37 50 0 126 93 138 169 6 34 9
36 48 39 23 2 59 -2 80 -7 20 -6 39 -9 41 -6 2 2 -14 9 -37 15 -47 12 -58 46
-18 54 12 3 31 7 42 9 50 11 65 7 65 -15z m1008 7 c-1 -6 -39 -24 -83 -40 -44
-17 -113 -49 -153 -73 -68 -39 -92 -45 -92 -22 0 14 159 97 240 124 76 26 94
28 88 11z m68 -24 c-3 -5 -18 -11 -33 -14 -26 -5 -26 -4 -8 9 21 15 49 19 41
5z m-128 -251 c125 -31 259 -73 305 -97 58 -29 106 -199 114 -407 3 -81 2
-137 -3 -134 -5 3 -119 13 -254 23 -135 9 -251 19 -259 21 -8 3 6 25 42 64 57
61 97 144 97 199 0 66 -67 119 -152 120 -31 1 -39 6 -53 34 -9 17 -20 66 -26
107 -5 41 -12 83 -15 94 -6 17 -2 18 41 12 25 -4 99 -20 163 -36z m-1368 -55
c0 -3 -9 -19 -21 -34 -20 -27 -23 -28 -62 -18 l-42 11 50 22 c50 23 75 29 75
19z m51 -64 c61 -39 117 -98 145 -152 l23 -46 -20 -54 c-11 -30 -27 -74 -36
-98 l-16 -45 -13 52 c-26 99 -126 226 -207 263 -51 23 -79 24 -117 4 -28 -14
-30 -14 -30 3 0 10 12 29 26 43 36 34 125 34 174 -1 28 -19 32 -20 18 -4 -16
19 -15 64 1 64 4 0 27 -13 52 -29z m559 -10 c53 -4 120 -18 177 -36 l91 -30
31 -165 c17 -91 36 -180 42 -198 6 -17 7 -41 4 -53 -11 -33 2 -65 32 -79 21
-9 132 -16 413 -23 212 -5 387 -11 389 -13 2 -2 -2 -41 -9 -86 -29 -203 -106
-409 -158 -429 -105 -40 -328 -76 -545 -89 -422 -24 -783 42 -1129 207 l-116
55 -7 157 c-7 142 0 450 10 460 3 2 24 -14 49 -37 45 -42 102 -75 146 -85 23
-6 27 -14 37 -77 18 -120 104 -220 213 -250 54 -15 140 -12 195 7 68 24 156
111 178 177 21 62 22 158 1 219 -46 135 -217 224 -360 188 -25 -7 -47 -11 -49
-9 -1 2 11 40 28 85 l29 82 47 6 c25 4 69 13 96 20 28 7 57 10 65 7 8 -3 53
-8 100 -11z m-844 -46 c-7 -20 -17 -39 -22 -44 -5 -5 -76 -43 -159 -86 -82
-43 -185 -98 -229 -122 -43 -23 -80 -43 -82 -43 -3 0 -23 -12 -45 -26 -78 -49
-48 -17 54 57 136 100 244 168 380 239 61 33 113 60 113 60 1 0 -4 -16 -10
-35z m1409 -72 l-30 -25 44 22 c63 31 135 23 174 -20 15 -17 27 -40 27 -51 0
-20 0 -20 -31 2 -70 49 -169 17 -279 -92 -60 -60 -74 -81 -94 -143 -4 -10 -9
-16 -13 -13 -7 8 -32 141 -32 179 -1 42 86 130 172 173 l72 36 9 -22 c9 -18 5
-26 -19 -46z m-1239 22 c13 -8 24 -19 24 -23 0 -9 -135 -102 -148 -102 -16 0
-37 90 -25 109 26 42 98 50 149 16z m1911 -30 c21 -18 50 -55 65 -81 31 -58
57 -177 55 -254 l-2 -55 -42 3 c-23 2 -55 7 -70 11 -26 7 -28 11 -30 64 -2 70
-30 269 -43 303 -24 61 2 65 67 9z m-1837 -30 l24 -25 -35 -36 c-19 -19 -56
-49 -83 -66 l-49 -32 -23 30 c-13 16 -24 32 -24 36 0 6 150 116 161 117 3 1
16 -10 29 -24z m-340 -9 c0 -2 -7 -7 -16 -10 -8 -3 -12 -2 -9 4 6 10 25 14 25
6z m1655 -30 c51 -22 60 -47 36 -101 -11 -25 -24 -45 -30 -45 -16 0 -132 112
-128 124 3 10 58 34 80 35 4 1 23 -5 42 -13z m-895 -6 c19 -6 12 -8 -32 -9
-44 -1 -71 -9 -122 -35 -36 -19 -66 -33 -66 -31 0 2 4 15 10 29 16 42 139 69
210 46z m-360 -36 l22 -35 -27 -29 c-14 -15 -46 -42 -70 -59 l-44 -31 -36 31
-36 32 48 32 c26 18 62 46 78 63 17 17 33 31 37 31 3 1 16 -15 28 -35z m-520
11 c0 -2 -15 -12 -32 -20 l-33 -16 24 21 c22 19 41 26 41 15z m2788 -20 c34
-10 62 -22 62 -27 0 -6 -8 -7 -17 -3 -67 26 -144 37 -223 32 -47 -3 -96 -8
-110 -12 -17 -5 -22 -4 -15 3 32 33 196 37 303 7z m-1083 -54 l67 -64 -31 -31
-31 -30 -61 59 c-81 80 -86 91 -57 115 13 11 28 19 35 17 6 -1 41 -31 78 -66z
m752 27 c25 -26 57 -97 49 -106 -3 -3 -6 1 -6 8 0 7 -20 32 -44 54 -47 44 -74
96 -39 78 10 -6 28 -21 40 -34z m-1521 -47 c62 -45 93 -131 74 -203 -39 -144
-202 -199 -315 -105 -84 69 -87 177 -5 269 21 25 54 50 72 56 53 18 138 10
174 -17z m685 -42 c74 -78 76 -86 17 -110 -31 -13 -32 -12 -85 47 -29 32 -53
63 -53 67 0 11 39 67 47 67 3 0 37 -32 74 -71z m-1057 26 c4 -20 4 -45 1 -56
-12 -37 -73 -45 -128 -17 -16 8 -14 12 20 37 21 16 47 38 57 50 27 30 43 26
50 -14z m2121 -5 c37 -16 45 -24 37 -32 -9 -9 17 -26 106 -69 118 -57 242
-135 249 -156 2 -6 -13 -14 -39 -18 -24 -3 -105 -38 -180 -76 -75 -38 -144
-69 -153 -69 -10 0 -13 -5 -9 -11 5 -8 -1 -10 -19 -7 -17 3 -24 1 -20 -7 2 -7
-6 -15 -19 -18 -37 -9 -148 -20 -148 -15 0 3 9 25 19 49 11 24 25 74 32 112
l12 67 58 0 c93 0 87 32 -8 45 l-53 7 0 52 c0 29 -7 75 -15 102 -23 77 -23 78
43 71 33 -4 81 -16 107 -27z m227 -6 c56 -20 149 -58 204 -85 103 -50 277
-159 291 -182 8 -13 -30 10 -82 48 -90 67 -338 185 -460 220 -33 10 -64 21
-69 26 -18 16 10 10 116 -27z m-443 3 c0 -9 -2 -8 -6 1 -2 6 -10 9 -15 6 -7
-4 -8 -2 -4 5 9 13 26 5 25 -12z m-879 -148 c0 -13 -68 -19 -96 -9 -37 15 -45
28 -38 65 15 72 22 73 80 9 29 -33 53 -62 54 -65z m893 88 c3 -8 -1 -14 -8
-14 -7 0 -11 6 -8 14 3 7 6 13 8 13 2 0 5 -6 8 -13z m-1886 -225 c21 -43 21
-43 1 -25 -28 24 -55 87 -64 147 -6 42 -4 51 12 63 18 13 19 10 24 -64 3 -52
12 -93 27 -121z m1283 128 c257 -18 525 -42 530 -47 6 -6 -303 5 -323 12 -6 2
-84 9 -172 15 -216 14 -266 20 -259 32 3 5 22 7 43 4 20 -3 101 -10 181 -16z
m530 -124 c0 -86 -79 -292 -107 -282 -8 4 -11 1 -7 -5 8 -13 -31 -55 -70 -74
-35 -18 -46 -19 -46 -4 0 6 7 8 16 5 14 -5 15 -4 4 9 -7 8 -9 15 -4 15 5 0 10
10 10 23 1 12 7 40 13 62 23 82 43 191 43 223 -1 17 3 32 9 32 6 0 8 4 5 8 -3
5 26 10 64 11 68 2 70 2 70 -23z"/>
<path d="M2015 4034 c-11 -2 -45 -9 -75 -15 -30 -6 -81 -25 -113 -41 -51 -26
-62 -36 -84 -84 -49 -107 -39 -263 22 -368 38 -65 126 -143 201 -178 129 -60
271 -45 402 42 112 75 171 178 179 315 6 92 -7 151 -42 193 -32 38 -143 96
-222 116 -63 17 -230 29 -268 20z m227 -29 c86 -18 191 -65 232 -103 31 -30
56 -79 56 -113 0 -16 -6 -11 -23 21 -18 35 -37 52 -93 82 -99 54 -163 70 -294
76 -179 7 -313 -36 -357 -114 -29 -50 -31 -18 -3 36 30 59 114 104 230 123 59
10 184 6 252 -8z m-264 -107 c-5 -15 -68 -24 -68 -10 0 15 13 22 43 22 18 0
27 -4 25 -12z m-118 -56 c0 -5 -9 -27 -20 -51 -12 -23 -26 -72 -33 -108 -13
-72 -27 -83 -40 -31 -13 48 8 131 43 168 27 29 50 39 50 22z"/>
<path d="M1917 2933 c-13 -12 -7 -41 10 -47 21 -8 48 17 40 38 -6 16 -38 22
-50 9z"/>
<path d="M1904 2816 c-10 -26 4 -48 28 -44 17 2 23 10 23 28 0 18 -6 26 -23
28 -13 2 -25 -3 -28 -12z"/>
<path d="M2056 2904 c-3 -9 -6 -42 -6 -74 l0 -57 38 -7 c58 -9 120 -7 127 5 4
6 9 37 12 69 6 57 5 60 -21 70 -44 17 -143 13 -150 -6z m47 -11 c-12 -2 -24
-12 -26 -21 -3 -12 -5 -10 -6 6 -1 18 4 22 27 21 22 -1 23 -2 5 -6z"/>
<path d="M3295 1530 c3 -5 8 -10 11 -10 2 0 4 5 4 10 0 6 -5 10 -11 10 -5 0
-7 -4 -4 -10z"/>
<path d="M3230 1430 c-8 -5 -12 -12 -9 -15 4 -3 12 1 19 10 14 17 11 19 -10 5z"/>
</g>
</svg>
