<?xml version="1.0" standalone="no"?>
<!DOCTYPE svg PUBLIC "-//W3C//DTD SVG 20010904//EN"
 "http://www.w3.org/TR/2001/REC-SVG-20010904/DTD/svg10.dtd">
<svg version="1.0" xmlns="http://www.w3.org/2000/svg"
 width="408.000000pt" height="612.000000pt" viewBox="0 0 408.000000 612.000000"
 preserveAspectRatio="xMidYMid meet">

<g transform="translate(0.000000,612.000000) scale(0.100000,-0.100000)"
fill="#000000" stroke="none">
<path d="M1784 5782 c-103 -75 -267 -295 -362 -487 -66 -133 -148 -362 -139
-388 2 -6 9 12 16 41 7 28 17 54 22 57 5 3 26 2 46 -4 21 -5 50 -12 65 -15
l26 -6 -24 -87 c-70 -254 -125 -612 -145 -954 -24 -410 26 -881 136 -1256 19
-67 35 -125 35 -128 0 -3 -28 -5 -62 -3 -59 3 -62 4 -70 33 -4 17 -4 31 1 33
4 1 16 8 25 15 15 11 14 29 -14 237 -41 309 -37 293 -82 269 -11 -6 -21 -9
-23 -7 -6 5 -45 359 -47 420 -1 53 -2 53 -5 9 -3 -24 5 -134 17 -244 l22 -201
-20 -16 c-11 -8 -46 -31 -79 -50 -32 -19 -99 -76 -149 -125 -72 -72 -98 -105
-126 -165 -48 -100 -62 -167 -55 -254 6 -72 238 -907 259 -933 6 -7 32 -13 59
-13 38 0 49 4 49 15 0 9 -18 91 -40 183 -61 249 -100 457 -100 529 0 102 57
188 185 278 72 51 96 60 107 43 11 -18 10 -76 -2 -83 -5 -3 -10 -12 -10 -18 0
-7 5 -4 11 6 9 15 28 17 159 17 l149 0 5 -33 c3 -17 7 -82 10 -144 l5 -112
-24 9 c-69 26 -140 112 -169 203 -4 14 -17 17 -75 17 -46 0 -71 4 -74 13 -3 6
-6 0 -6 -15 -1 -37 66 -328 80 -344 6 -7 25 -14 42 -16 30 -3 32 -5 37 -52 4
-44 8 -50 35 -59 17 -5 31 -11 33 -12 2 -2 -10 -28 -27 -59 -174 -326 -170
-715 11 -1171 67 -169 168 -368 208 -409 26 -26 36 -16 94 93 26 50 52 93 57
97 6 3 37 60 69 125 58 117 76 186 68 254 -3 27 -6 22 -30 -40 -44 -111 -220
-425 -239 -425 -10 0 -126 212 -172 315 -188 423 -207 809 -55 1133 36 75 61
94 120 90 l43 -3 9 -132 c5 -73 11 -133 15 -133 28 1 82 97 93 165 2 11 18 29
35 40 18 11 32 28 33 38 0 9 5 17 10 17 6 0 8 11 4 25 -10 41 3 75 30 75 15 0
33 12 50 35 l27 34 -34 -1 c-57 -2 -60 4 -52 102 5 60 3 90 -4 94 -6 4 -11 14
-11 22 0 8 -10 28 -22 45 -19 26 -21 34 -11 60 7 18 8 38 4 47 -5 10 -13 35
-18 57 -6 22 -24 87 -41 145 -48 164 -56 215 -56 362 -1 76 -5 138 -10 138
-20 0 -76 -73 -92 -122 -15 -47 -16 -80 -11 -300 l7 -248 -69 0 -68 0 -32 108
c-64 222 -104 425 -132 672 -17 149 -18 676 -1 830 29 260 60 443 118 675 19
76 36 140 38 142 1 1 29 -2 62 -8 178 -30 505 -21 692 20 59 13 85 15 87 7 2
-6 8 -27 14 -46 5 -19 10 -28 10 -19 2 40 -113 378 -125 366 -2 -2 11 -41 30
-88 19 -46 41 -107 49 -136 l16 -52 -37 -11 c-20 -5 -49 -10 -64 -10 l-28 0
20 20 c11 11 20 31 20 44 0 53 -67 319 -91 361 l-12 20 23 -20 c21 -19 21 -16
-5 30 -59 104 -133 203 -207 278 -42 42 -83 77 -91 77 -8 0 -32 -13 -53 -28z
m-461 -3337 c-3 -9 -8 -14 -10 -11 -3 3 -2 9 2 15 9 16 15 13 8 -4z m32 -5 c3
-5 -1 -10 -10 -10 -9 0 -13 5 -10 10 3 6 8 10 10 10 2 0 7 -4 10 -10z m-18
-112 c-3 -8 -6 -5 -6 6 -1 11 2 17 5 13 3 -3 4 -12 1 -19z m72 -180 c12 4 12
3 0 -10 -12 -14 -15 -14 -26 1 -7 9 -12 21 -12 26 0 6 5 3 12 -6 7 -9 18 -14
26 -11z m541 -12 c0 -2 -7 -7 -16 -10 -8 -3 -12 -2 -9 4 6 10 25 14 25 6z
m-296 -87 c4 -23 5 -44 2 -46 -8 -9 -106 9 -106 19 0 5 5 6 12 2 8 -5 9 -2 5
10 -11 28 14 56 49 56 29 0 32 -3 38 -41z m-114 -10 c0 -4 -7 -6 -15 -3 -8 4
-15 10 -15 15 0 4 7 6 15 3 8 -4 15 -10 15 -15z"/>
<path d="M2181 5360 c14 -31 19 -36 19 -24 0 6 -7 19 -16 30 -14 18 -14 18 -3
-6z"/>
<path d="M2341 4894 c0 -11 3 -14 6 -6 3 7 2 16 -1 19 -3 4 -6 -2 -5 -13z"/>
<path d="M1256 4826 c-9 -36 -16 -73 -15 -83 0 -10 9 18 20 61 11 43 18 81 15
83 -2 2 -11 -25 -20 -61z"/>
<path d="M2352 4855 c0 -11 4 -31 8 -45 6 -20 8 -21 8 -5 0 11 -4 31 -8 45 -6
20 -8 21 -8 5z"/>
<path d="M1701 4764 c-244 -65 -385 -318 -311 -556 54 -175 233 -307 415 -308
268 -1 482 251 435 512 -17 95 -59 175 -128 240 -117 112 -264 152 -411 112z
m294 -43 c213 -105 296 -360 189 -576 -30 -58 -102 -136 -159 -169 -113 -67
-278 -74 -396 -18 -211 101 -300 354 -199 569 96 205 359 295 565 194z"/>
<path d="M1770 4740 c0 -5 5 -10 10 -10 6 0 10 5 10 10 0 6 -4 10 -10 10 -5 0
-10 -4 -10 -10z"/>
<path d="M1820 4740 c0 -5 5 -10 10 -10 6 0 10 5 10 10 0 6 -4 10 -10 10 -5 0
-10 -4 -10 -10z"/>
<path d="M1720 4730 c0 -5 5 -10 10 -10 6 0 10 5 10 10 0 6 -4 10 -10 10 -5 0
-10 -4 -10 -10z"/>
<path d="M1870 4730 c0 -5 5 -10 10 -10 6 0 10 5 10 10 0 6 -4 10 -10 10 -5 0
-10 -4 -10 -10z"/>
<path d="M1670 4721 c0 -6 5 -13 10 -16 6 -3 10 1 10 9 0 9 -4 16 -10 16 -5 0
-10 -4 -10 -9z"/>
<path d="M1920 4720 c0 -5 5 -10 10 -10 6 0 10 5 10 10 0 6 -4 10 -10 10 -5 0
-10 -4 -10 -10z"/>
<path d="M1630 4700 c0 -5 5 -10 10 -10 6 0 10 5 10 10 0 6 -4 10 -10 10 -5 0
-10 -4 -10 -10z"/>
<path d="M1965 4700 c4 -6 11 -8 16 -5 14 9 11 15 -7 15 -8 0 -12 -5 -9 -10z"/>
<path d="M1699 4685 c-107 -34 -202 -128 -234 -232 -24 -75 -17 -200 14 -265
51 -107 143 -179 257 -203 164 -34 330 49 402 203 23 49 27 70 27 152 0 82 -4
103 -27 152 -34 73 -103 142 -176 176 -70 32 -190 40 -263 17z"/>
<path d="M1586 4681 c-4 -5 -2 -12 3 -15 5 -4 12 -2 15 3 4 5 2 12 -3 15 -5 4
-12 2 -15 -3z"/>
<path d="M2010 4680 c0 -5 5 -10 10 -10 6 0 10 5 10 10 0 6 -4 10 -10 10 -5 0
-10 -4 -10 -10z"/>
<path d="M1546 4651 c-4 -5 -2 -12 3 -15 5 -4 12 -2 15 3 4 5 2 12 -3 15 -5 4
-12 2 -15 -3z"/>
<path d="M2050 4650 c0 -5 5 -10 10 -10 6 0 10 5 10 10 0 6 -4 10 -10 10 -5 0
-10 -4 -10 -10z"/>
<path d="M2086 4621 c-4 -5 -2 -12 3 -15 5 -4 12 -2 15 3 4 5 2 12 -3 15 -5 4
-12 2 -15 -3z"/>
<path d="M1505 4610 c3 -5 10 -10 16 -10 5 0 9 5 9 10 0 6 -7 10 -16 10 -8 0
-12 -4 -9 -10z"/>
<path d="M2120 4580 c0 -5 5 -10 10 -10 6 0 10 5 10 10 0 6 -4 10 -10 10 -5 0
-10 -4 -10 -10z"/>
<path d="M1475 4570 c4 -6 11 -8 16 -5 14 9 11 15 -7 15 -8 0 -12 -5 -9 -10z"/>
<path d="M2146 4541 c-4 -5 -2 -12 3 -15 5 -4 12 -2 15 3 4 5 2 12 -3 15 -5 4
-12 2 -15 -3z"/>
<path d="M1450 4530 c0 -5 5 -10 10 -10 6 0 10 5 10 10 0 6 -4 10 -10 10 -5 0
-10 -4 -10 -10z"/>
<path d="M1430 4484 c0 -8 5 -12 10 -9 6 4 8 11 5 16 -9 14 -15 11 -15 -7z"/>
<path d="M2170 4490 c0 -5 5 -10 10 -10 6 0 10 5 10 10 0 6 -4 10 -10 10 -5 0
-10 -4 -10 -10z"/>
<path d="M2185 4449 c-10 -15 3 -25 16 -12 7 7 7 13 1 17 -6 3 -14 1 -17 -5z"/>
<path d="M1416 4441 c-4 -5 -2 -12 3 -15 5 -4 12 -2 15 3 4 5 2 12 -3 15 -5 4
-12 2 -15 -3z"/>
<path d="M2196 4401 c-4 -5 -2 -12 3 -15 5 -4 12 -2 15 3 4 5 2 12 -3 15 -5 4
-12 2 -15 -3z"/>
<path d="M1406 4391 c-4 -5 -2 -12 3 -15 5 -4 12 -2 15 3 4 5 2 12 -3 15 -5 4
-12 2 -15 -3z"/>
<path d="M2196 4351 c-4 -5 -2 -12 3 -15 5 -4 12 -2 15 3 4 5 2 12 -3 15 -5 4
-12 2 -15 -3z"/>
<path d="M1400 4340 c0 -5 5 -10 10 -10 6 0 10 5 10 10 0 6 -4 10 -10 10 -5 0
-10 -4 -10 -10z"/>
<path d="M2196 4301 c-4 -5 -2 -12 3 -15 5 -4 12 -2 15 3 4 5 2 12 -3 15 -5 4
-12 2 -15 -3z"/>
<path d="M1406 4291 c-4 -5 -2 -12 3 -15 5 -4 12 -2 15 3 4 5 2 12 -3 15 -5 4
-12 2 -15 -3z"/>
<path d="M2186 4251 c-4 -5 -2 -12 3 -15 5 -4 12 -2 15 3 4 5 2 12 -3 15 -5 4
-12 2 -15 -3z"/>
<path d="M1410 4240 c0 -5 4 -10 9 -10 6 0 13 5 16 10 3 6 -1 10 -9 10 -9 0
-16 -4 -16 -10z"/>
<path d="M2170 4200 c0 -5 5 -10 10 -10 6 0 10 5 10 10 0 6 -4 10 -10 10 -5 0
-10 -4 -10 -10z"/>
<path d="M1430 4190 c0 -5 5 -10 10 -10 6 0 10 5 10 10 0 6 -4 10 -10 10 -5 0
-10 -4 -10 -10z"/>
<path d="M1450 4151 c0 -6 5 -13 10 -16 6 -3 10 1 10 9 0 9 -4 16 -10 16 -5 0
-10 -4 -10 -9z"/>
<path d="M2150 4150 c0 -5 5 -10 10 -10 6 0 10 5 10 10 0 6 -4 10 -10 10 -5 0
-10 -4 -10 -10z"/>
<path d="M1480 4104 c0 -8 5 -12 10 -9 6 4 8 11 5 16 -9 14 -15 11 -15 -7z"/>
<path d="M2120 4110 c0 -5 4 -10 9 -10 6 0 13 5 16 10 3 6 -1 10 -9 10 -9 0
-16 -4 -16 -10z"/>
<path d="M1510 4071 c0 -6 5 -13 10 -16 6 -3 10 1 10 9 0 9 -4 16 -10 16 -5 0
-10 -4 -10 -9z"/>
<path d="M2090 4070 c0 -5 5 -10 10 -10 6 0 10 5 10 10 0 6 -4 10 -10 10 -5 0
-10 -4 -10 -10z"/>
<path d="M2055 4040 c-3 -5 1 -10 10 -10 9 0 13 5 10 10 -3 6 -8 10 -10 10 -2
0 -7 -4 -10 -10z"/>
<path d="M1550 4030 c0 -5 5 -10 10 -10 6 0 10 5 10 10 0 6 -4 10 -10 10 -5 0
-10 -4 -10 -10z"/>
<path d="M1590 4006 c0 -9 5 -16 10 -16 6 0 10 4 10 9 0 6 -4 13 -10 16 -5 3
-10 -1 -10 -9z"/>
<path d="M2016 4011 c-4 -5 -2 -12 3 -15 5 -4 12 -2 15 3 4 5 2 12 -3 15 -5 4
-12 2 -15 -3z"/>
<path d="M1975 3989 c-10 -15 3 -25 16 -12 7 7 7 13 1 17 -6 3 -14 1 -17 -5z"/>
<path d="M1630 3980 c0 -5 4 -10 9 -10 6 0 13 5 16 10 3 6 -1 10 -9 10 -9 0
-16 -4 -16 -10z"/>
<path d="M1926 3971 c-4 -5 -2 -12 3 -15 5 -4 12 -2 15 3 4 5 2 12 -3 15 -5 4
-12 2 -15 -3z"/>
<path d="M1680 3960 c0 -5 5 -10 10 -10 6 0 10 5 10 10 0 6 -4 10 -10 10 -5 0
-10 -4 -10 -10z"/>
<path d="M1730 3950 c0 -5 5 -10 10 -10 6 0 10 5 10 10 0 6 -4 10 -10 10 -5 0
-10 -4 -10 -10z"/>
<path d="M1776 3952 c-3 -6 -1 -14 5 -17 15 -10 25 3 12 16 -7 7 -13 7 -17 1z"/>
<path d="M1826 3951 c-4 -5 -2 -12 3 -15 5 -4 12 -2 15 3 4 5 2 12 -3 15 -5 4
-12 2 -15 -3z"/>
<path d="M1880 3950 c0 -5 5 -10 10 -10 6 0 10 5 10 10 0 6 -4 10 -10 10 -5 0
-10 -4 -10 -10z"/>
<path d="M2372 4750 c0 -14 2 -19 5 -12 2 6 2 18 0 25 -3 6 -5 1 -5 -13z"/>
<path d="M1222 4665 c-6 -33 -14 -87 -17 -120 -3 -38 2 -20 15 50 11 61 18
114 16 120 -1 5 -8 -17 -14 -50z"/>
<path d="M2382 4690 c0 -14 2 -19 5 -12 2 6 2 18 0 25 -3 6 -5 1 -5 -13z"/>
<path d="M2392 4620 c0 -14 2 -19 5 -12 2 6 2 18 0 25 -3 6 -5 1 -5 -13z"/>
<path d="M2402 4560 c0 -14 2 -19 5 -12 2 6 2 18 0 25 -3 6 -5 1 -5 -13z"/>
<path d="M1187 4428 c-4 -29 -8 -111 -11 -183 -5 -140 -2 -126 15 88 10 137 8
198 -4 95z"/>
<path d="M2423 4195 c0 -22 2 -30 4 -17 2 12 2 30 0 40 -3 9 -5 -1 -4 -23z"/>
<path d="M2424 3940 c0 -74 1 -105 3 -67 2 37 2 97 0 135 -2 37 -3 6 -3 -68z"/>
<path d="M1174 3705 c0 -55 1 -76 3 -47 2 29 2 74 0 100 -2 26 -3 2 -3 -53z"/>
<path d="M2270 3736 c-256 -57 -424 -190 -496 -393 -13 -38 -23 -79 -23 -93 0
-14 7 1 15 33 7 32 25 82 39 111 27 56 90 146 104 146 6 0 50 -71 69 -111 1
-3 -9 -11 -23 -17 -30 -14 -63 -81 -91 -187 -14 -55 -18 -105 -18 -230 0 -179
17 -274 78 -436 18 -49 32 -89 31 -89 -1 0 -16 5 -33 11 -27 9 -35 22 -61 87
-70 185 -101 326 -111 507 l-8 140 3 -150 c4 -168 22 -262 93 -462 33 -94 37
-114 26 -124 -20 -16 -17 -43 6 -64 11 -10 20 -26 20 -35 0 -36 48 -56 215
-88 l40 -8 -32 -19 c-20 -12 -33 -27 -33 -40 0 -12 -14 -30 -35 -44 -55 -37
-155 -159 -155 -189 0 -36 -12 -52 -51 -73 -22 -11 -39 -27 -40 -37 -1 -38
-56 -154 -78 -165 -22 -11 -91 -124 -91 -149 0 -6 7 -19 15 -28 14 -15 13 -22
-5 -63 -30 -67 -37 -132 -16 -152 9 -9 16 -26 16 -38 0 -35 43 -102 67 -105
15 -2 33 8 54 29 25 25 29 37 24 58 -4 14 -9 44 -12 66 l-4 40 18 -34 c10 -19
26 -39 36 -45 25 -16 36 7 38 79 2 77 0 68 37 148 18 38 32 72 32 76 0 5 77
111 93 128 10 9 -7 -450 -17 -465 -3 -5 1 -20 8 -34 9 -16 12 -45 8 -79 -6
-67 -7 -88 -4 -223 2 -102 3 -108 18 -90 8 10 13 14 10 8 -14 -29 127 -56 194
-37 l25 7 -29 6 -29 5 24 12 c13 6 33 14 43 17 39 13 9 14 -49 2 -37 -8 -54
-15 -45 -19 22 -10 -68 2 -112 15 l-38 11 0 75 c0 70 1 74 18 60 20 -17 68
-38 85 -38 7 0 -7 9 -30 19 -73 34 -100 78 -73 121 7 12 12 12 22 2 6 -6 16
-12 21 -12 6 0 -2 11 -17 25 -27 25 -31 41 -18 62 6 9 31 5 99 -17 51 -16 119
-33 153 -38 57 -8 61 -8 75 15 14 20 23 23 83 23 74 0 84 -8 109 -80 6 -19 12
-29 12 -22 1 9 6 10 19 4 28 -15 106 -23 122 -12 11 7 3 10 -30 10 -59 1 -114
21 -118 43 -3 12 3 17 21 17 35 0 208 46 251 67 42 19 52 45 40 101 -4 20 -7
57 -7 82 l2 45 -8 -43 c-4 -24 -14 -48 -22 -53 -57 -39 -109 -64 -202 -99 -59
-22 -109 -40 -112 -40 -7 0 -6 103 1 192 l7 74 81 12 c88 13 226 73 226 99 0
8 -4 12 -9 9 -5 -3 -12 31 -16 77 -3 45 -13 116 -21 157 -8 41 -13 107 -13
145 l2 70 9 -55 c25 -154 40 -206 59 -207 16 -2 17 1 8 18 -14 27 -8 32 23 20
13 -5 51 -12 84 -15 l59 -5 -50 13 -50 13 40 5 c36 4 34 5 -15 6 -78 3 -102
21 -30 23 95 2 115 17 25 19 -80 2 -80 2 -45 16 33 13 34 14 6 10 l-30 -4 25
19 c13 10 19 19 14 19 -6 0 -16 -5 -21 -10 -6 -6 -25 -14 -42 -19 -44 -13 -43
11 1 27 18 6 42 19 52 27 19 15 18 15 -20 14 -69 -2 -71 1 -26 26 40 24 46 24
67 10 13 -8 28 -33 34 -54 8 -31 20 -45 55 -66 25 -14 45 -34 46 -43 2 -29 2
-66 0 -88 -1 -24 -45 -47 -72 -39 -14 5 -17 2 -13 -10 5 -12 0 -15 -25 -13
-17 1 -32 6 -32 10 -1 4 -2 13 -3 18 0 6 -5 10 -10 9 -5 0 -13 5 -17 13 -5 7
-9 8 -9 3 0 -6 13 -26 29 -45 28 -35 29 -35 67 -21 22 7 65 29 98 48 32 18 61
31 64 28 3 -3 -16 -27 -44 -54 -47 -46 -106 -77 -125 -65 -5 3 -9 3 -9 1 0
-12 59 -130 60 -119 0 7 -9 30 -20 52 -23 46 -25 54 -7 47 7 -3 24 1 38 9 32
18 39 17 39 -3 1 -34 54 -117 79 -123 21 -5 22 -7 8 -19 -11 -8 -36 -12 -70
-9 -43 2 -53 0 -49 -11 4 -9 19 -12 57 -9 l52 4 10 -36 9 -37 -35 8 c-20 5
-47 8 -61 8 -22 0 -21 -2 10 -15 l35 -14 -35 5 c-21 3 -30 2 -22 -4 8 -4 13
-12 12 -17 -1 -4 7 -11 17 -15 14 -6 11 -8 -12 -9 -18 -2 -23 -4 -12 -7 9 -2
15 -9 12 -14 -4 -5 -2 -9 4 -9 5 0 17 18 27 40 20 44 38 36 28 -13 -3 -15 -1
-27 4 -27 5 0 10 -11 10 -24 0 -17 -5 -23 -14 -19 -8 3 -14 0 -14 -7 0 -6 4
-9 9 -5 5 3 12 1 16 -5 3 -5 0 -10 -7 -10 -10 0 -9 -3 2 -9 8 -6 17 -8 21 -5
4 2 19 0 33 -6 14 -5 28 -5 31 -1 2 5 -11 12 -30 15 -19 4 -35 11 -35 16 0 6
11 5 26 -1 15 -5 29 -7 32 -4 3 3 -9 10 -27 16 -23 8 -29 14 -21 24 5 6 7 15
3 19 -4 4 5 2 20 -3 44 -17 67 -14 67 9 0 11 5 29 12 39 13 21 2 94 -24 162
-12 32 -16 35 -37 27 -30 -11 -77 -4 -73 11 1 6 -3 11 -8 11 -13 0 -30 44 -36
93 -4 32 0 41 28 68 18 17 42 35 53 40 19 9 18 9 -3 5 -15 -3 -26 2 -33 15
-10 19 -11 19 -29 -3 -10 -13 -20 -21 -23 -18 -8 9 -16 110 -9 110 5 0 14 -6
21 -12 10 -11 10 -8 0 14 -9 22 -15 25 -26 17 -10 -9 -13 -8 -13 0 0 7 -4 10
-9 7 -5 -3 -11 1 -15 9 -3 8 -11 12 -19 9 -17 -6 -42 23 -51 61 -4 17 -23 44
-43 62 -22 20 -32 37 -27 45 4 7 3 10 -1 5 -11 -10 -86 63 -78 76 3 6 1 7 -4
4 -15 -9 -46 29 -39 48 3 9 10 13 16 10 6 -3 7 1 4 10 -5 13 -10 12 -28 -7
-20 -22 -21 -26 -9 -113 7 -49 12 -124 12 -165 -1 -41 6 -108 15 -148 9 -40
16 -109 16 -152 0 -70 -2 -81 -22 -95 -22 -15 -23 -14 -26 5 -2 11 6 32 17 46
26 33 26 54 3 85 -10 13 -26 45 -35 70 -25 67 -47 82 -122 87 l-64 4 -3 57 -3
56 -36 3 -36 3 1 75 2 75 50 23 c28 13 68 39 90 57 32 28 36 29 21 9 -31 -45
-40 -63 -28 -56 19 12 74 98 76 120 1 11 3 25 4 30 0 4 13 5 29 2 19 -5 23 -4
13 3 -17 11 -12 13 104 50 61 20 143 67 133 76 -2 2 -42 -7 -88 -21 -76 -23
-281 -64 -316 -64 -9 0 -14 11 -14 30 0 17 -7 33 -17 39 -14 8 -6 10 36 11 46
0 52 -2 41 -15 -15 -19 4 -47 26 -38 17 6 19 43 2 43 -29 1 20 18 68 25 51 7
51 6 47 -19 -4 -21 -2 -26 16 -26 28 0 39 29 17 45 -14 11 -11 13 23 19 22 3
46 8 53 11 10 4 14 -1 14 -17 -1 -17 5 -23 19 -23 23 0 33 34 14 46 -8 5 1 10
27 16 56 11 57 11 65 -17 6 -22 7 -23 8 -4 1 12 -5 27 -13 34 -8 6 -12 19 -9
27 4 11 -1 9 -15 -5 -12 -12 -31 -22 -41 -22 -19 0 -18 3 6 63 69 170 107 347
107 507 0 150 -24 258 -66 306 l-31 35 24 51 c13 28 30 57 36 64 10 10 1 24
-48 67 -53 49 -194 135 -204 125 -2 -2 29 -20 68 -41 40 -20 87 -50 105 -65
l34 -28 -37 -67 c-21 -38 -40 -67 -44 -65 -3 2 -40 20 -81 41 -111 55 -210 77
-350 77 -125 0 -258 -26 -356 -69 -25 -12 -52 -21 -58 -21 -15 0 -78 110 -72
126 10 27 149 100 226 119 21 5 28 0 45 -32 l20 -38 185 0 c102 0 191 -3 199
-5 8 -3 24 13 41 42 l28 46 -25 7 c-14 3 -28 4 -31 0 -3 -3 2 -5 11 -5 20 0
21 -16 3 -49 l-13 -24 -196 -1 -196 -1 -15 32 c-8 18 -12 34 -8 37 12 7 130
25 187 29 32 2 23 4 -25 4 -41 1 -100 -5 -130 -11z m-290 -218 c30 -54 37 -78
21 -78 -14 0 -84 108 -77 119 13 20 26 11 56 -41z m987 -54 c-33 -67 -34 -69
-55 -55 -10 6 -5 23 23 75 30 53 40 64 51 56 11 -10 7 -23 -19 -76z m-309 46
c157 -44 319 -148 340 -218 25 -83 8 -118 -19 -41 -10 28 -26 57 -36 64 -145
107 -345 163 -538 151 -119 -7 -199 -24 -317 -68 -116 -43 -135 -59 -164 -143
l-23 -70 -1 53 c0 33 8 72 22 103 19 46 27 53 97 88 213 107 445 136 639 81z
m-184 -82 l15 -23 21 23 c18 22 25 23 72 17 55 -7 192 -48 217 -64 9 -6 12
-18 7 -37 l-8 -29 -20 25 c-16 20 -19 21 -13 5 16 -45 16 -52 0 -59 -23 -9
-38 6 -81 75 -46 76 -74 77 -74 1 l0 -26 -32 30 c-30 27 -24 13 13 -31 17 -21
11 -65 -10 -65 -5 0 -40 34 -77 75 -37 41 -75 75 -85 75 -19 0 -39 -52 -39
-103 0 -52 -48 -47 -152 16 -92 56 -101 64 -83 71 32 12 54 6 79 -21 29 -31
36 -28 45 19 8 38 27 45 127 47 53 1 64 -2 78 -21z m-490 -128 c-20 -28 -38
-49 -40 -47 -8 8 26 76 43 86 34 20 33 11 -3 -39z m276 -68 c0 -4 -37 -13 -82
-20 -46 -7 -93 -15 -105 -18 -13 -4 -23 -2 -23 4 0 13 30 23 100 32 80 11 110
11 110 2z m467 -28 c51 -9 127 -26 170 -40 l78 -24 21 24 22 25 6 -22 c3 -12
6 -40 6 -63 l0 -41 -77 22 c-132 38 -261 56 -443 62 -232 8 -353 -5 -624 -64
l-29 -6 7 64 c7 65 26 106 26 57 0 -51 16 -52 187 -18 263 52 440 58 650 24z
m39 -89 c50 -9 129 -26 175 -38 78 -20 84 -24 87 -50 l3 -27 -23 23 c-19 19
-45 27 -132 41 -203 31 -317 38 -536 33 -272 -7 -412 -32 -472 -85 -17 -14
-18 -13 -18 10 0 14 7 31 15 38 16 14 213 55 330 69 118 14 462 6 571 -14z
m-175 -44 c24 -20 24 -20 4 -36 -19 -15 -16 -16 42 -11 58 5 131 -3 178 -20
15 -5 17 -4 9 5 -5 6 -34 20 -63 30 -29 10 -49 21 -43 25 6 3 24 -2 41 -11 25
-15 34 -16 50 -6 11 7 33 10 49 7 28 -6 30 -9 43 -92 7 -48 13 -141 13 -207
-1 -104 -4 -127 -24 -165 -29 -59 -68 -100 -95 -100 -11 0 -27 -6 -33 -12 -8
-8 -46 -14 -95 -15 -45 -1 -113 -7 -152 -13 -38 -7 -92 -9 -120 -5 -27 3 -68
6 -90 6 -57 0 -162 18 -214 35 -50 17 -73 40 -106 109 -29 58 -36 159 -11 149
25 -10 31 20 31 165 l0 145 40 8 c82 18 185 25 351 27 156 1 174 -1 195 -18z
m-685 -306 c8 -49 29 -132 46 -183 28 -85 34 -94 67 -110 40 -18 22 -30 -21
-13 -60 23 -161 418 -133 517 7 24 10 17 17 -46 5 -41 15 -115 24 -165z m1113
135 c-20 -146 -101 -400 -136 -427 -31 -24 -48 -15 -21 10 46 43 129 299 144
445 4 35 11 59 15 55 4 -4 4 -42 -2 -83z m-49 -85 c0 -8 -9 -15 -20 -15 -20 0
-26 11 -13 23 12 13 33 7 33 -8z m-1030 -57 c0 -13 3 -33 6 -45 4 -13 2 -23
-4 -23 -6 0 -11 8 -11 18 0 9 -3 29 -7 45 -4 17 -2 27 5 27 6 0 11 -10 11 -22z
m1019 -2 c0 -6 -7 -27 -14 -46 l-13 -35 -1 52 c-1 43 2 51 14 47 8 -4 15 -11
14 -18z m-1021 -293 c20 -5 21 -7 6 -18 -22 -15 -11 -48 13 -43 11 2 18 12 17
26 0 16 4 21 15 17 47 -14 169 -35 261 -44 57 -6 106 -13 108 -16 3 -3 0 -5
-6 -5 -7 0 -12 -13 -12 -30 0 -29 -2 -30 -44 -30 -127 0 -415 78 -430 117 -8
21 13 46 33 37 9 -4 26 -9 39 -11z m152 7 c13 -9 13 -10 0 -10 -8 0 -22 5 -30
10 -13 9 -13 10 0 10 8 0 22 -5 30 -10z m720 0 c-8 -5 -22 -9 -30 -9 -10 0 -8
3 5 9 27 12 43 12 25 0z m-379 -40 c107 2 149 -1 154 -10 6 -10 -36 -11 -191
-7 -204 5 -375 26 -304 37 19 3 71 -1 115 -8 48 -8 139 -13 226 -12z m337 21
c15 -9 -14 -16 -108 -26 -46 -4 -51 -4 -30 6 14 6 45 14 70 19 25 4 47 8 50 9
3 0 11 -3 18 -8z m-432 -19 c-10 -2 -22 0 -28 6 -6 6 0 7 19 4 21 -5 23 -7 9
-10z m277 11 c-7 -2 -19 -2 -25 0 -7 3 -2 5 12 5 14 0 19 -2 13 -5z m292 -13
c3 -5 1 -10 -4 -10 -6 0 -11 5 -11 10 0 6 2 10 4 10 3 0 8 -4 11 -10z m-945
-10 c0 -5 -2 -10 -4 -10 -3 0 -8 5 -11 10 -3 6 -1 10 4 10 6 0 11 -4 11 -10z
m680 -44 c0 -3 -4 -8 -10 -11 -5 -3 -10 -1 -10 4 0 6 5 11 10 11 6 0 10 -2 10
-4z m-106 -21 c4 -13 -9 -15 -84 -15 -73 0 -90 3 -90 15 0 12 16 15 84 15 65
0 85 -3 90 -15z m-36 -42 c-27 -2 -69 -2 -95 0 -27 2 -5 3 47 3 52 0 74 -1 48
-3z m-302 -50 c17 -22 18 -37 2 -27 -34 21 56 -91 95 -118 22 -15 14 -3 -25
39 -71 75 -76 92 -9 30 27 -26 75 -59 105 -74 37 -18 56 -33 56 -45 0 -10 -4
-18 -10 -18 -5 0 -10 -13 -10 -30 0 -16 5 -30 11 -30 6 0 9 -10 7 -22 -2 -19
-10 -24 -40 -26 l-38 -3 0 -58 0 -59 -64 -7 c-36 -3 -84 -16 -108 -28 -36 -18
-46 -30 -58 -68 -8 -25 -22 -57 -31 -69 -15 -23 -15 -21 -12 36 3 32 10 82 17
109 7 30 11 87 8 140 -2 59 2 116 12 164 14 65 14 76 1 94 -23 32 -18 45 23
66 46 25 52 25 68 4z m62 -22 c54 -45 145 -91 182 -91 39 0 124 44 173 89 53
49 74 54 53 13 -21 -41 -101 -111 -149 -131 -85 -36 -176 -5 -269 92 -44 46
-57 67 -42 67 3 0 26 -18 52 -39z m307 17 c-52 -9 -243 -8 -275 1 -14 4 52 7
145 7 100 0 154 -4 130 -8z m-50 -19 c44 4 82 7 83 5 7 -5 -80 -56 -120 -70
-35 -12 -44 -11 -94 7 -30 12 -67 31 -81 43 l-26 22 79 -7 c44 -5 115 -4 159
0z m155 -20 c-7 -11 -14 -18 -17 -15 -3 3 0 12 7 21 18 21 23 19 10 -6z m-574
-51 c1 -9 -8 -25 -19 -35 l-22 -18 20 25 20 25 -27 -24 c-15 -13 -25 -28 -22
-32 3 -5 -22 -38 -56 -74 -35 -38 -60 -73 -60 -86 0 -12 -3 -19 -7 -16 -9 9
-34 -13 -27 -24 5 -8 -10 -13 -20 -6 -2 1 -12 -6 -23 -15 -12 -11 -23 -14 -33
-8 -10 6 -5 14 23 30 41 25 57 47 57 81 0 25 1 27 103 133 64 66 88 77 93 44z
m758 -155 c-46 -16 -61 -8 -37 20 15 18 15 19 1 9 -15 -12 -18 -9 -28 28 -6
23 -14 49 -17 58 -3 9 22 -10 56 -43 l61 -60 -36 -12z m-782 56 c-6 -27 -14
-35 -35 -37 -15 -2 -27 0 -27 4 0 10 62 75 67 70 2 -2 0 -19 -5 -37z m378 7
c0 -8 -4 -18 -10 -21 -5 -3 -10 3 -10 14 0 12 5 21 10 21 6 0 10 -6 10 -14z
m13 -43 c-7 -2 -21 -2 -30 0 -10 3 -4 5 12 5 17 0 24 -2 18 -5z m-413 -62 c0
-10 -10 -12 -40 -8 -22 3 -40 3 -40 1 0 -2 18 -13 40 -24 39 -20 53 -40 27
-40 -7 0 -24 8 -37 17 l-25 17 20 -23 19 -22 -29 5 c-19 4 -14 0 15 -11 l45
-18 -85 -6 c-80 -5 -81 -5 -25 -8 78 -3 119 -19 55 -21 -25 -1 -54 -5 -65 -10
-19 -8 -18 -9 5 -11 16 -1 8 -5 -20 -9 l-45 -7 45 -1 c25 -1 62 3 83 9 22 6
41 9 43 7 8 -9 -46 -107 -65 -118 -22 -11 -66 3 -57 19 3 4 -5 6 -17 4 -41 -8
-62 19 -62 82 0 44 4 59 18 66 9 6 14 15 11 21 -4 7 -2 8 5 4 21 -13 60 22 71
64 6 21 20 46 31 54 18 12 24 12 50 -2 16 -10 29 -23 29 -31z m413 32 c-7 -2
-21 -2 -30 0 -10 3 -4 5 12 5 17 0 24 -2 18 -5z m407 -7 c0 -2 -13 -9 -30 -15
-35 -12 -41 -5 -7 9 25 10 37 12 37 6z m-805 -219 c-13 -61 -16 -112 -12 -168
4 -59 2 -78 -6 -70 -19 19 -20 122 -2 221 10 52 17 124 17 160 l0 65 10 -60
c8 -48 7 -77 -7 -148z m385 188 c0 -8 -4 -15 -10 -15 -5 0 -10 7 -10 15 0 8 5
15 10 15 6 0 10 -7 10 -15z m80 -42 c0 -5 -37 -7 -81 -5 -60 3 -84 0 -90 -10
-7 -10 -9 -9 -9 5 0 15 11 17 90 17 50 0 90 -3 90 -7z m323 0 c-7 -2 -21 -2
-30 0 -10 3 -4 5 12 5 17 0 24 -2 18 -5z m-343 -31 c0 -4 -21 -6 -47 -4 -83 5
-90 9 -20 11 37 0 67 -2 67 -7z m-47 -29 c-13 -2 -33 -2 -45 0 -13 2 -3 4 22
4 25 0 35 -2 23 -4z m-642 -72 c-6 -52 -7 -54 -23 -37 -22 21 -22 27 -3 73 21
49 33 31 26 -36z m689 47 c0 -5 -29 -8 -65 -8 -36 0 -65 3 -65 8 0 4 29 7 65
7 36 0 65 -3 65 -7z m135 -36 c29 -5 45 -16 62 -41 31 -46 29 -67 -7 -80 -61
-21 -58 -105 5 -125 39 -13 38 -12 30 -35 -6 -18 -32 -31 -97 -45 l-28 -6 0
65 c0 37 4 65 10 65 6 0 10 32 10 75 l0 75 -190 0 -190 0 0 -74 c0 -42 4 -76
10 -78 15 -5 1 -118 -15 -118 -15 0 -118 19 -120 23 -2 1 -6 12 -9 25 -6 19
-4 22 19 22 30 0 75 40 75 67 0 30 -28 61 -60 68 -17 4 -30 13 -30 21 0 43 46
78 123 94 52 10 348 11 402 2z m-779 -101 c34 -17 69 -31 78 -31 20 0 21 -14
1 -30 -32 -26 -146 26 -175 80 -15 28 -3 46 18 27 10 -8 45 -29 78 -46z m416
26 c-6 -7 -12 -30 -15 -52 l-4 -40 -1 46 c-2 46 3 59 21 59 5 0 5 -5 -1 -13z
m54 -6 c-26 -29 -17 -56 19 -56 24 0 31 5 33 23 2 14 -4 29 -15 38 -17 13 -16
14 9 11 37 -4 40 -9 41 -64 l0 -48 -56 -3 -57 -3 0 55 c0 51 6 63 34 65 5 1 1
-8 -8 -18z m197 12 c-7 -2 -19 -2 -25 0 -7 3 -2 5 12 5 14 0 19 -2 13 -5z m70
0 c-7 -2 -19 -2 -25 0 -7 3 -2 5 12 5 14 0 19 -2 13 -5z m-830 -38 c11 -16 13
-23 5 -20 -15 6 -42 45 -31 45 5 0 16 -12 26 -25z m46 -85 c1 -25 -43 -95 -63
-98 -29 -6 -116 38 -116 59 0 10 4 20 9 23 5 3 19 27 31 53 12 27 27 51 33 55
14 8 105 -71 106 -92z m799 35 c2 -25 1 -25 -83 -25 -69 0 -85 3 -85 15 0 12
13 15 55 15 30 0 55 5 55 10 0 6 13 10 28 10 22 0 28 -5 30 -25z m-698 -44 c0
-5 -9 -18 -20 -31 -11 -12 -17 -26 -15 -31 3 -4 1 -10 -5 -14 -5 -3 -10 -15
-10 -26 0 -28 -34 -37 -112 -30 -27 2 -21 21 6 21 20 0 30 11 51 56 15 31 25
64 22 74 -4 17 -2 17 39 3 24 -8 44 -18 44 -22z m180 -63 c0 -16 -4 -28 -9
-28 -10 0 -21 35 -21 69 0 24 0 24 15 5 8 -10 15 -31 15 -46z m187 0 c-2 -13
-4 -3 -4 22 0 25 2 35 4 23 2 -13 2 -33 0 -45z m113 -9 l0 -71 -31 6 c-17 3
-40 6 -50 6 -17 0 -19 8 -19 65 l0 65 50 0 50 0 0 -71z m27 -26 c-2 -21 -4 -6
-4 32 0 39 2 55 4 38 2 -18 2 -50 0 -70z m141 30 l-3 -68 -47 -3 -48 -3 0 70
0 71 50 0 51 0 -3 -67z m31 0 c-1 -67 -2 -67 -10 -23 -11 63 -11 90 1 90 6 0
9 -28 9 -67z m-424 -56 c44 -9 104 -19 133 -22 l52 -7 0 -129 c0 -112 -2 -129
-16 -129 -24 0 -187 56 -250 86 -66 31 -77 53 -64 125 6 29 10 67 10 86 0 33
0 33 28 19 15 -7 63 -21 107 -29z m-327 -87 c-1 -58 -2 -60 -27 -59 l-26 1 25
8 c14 4 18 9 10 9 -13 1 -13 2 0 11 12 8 8 10 -15 11 l-30 1 30 9 c24 6 19 7
-26 6 l-56 -2 10 33 c10 30 13 32 58 32 l47 0 0 -60z m1327 40 c3 -5 1 -10 -4
-10 -6 0 -11 5 -11 10 0 6 2 10 4 10 3 0 8 -4 11 -10z m-1421 -85 c-4 -8 -8
-15 -10 -15 -2 0 -4 7 -4 15 0 8 4 15 10 15 5 0 7 -7 4 -15z m1343 -11 c-3 -3
-12 -4 -19 -1 -8 3 -5 6 6 6 11 1 17 -2 13 -5z m-1340 -21 c-4 -3 -2 -12 4
-20 9 -9 8 -13 0 -13 -6 0 -11 2 -11 4 0 2 -3 11 -6 20 -4 10 -1 16 7 16 7 0
9 -3 6 -7z m88 -3 c-3 -5 -11 -10 -16 -10 -6 0 -7 5 -4 10 3 6 11 10 16 10 6
0 7 -4 4 -10z m-170 -20 c-18 -8 -18 -9 -2 -9 10 -1 27 4 38 9 10 6 19 7 19 2
0 -4 -12 -13 -27 -20 l-28 -12 28 4 c15 2 27 2 27 0 0 -1 3 -9 6 -17 6 -17
-52 -42 -61 -26 -4 5 5 9 19 9 14 0 28 5 31 11 5 7 -5 8 -29 4 -20 -4 -36 -3
-36 1 0 5 -3 19 -6 32 -5 18 -2 22 17 21 22 0 23 -1 4 -9z m1575 -10 c0 -5 -7
-10 -15 -10 -8 0 -15 5 -15 10 0 6 7 10 15 10 8 0 15 -4 15 -10z m-1475 -20
c-3 -5 -10 -10 -16 -10 -5 0 -9 5 -9 10 0 6 7 10 16 10 8 0 12 -4 9 -10z m-40
-59 c-8 -13 -45 -15 -45 -2 0 5 10 11 23 13 27 5 31 3 22 -11z m458 -388 c-7
-2 -19 -2 -25 0 -7 3 -2 5 12 5 14 0 19 -2 13 -5z"/>
<path d="M2160 3046 c-25 -7 -58 -20 -75 -30 -16 -9 -22 -15 -13 -12 77 23
110 27 166 22 34 -4 62 -4 62 -1 0 8 -66 35 -82 34 -7 0 -33 -6 -58 -13z"/>
<path d="M2130 2989 c-14 -6 -39 -24 -57 -41 -25 -24 -33 -42 -38 -83 -9 -66
8 -108 19 -49 18 91 54 119 153 119 60 0 67 -2 94 -33 16 -18 29 -38 28 -45 0
-9 -2 -9 -6 1 -8 21 -56 40 -85 35 l-27 -5 21 -18 c19 -15 20 -20 9 -34 -19
-22 -40 -20 -50 6 -8 21 -8 21 -14 -4 -17 -67 35 -113 105 -95 35 9 47 33 50
97 2 48 0 55 -33 85 -45 41 -114 54 -177 32 -23 -8 -42 -13 -42 -11 0 11 73
38 120 44 l55 7 -50 1 c-27 0 -61 -4 -75 -9z"/>
<path d="M2685 2990 c57 -6 117 -29 130 -49 3 -5 -9 -2 -27 7 -44 22 -135 21
-175 -3 -46 -27 -63 -63 -58 -121 6 -57 30 -84 77 -84 41 0 64 15 76 47 11 33
-1 80 -13 51 -4 -10 -15 -18 -25 -18 -26 0 -33 30 -14 51 16 18 16 19 -2 21
-37 3 -58 -3 -76 -19 -22 -20 -23 -10 -2 22 39 59 173 59 225 -1 9 -11 23 -41
31 -69 14 -49 14 -49 19 -18 7 44 -14 119 -41 148 -28 30 -78 45 -140 44 -42
-2 -41 -2 15 -9z"/>
<path d="M2218 2713 c18 -2 45 -2 60 0 15 2 0 4 -33 4 -33 0 -45 -2 -27 -4z"/>
<path d="M2492 2697 c11 -26 10 -31 -12 -48 l-25 -20 27 12 c36 16 40 30 17
60 l-20 24 13 -28z"/>
<path d="M2613 2713 c15 -2 39 -2 55 0 15 2 2 4 -28 4 -30 0 -43 -2 -27 -4z"/>
<path d="M2310 2587 c0 -54 28 -82 100 -98 68 -16 160 30 174 87 9 35 2 40
-23 15 -18 -18 -33 -21 -107 -21 -81 0 -120 10 -136 34 -4 6 -8 -2 -8 -17z
m172 -75 c14 -14 -29 -19 -80 -9 -24 5 -40 13 -36 18 7 13 102 5 116 -9z"/>
<path d="M2403 2593 c26 -2 68 -2 95 0 26 2 4 3 -48 3 -52 0 -74 -1 -47 -3z"/>
<path d="M2052 2388 c2 -15 10 -23 23 -23 30 0 27 39 -3 43 -20 3 -23 0 -20
-20z"/>
<path d="M2200 2371 c0 -27 19 -36 37 -18 18 18 9 37 -18 37 -12 0 -19 -7 -19
-19z"/>
<path d="M2175 2055 c-35 -34 -33 -78 4 -116 18 -17 40 -29 56 -29 32 0 85 50
85 80 0 78 -91 119 -145 65z"/>
<path d="M1885 1770 c45 -11 123 -11 130 0 4 6 -24 10 -77 9 -59 -1 -75 -4
-53 -9z"/>
<path d="M2224 1385 c20 -15 20 -15 0 -16 -10 0 3 -7 30 -15 66 -21 69 -11 4
21 -29 14 -44 19 -34 10z"/>
<path d="M2498 3743 c12 -2 32 -2 45 0 12 2 2 4 -23 4 -25 0 -35 -2 -22 -4z"/>
<path d="M2603 3733 c9 -2 23 -2 30 0 6 3 -1 5 -18 5 -16 0 -22 -2 -12 -5z"/>
<path d="M2330 3591 c-68 -10 -180 -39 -200 -52 -12 -8 -11 -9 5 -5 208 51
409 57 543 15 18 -6 36 -9 39 -6 3 3 -25 15 -61 26 -75 23 -241 34 -326 22z"/>
<path d="M3066 3427 c3 -10 9 -15 12 -12 3 3 0 11 -7 18 -10 9 -11 8 -5 -6z"/>
<path d="M3086 3248 c-3 -7 -7 -92 -10 -189 l-6 -177 25 -4 c14 -3 25 -2 25 3
0 4 8 10 18 12 9 3 0 5 -20 6 -43 1 -52 20 -10 22 15 1 38 5 52 9 20 7 17 9
-20 8 -25 -1 -46 1 -47 5 -2 4 -3 72 -3 152 l0 145 26 0 c14 0 23 4 19 10 -9
14 -45 12 -49 -2z"/>
<path d="M3105 3199 c6 -8 71 -29 90 -29 6 0 1 6 -9 12 -26 15 -87 28 -81 17z"/>
<path d="M3239 3065 c-3 -94 -7 -117 -23 -134 -11 -12 -24 -21 -30 -21 -7 0
-12 -27 -12 -73 -1 -46 1 -60 5 -38 5 29 12 36 46 47 l40 12 -35 1 c-30 1 -32
3 -17 12 10 6 25 8 33 5 11 -4 14 3 13 32 -2 30 -3 32 -6 10 -4 -23 -9 -28
-33 -28 l-28 0 29 31 c28 30 29 35 29 129 0 54 4 100 9 102 5 2 3 8 -4 15 -10
10 -14 -9 -16 -102z"/>
<path d="M3161 2744 c0 -11 3 -14 6 -6 3 7 2 16 -1 19 -3 4 -6 -2 -5 -13z"/>
<path d="M3140 2653 c-24 -136 -61 -268 -90 -326 -16 -33 -27 -64 -23 -70 3
-5 2 -7 -4 -4 -5 3 -27 -12 -49 -35 -50 -52 -99 -74 -122 -56 -10 7 6 -10 33
-37 28 -28 53 -46 56 -41 4 5 -5 20 -19 33 -14 13 -23 25 -21 26 2 2 24 18 47
37 24 18 47 29 50 24 4 -5 13 -9 20 -10 29 -2 33 -5 26 -16 -5 -7 -3 -8 5 -4
9 6 8 13 -5 27 -14 15 -14 19 -3 19 8 0 19 -4 25 -10 6 -6 16 1 27 23 15 26
15 28 1 10 -13 -18 -20 -20 -35 -12 -11 5 -19 20 -19 35 0 16 4 23 12 18 7 -4
8 -3 4 4 -7 12 29 92 48 104 6 4 25 8 41 9 32 1 28 3 -20 14 l-30 7 25 13 c14
8 33 12 44 8 12 -3 16 -1 12 6 -4 6 -21 11 -37 11 -24 0 -29 4 -25 18 20 69
51 242 43 242 -3 0 -10 -30 -17 -67z"/>
<path d="M2970 2025 c13 -14 26 -25 28 -25 3 0 -5 11 -18 25 -13 14 -26 25
-28 25 -3 0 5 -11 18 -25z"/>
<path d="M2562 1978 c3 -21 8 -23 68 -23 60 0 65 2 68 23 3 21 0 22 -68 22
-68 0 -71 -1 -68 -22z"/>
<path d="M3001 1959 c-1 -8 6 -24 15 -35 15 -19 15 -19 6 1 -5 11 -12 27 -15
35 -5 13 -6 13 -6 -1z"/>
<path d="M2887 1758 c-7 -4 24 -7 68 -6 81 1 78 5 -8 10 -27 2 -54 0 -60 -4z"/>
<path d="M3215 1696 c10 -14 19 -26 22 -26 7 0 -17 39 -28 46 -6 3 -3 -5 6
-20z"/>
<path d="M3157 1703 c-7 -12 66 -158 78 -156 20 5 15 50 -12 103 -26 50 -54
73 -66 53z"/>
<path d="M3141 1668 c-2 -15 43 -122 46 -112 2 6 -7 36 -21 65 -13 30 -25 51
-25 47z"/>
<path d="M2614 1384 c-32 -19 -63 -39 -68 -44 -19 -19 2 -19 55 -1 30 11 49
20 42 20 -6 1 -24 -4 -39 -9 -47 -18 -37 -3 20 30 48 27 65 40 53 40 -2 0 -30
-16 -63 -36z"/>
<path d="M3185 1250 c3 -5 16 -10 28 -9 21 0 21 1 2 9 -28 12 -37 12 -30 0z"/>
<path d="M3236 1235 c-9 -26 -7 -32 5 -12 6 10 9 21 6 23 -2 3 -7 -2 -11 -11z"/>
<path d="M2870 1163 c0 -15 -10 -38 -22 -51 l-23 -24 28 13 c23 10 27 18 27
51 0 21 -2 38 -5 38 -3 0 -5 -12 -5 -27z"/>
<path d="M2765 1115 c-40 -10 -45 -13 -25 -16 29 -5 80 9 80 22 0 5 -1 8 -2 8
-2 -1 -25 -7 -53 -14z"/>
<path d="M2111 1106 c19 -11 34 -13 55 -6 23 6 24 8 8 9 -12 1 -37 3 -55 7
l-34 5 26 -15z"/>
<path d="M2310 1074 c-19 -7 -57 -13 -85 -14 -36 -1 -44 -4 -30 -9 35 -14 155
13 155 34 0 3 -1 4 -2 4 -2 -1 -19 -7 -38 -15z"/>
<path d="M2880 1053 c0 -24 -20 -43 -75 -71 -22 -12 -34 -21 -26 -22 28 0 101
51 107 76 4 14 4 28 0 31 -3 4 -6 -3 -6 -14z"/>
<path d="M2327 1026 c-9 -24 -50 -45 -126 -66 l-72 -20 -47 20 c-46 19 -46 20
-22 1 31 -25 111 -45 142 -36 48 13 97 38 92 46 -3 5 3 6 12 2 12 -4 15 -3 10
5 -4 7 -3 12 2 12 5 0 12 10 15 22 7 26 2 36 -6 14z"/>
<path d="M2073 1023 c10 -16 57 -22 107 -13 l45 7 -55 2 c-30 1 -66 4 -79 8
-15 4 -22 2 -18 -4z"/>
<path d="M2574 1017 c3 -10 6 -26 7 -35 0 -9 3 -12 5 -5 3 7 13 3 28 -12 51
-51 171 -53 228 -4 23 20 23 20 -19 -1 l-43 -20 -77 21 c-77 20 -96 29 -122
59 -12 13 -13 13 -7 -3z"/>
<path d="M2745 1021 l-60 -6 45 -7 c48 -7 100 -1 100 13 0 5 -6 8 -12 7 -7 -1
-40 -4 -73 -7z"/>
<path d="M2312 935 c0 -16 2 -22 5 -12 2 9 2 23 0 30 -3 6 -5 -1 -5 -18z"/>
<path d="M2592 900 c0 -14 2 -19 5 -12 2 6 2 18 0 25 -3 6 -5 1 -5 -13z"/>
<path d="M2867 860 c-3 -11 -1 -23 4 -26 5 -3 9 6 9 20 0 31 -6 34 -13 6z"/>
<path d="M2601 843 c2 -25 2 -25 6 -5 5 25 20 24 75 -4 15 -8 35 -14 44 -14
10 0 15 -3 12 -6 -3 -3 -29 -1 -58 4 -34 6 -48 6 -42 0 6 -6 39 -12 74 -15 70
-5 140 14 144 38 1 14 -5 14 -49 2 -52 -13 -107 -17 -77 -6 8 4 -12 12 -45 19
-84 18 -85 18 -84 -13z"/>
<path d="M2292 830 c0 -14 2 -19 5 -12 2 6 2 18 0 25 -3 6 -5 1 -5 -13z"/>
<path d="M2280 786 c-6 -8 -37 -20 -68 -27 -72 -15 -89 -29 -24 -18 54 8 112
34 112 49 0 14 -6 12 -20 -4z"/>
<path d="M2610 775 c0 -8 3 -14 8 -13 4 1 25 -4 47 -10 22 -7 54 -12 70 -11
22 0 14 5 -28 15 -32 7 -67 18 -77 24 -16 9 -20 8 -20 -5z"/>
<path d="M2832 773 c-53 -19 -50 -27 4 -11 21 6 43 11 47 10 5 -2 6 2 2 8 -3
5 -7 9 -8 9 -1 -1 -21 -8 -45 -16z"/>
<path d="M2046 771 c9 -9 83 -27 74 -18 -3 3 -23 10 -44 16 -22 5 -35 6 -30 2z"/>
<path d="M2881 754 c-1 -16 -69 -45 -120 -50 -27 -3 -66 1 -94 10 l-49 15 8
-27 c4 -15 7 -40 7 -57 -1 -22 0 -25 6 -11 6 15 19 18 92 20 58 1 94 7 116 19
32 17 50 53 40 79 -3 7 -6 8 -6 2z"/>
<path d="M2020 721 c0 -45 48 -66 150 -66 47 0 88 -4 92 -10 5 -6 8 -3 8 6 0
9 3 30 6 47 l6 30 -43 -15 c-54 -18 -123 -13 -178 14 l-41 20 0 -26z"/>
<path d="M2871 643 c-1 -25 -5 -30 -19 -26 -10 2 -38 -11 -67 -34 -39 -30 -59
-38 -92 -38 -22 0 -39 -3 -36 -7 2 -5 21 -8 42 -8 36 0 107 39 126 69 3 6 11
11 18 11 6 0 1 -7 -11 -16 -12 -8 -22 -20 -22 -25 0 -6 12 -1 26 10 15 12 36
21 47 21 14 0 17 3 9 13 -5 6 -12 23 -15 37 -4 22 -4 21 -6 -7z"/>
<path d="M2012 614 c-11 -12 -10 -14 5 -14 10 0 32 -9 50 -20 29 -17 31 -17
26 -2 -5 14 -2 13 18 -4 13 -12 34 -27 46 -33 26 -13 80 -15 87 -2 3 4 -5 6
-18 4 -26 -5 -75 15 -126 53 -19 14 -42 23 -52 21 -9 -3 -18 -1 -20 3 -2 4 -9
2 -16 -6z m63 -14 c3 -6 -1 -7 -9 -4 -18 7 -21 14 -7 14 6 0 13 -4 16 -10z"/>
<path d="M2621 558 c0 -31 2 -59 7 -61 4 -3 6 16 4 41 -5 73 -10 82 -11 20z"/>
<path d="M2921 587 c2 -1 13 -9 24 -17 19 -14 19 -14 6 3 -7 9 -18 17 -24 17
-6 0 -8 -1 -6 -3z"/>
<path d="M3005 520 c21 -22 41 -40 44 -40 3 0 -13 18 -34 40 -21 22 -41 40
-44 40 -3 0 13 -18 34 -40z"/>
<path d="M2225 507 c-22 -5 -58 -25 -79 -43 -64 -55 -122 -78 -195 -79 -61 0
-88 -13 -62 -30 7 -4 8 0 4 11 -5 14 -1 15 28 9 19 -4 38 -13 42 -19 6 -8 10
-8 14 2 2 6 14 12 26 12 36 0 120 45 156 84 19 20 42 36 50 36 9 1 30 7 46 15
36 16 25 17 -30 2z"/>
<path d="M2655 504 c10 -8 26 -14 35 -14 9 0 25 -10 36 -21 32 -36 97 -76 144
-90 25 -7 49 -19 54 -27 7 -12 10 -12 17 -1 4 7 25 18 46 24 37 11 37 11 -27
11 -76 0 -147 27 -198 77 -19 18 -52 36 -79 43 -41 11 -45 10 -28 -2z"/>
<path d="M2228 473 c7 -3 16 -2 19 1 4 3 -2 6 -13 5 -11 0 -14 -3 -6 -6z"/>
<path d="M2665 473 c11 -3 31 -15 45 -26 l25 -22 -24 28 c-14 15 -34 26 -45
26 -20 -1 -20 -1 -1 -6z"/>
<path d="M1851 414 c0 -11 3 -14 6 -6 3 7 2 16 -1 19 -3 4 -6 -2 -5 -13z"/>
<path d="M3041 394 c0 -11 3 -14 6 -6 3 7 2 16 -1 19 -3 4 -6 -2 -5 -13z"/>
</g>
</svg>
