<?xml version="1.0" standalone="no"?>
<!DOCTYPE svg PUBLIC "-//W3C//DTD SVG 20010904//EN"
 "http://www.w3.org/TR/2001/REC-SVG-20010904/DTD/svg10.dtd">
<svg version="1.0" xmlns="http://www.w3.org/2000/svg"
 width="500.000000pt" height="500.000000pt" viewBox="0 0 500.000000 500.000000"
 preserveAspectRatio="xMidYMid meet">

<g transform="translate(0.000000,500.000000) scale(0.100000,-0.100000)"
fill="#000000" stroke="none">
<path d="M4250 3389 c-217 -88 -406 -164 -420 -169 -14 -4 -65 -25 -115 -45
-49 -20 -247 -100 -440 -177 -202 -81 -357 -149 -367 -161 -25 -29 -23 -53 18
-159 20 -51 46 -122 59 -158 35 -99 115 -273 136 -294 29 -32 71 -23 259 54
96 40 229 93 295 120 66 26 316 126 555 223 770 310 715 283 707 350 -4 39
-131 365 -194 501 -26 55 -52 77 -86 75 -7 0 -190 -72 -407 -160z"/>
<path d="M2291 2778 c-79 -39 -124 -141 -101 -229 16 -59 81 -123 140 -139 56
-15 129 -1 176 35 68 52 92 159 55 240 -47 102 -168 144 -270 93z m171 -34
c112 -57 109 -233 -6 -288 -141 -67 -287 79 -220 220 38 79 141 110 226 68z"/>
<path d="M2610 2398 c-107 -44 -253 -102 -325 -129 -71 -27 -134 -54 -139 -59
-10 -10 9 -79 29 -107 11 -15 23 -12 116 26 57 24 210 86 339 138 129 52 238
98 241 101 12 13 -33 112 -50 111 -9 0 -104 -37 -211 -81z"/>
<path d="M1650 2348 c-80 -32 -460 -185 -845 -340 -385 -154 -710 -286 -722
-294 -42 -26 -31 -74 72 -329 52 -130 102 -250 111 -266 22 -43 54 -55 106
-39 45 13 1396 553 1533 613 44 19 102 43 128 52 52 20 77 46 77 83 0 13 -16
61 -35 108 -19 46 -35 92 -35 102 0 9 -14 44 -31 77 -16 33 -48 105 -70 160
-22 55 -48 108 -56 118 -27 29 -80 19 -233 -45z"/>
<path d="M2788 2277 c-16 -6 -28 -14 -28 -19 0 -17 100 -253 107 -252 20 1 63
17 63 23 0 14 -103 261 -109 260 -3 -1 -18 -6 -33 -12z"/>
<path d="M2688 2234 c-16 -8 -28 -18 -28 -22 0 -12 91 -236 99 -244 8 -9 73
13 69 23 -2 3 -25 63 -53 133 -27 69 -52 126 -55 126 -3 -1 -17 -8 -32 -16z"/>
<path d="M2390 2117 c-14 -6 -27 -12 -28 -13 -7 -5 20 -74 28 -74 7 0 52 17
68 25 5 4 -29 75 -36 74 -4 0 -18 -5 -32 -12z"/>
<path d="M2288 2077 c-31 -12 -34 -23 -16 -62 13 -28 17 -30 53 -13 28 12 31
25 13 63 -12 28 -12 27 -50 12z"/>
<path d="M3042 1687 c-6 -7 -35 -25 -64 -39 -79 -39 -395 -158 -418 -158 -26
0 -25 -9 9 -84 34 -74 60 -96 118 -96 40 0 163 43 303 107 110 50 133 95 100
194 -30 87 -34 94 -48 76z"/>
</g>
</svg>
