<?xml version="1.0" standalone="no"?>
<!DOCTYPE svg PUBLIC "-//W3C//DTD SVG 20010904//EN"
 "http://www.w3.org/TR/2001/REC-SVG-20010904/DTD/svg10.dtd">
<svg version="1.0" xmlns="http://www.w3.org/2000/svg"
 width="379.000000pt" height="455.000000pt" viewBox="0 0 379.000000 455.000000"
 preserveAspectRatio="xMidYMid meet">

<g transform="translate(0.000000,455.000000) scale(0.100000,-0.100000)"
fill="#000000" stroke="none">
<path d="M3248 4243 c19 -7 15 -21 -31 -115 -52 -106 -82 -133 -137 -125 -45
6 -129 65 -110 77 9 6 9 9 -1 13 -11 4 -11 6 -1 6 7 1 10 6 7 12 -4 6 1 17 11
24 11 8 -7 4 -38 -8 l-57 -22 27 -28 c52 -55 322 -257 343 -257 5 0 7 19 5 43
-1 23 5 105 15 182 10 77 18 155 19 173 0 30 -2 32 -32 31 -18 0 -27 -3 -20
-6z"/>
<path d="M2585 3694 c-22 -8 -44 -19 -49 -24 -14 -14 -29 -12 -20 3 5 8 2 7
-9 -2 -10 -8 -15 -16 -12 -19 3 -3 -1 -12 -8 -21 -10 -14 -10 -14 4 -4 9 7 18
11 21 8 3 -3 11 1 17 9 7 8 18 13 26 10 9 -4 -1 -19 -30 -46 -24 -22 -55 -61
-68 -88 -19 -37 -27 -46 -36 -37 -9 9 -13 6 -18 -13 l-7 -25 -6 25 c-4 15 -7
-5 -8 -49 0 -75 17 -146 36 -146 6 0 14 -4 19 -9 5 -5 3 -6 -4 -2 -29 16 -10
-19 31 -60 23 -24 40 -46 37 -50 -3 -3 -1 -4 4 -3 16 5 56 -12 50 -21 -3 -4 5
-6 17 -2 13 3 19 1 15 -5 -5 -7 0 -9 13 -6 11 3 20 0 20 -6 0 -17 105 -13 148
6 20 9 41 15 46 14 5 -1 3 6 -5 15 -13 16 -12 16 7 6 18 -9 24 -8 35 6 12 15
12 16 -2 5 -9 -7 -18 -10 -21 -7 -3 2 20 31 51 62 44 44 61 70 75 116 23 73
17 156 -15 221 -26 52 -34 60 -45 44 -4 -8 -3 -9 4 -5 7 4 12 2 12 -3 0 -18
-19 -12 -66 20 -55 37 -105 59 -141 60 l-28 1 30 9 c17 5 46 8 65 5 l35 -4
-30 13 c-39 18 -139 17 -190 -1z m163 -64 c2 -6 8 -8 13 -4 5 3 9 0 9 -5 0 -6
6 -11 13 -11 8 0 34 -21 59 -47 l45 -48 -12 -52 c-9 -38 -9 -53 -1 -53 6 0 5
-4 -3 -9 -8 -5 -15 -25 -15 -44 -1 -19 -4 -33 -8 -30 -5 2 -8 -6 -8 -19 0 -34
-12 -46 -65 -74 -57 -28 -122 -31 -176 -7 -46 20 -59 47 -59 121 0 39 -3 52
-10 42 -16 -25 -25 -1 -23 61 1 35 -3 59 -9 59 -6 0 2 16 16 35 15 19 24 35
20 35 -13 0 70 57 91 63 30 8 119 -1 123 -13z m32 -490 c-8 -5 -24 -9 -35 -9
-16 1 -16 2 5 9 35 11 48 11 30 0z m-83 -16 c-3 -3 -12 -4 -19 -1 -8 3 -5 6 6
6 11 1 17 -2 13 -5z"/>
<path d="M2433 3598 c-15 -20 -25 -38 -20 -38 3 0 12 11 21 25 17 26 16 35 -1
13z"/>
<path d="M3068 3493 c7 -3 16 -2 19 1 4 3 -2 6 -13 5 -11 0 -14 -3 -6 -6z"/>
<path d="M2889 3193 l-24 -28 28 24 c25 23 32 31 24 31 -2 0 -14 -12 -28 -27z"/>
<path d="M1479 3163 c-21 -3 -40 -27 -104 -136 -43 -73 -86 -143 -95 -157 -9
-14 -40 -68 -70 -120 -30 -52 -59 -102 -66 -110 -18 -24 -74 -128 -74 -139 0
-6 46 14 103 45 179 96 431 214 457 214 6 0 8 -4 5 -10 -3 -5 -1 -19 6 -31 8
-15 8 -19 0 -15 -6 4 -11 0 -11 -9 0 -9 -4 -14 -8 -11 -13 8 -11 -27 2 -43 9
-12 8 -13 -4 -6 -8 5 -21 10 -28 11 -10 2 -11 -1 -1 -12 10 -12 10 -15 -1 -12
-8 2 -15 -6 -17 -17 -3 -16 -2 -17 6 -5 6 8 11 10 11 4 0 -17 -12 -25 -24 -14
-8 6 -16 2 -25 -13 -8 -12 -10 -19 -6 -15 5 5 15 -1 22 -12 8 -11 19 -17 25
-14 7 5 8 2 4 -5 -5 -7 0 -21 9 -31 15 -16 16 -22 5 -35 -11 -13 -8 -21 16
-47 46 -50 90 -93 138 -135 l43 -38 -49 -75 c-65 -98 -82 -130 -71 -141 12
-12 22 -3 93 86 35 44 67 84 72 90 5 5 14 3 24 -7 16 -15 16 -18 0 -33 -9 -9
-19 -28 -22 -42 -5 -18 -9 -21 -15 -11 -7 10 -9 10 -9 -3 0 -9 -7 -22 -15 -29
-8 -7 -12 -16 -9 -21 3 -5 -1 -6 -9 -3 -8 3 -18 1 -21 -5 -8 -13 104 -77 113
-64 41 64 86 123 94 123 5 0 3 8 -4 17 -9 10 5 5 35 -12 l48 -28 17 21 16 21
58 -35 c32 -19 61 -34 65 -34 4 0 13 13 20 29 22 50 89 126 111 128 18 2 21
-4 21 -40 0 -44 -16 -177 -50 -416 -11 -80 -19 -146 -17 -148 2 -1 17 12 34
30 73 77 91 97 87 97 -2 0 10 16 28 35 49 51 65 71 78 95 6 12 14 19 18 16 3
-4 11 2 16 12 11 19 75 99 106 132 62 66 120 140 125 161 4 16 -10 73 -40 164
-25 77 -50 158 -56 179 l-11 39 -85 -92 c-59 -63 -89 -89 -97 -82 -6 5 -41 21
-77 36 -37 14 -77 37 -90 51 l-24 25 28 -10 c17 -7 27 -7 27 -1 0 6 -4 10 -10
10 -5 0 -10 4 -10 10 0 5 7 7 15 4 8 -4 15 -1 15 5 0 6 -5 11 -11 11 -6 0 -5
6 3 14 7 7 20 24 28 36 8 12 23 31 33 42 9 12 18 28 18 37 1 9 2 21 4 26 1 6
3 20 3 32 2 16 7 21 17 17 13 -5 13 -9 3 -22 -11 -13 -10 -15 5 -9 10 4 21 7
23 7 9 0 3 22 -10 36 -20 19 -23 18 -58 -16 -16 -16 -24 -30 -16 -30 7 0 -1
-8 -19 -17 -48 -27 -166 -140 -159 -152 4 -6 -4 -5 -21 2 -57 25 -93 48 -93
58 0 6 38 66 85 135 77 111 92 144 66 144 -5 0 -50 -56 -101 -125 -52 -69 -97
-125 -100 -125 -14 0 -167 140 -209 191 -25 30 -52 63 -60 73 -13 16 -14 18
-1 11 9 -5 8 0 -4 13 -11 12 -21 20 -24 17 -3 -3 -11 0 -18 6 -10 8 -1 33 42
113 30 57 54 106 54 110 0 7 -321 5 -371 -1z m724 -411 c-36 -55 -71 -99 -75
-96 -5 3 -4 12 3 20 6 8 8 14 4 14 -4 0 6 15 21 34 16 19 47 59 69 89 65 89
51 48 -22 -61z m-561 -94 c-7 -7 -12 -8 -12 -2 0 14 12 26 19 19 2 -3 -1 -11
-7 -17z m261 -234 c-3 -8 -10 -15 -17 -15 -63 -6 -81 -12 -96 -29 -10 -11 -23
-20 -30 -20 -19 0 -140 109 -140 126 0 8 -5 14 -12 14 -6 0 -9 3 -6 6 4 3 17
0 30 -7 20 -11 22 -11 10 3 -11 14 -10 18 6 30 11 7 20 18 22 23 1 6 6 9 10 8
4 -1 7 20 5 48 l-3 50 113 -112 c69 -68 111 -117 108 -125z m-312 133 c-10 -9
-11 -8 -5 6 3 10 9 15 12 12 3 -3 0 -11 -7 -18z m33 -22 c-4 -8 -11 -12 -16
-9 -6 4 -5 10 3 15 19 12 19 11 13 -6z m196 -238 c0 -7 -5 -19 -10 -27 -8 -13
-11 -13 -27 3 -11 11 -13 17 -5 17 7 0 11 4 8 8 -2 4 4 9 15 9 10 1 19 -4 19
-10z"/>
<path d="M1705 2610 c21 -24 26 -25 19 -6 -3 8 -13 17 -22 21 -13 5 -13 2 3
-15z"/>
<path d="M2570 3016 c91 -66 169 -106 207 -106 32 0 107 32 118 50 4 7 -4 4
-19 -5 -40 -26 -94 -36 -110 -19 -8 8 -16 9 -18 4 -2 -5 -36 9 -76 31 -40 22
-70 44 -67 49 4 6 -2 10 -12 10 -10 0 -33 9 -51 20 -60 37 -47 20 28 -34z"/>
</g>
</svg>
